<?xml version="1.0" encoding="UTF-8" standalone="no"?>
<!DOCTYPE svg PUBLIC "-//W3C//DTD SVG 1.1//EN"
 "http://www.w3.org/Graphics/SVG/1.1/DTD/svg11.dtd">
<!-- Generated by graphviz version 13.0.1 (20250615.1724)
 -->
<!-- Title: family_tree Pages: 1 -->
<svg width="1085pt" height="627pt"
 viewBox="7.00 7.00 1078.00 620.00" xmlns="http://www.w3.org/2000/svg" xmlns:xlink="http://www.w3.org/1999/xlink">
<g id="graph0" class="graph" transform="scale(1 1) rotate(0) translate(14.4 612.6)">
<title>family_tree</title>
<polygon fill="white" stroke="none" points="-7.2,7.2 -7.2,-605.4 1063.85,-605.4 1063.85,7.2 -7.2,7.2"/>
<!-- G0_ME -->
<g id="node1" class="node">
<title>G0_ME</title>
<g id="a_node1"><a xlink:href="https://www.wikitree.com/wiki/Satterwhite-251" xlink:title="Paul Satterwhite 🔗\nb. 1795, GA\nd. 1858, AR" target="_blank">
<path fill="gold" stroke="black" d="M824.28,-52.65C824.28,-52.65 749.12,-52.65 749.12,-52.65 743.12,-52.65 737.12,-46.65 737.12,-40.65 737.12,-40.65 737.12,-12 737.12,-12 737.12,-6 743.12,0 749.12,0 749.12,0 824.28,0 824.28,0 830.28,0 836.28,-6 836.28,-12 836.28,-12 836.28,-40.65 836.28,-40.65 836.28,-46.65 830.28,-52.65 824.28,-52.65"/>
<text xml:space="preserve" text-anchor="middle" x="786.7" y="-35.95" font-family="Arial" font-size="10.00">Paul Satterwhite 🔗</text>
<text xml:space="preserve" text-anchor="middle" x="786.7" y="-21.7" font-family="Arial" font-size="10.00">b. 1795, GA</text>
<text xml:space="preserve" text-anchor="middle" x="786.7" y="-9.7" font-family="Arial" font-size="10.00">d. 1858, AR</text>
</a>
</g>
</g>
<!-- G0_SPOUSE -->
<g id="node2" class="node">
<title>G0_SPOUSE</title>
<g id="a_node2"><a xlink:href="https://www.wikitree.com/wiki/Powell-4847" xlink:title="Katherine Powell 🔗\nb. 1797, GA\nd. 1873, AR" target="_blank">
<path fill="gold" stroke="black" d="M971.03,-52.65C971.03,-52.65 894.38,-52.65 894.38,-52.65 888.38,-52.65 882.38,-46.65 882.38,-40.65 882.38,-40.65 882.38,-12 882.38,-12 882.38,-6 888.38,0 894.38,0 894.38,0 971.03,0 971.03,0 977.03,0 983.03,-6 983.03,-12 983.03,-12 983.03,-40.65 983.03,-40.65 983.03,-46.65 977.03,-52.65 971.03,-52.65"/>
<text xml:space="preserve" text-anchor="middle" x="932.7" y="-35.95" font-family="Arial" font-size="10.00">Katherine Powell 🔗</text>
<text xml:space="preserve" text-anchor="middle" x="932.7" y="-21.7" font-family="Arial" font-size="10.00">b. 1797, GA</text>
<text xml:space="preserve" text-anchor="middle" x="932.7" y="-9.7" font-family="Arial" font-size="10.00">d. 1873, AR</text>
</a>
</g>
</g>
<!-- G0_ME&#45;&gt;G0_SPOUSE -->
<g id="edge1" class="edge">
<title>G0_ME&#45;&gt;G0_SPOUSE</title>
<path fill="none" stroke="black" stroke-width="1.5" stroke-dasharray="5,2" d="M836.54,-26.32C851.24,-26.32 867.34,-26.32 882.1,-26.32"/>
<text xml:space="preserve" text-anchor="middle" x="859.33" y="-31.08" font-family="Times,serif" font-size="10.00">m. 1814</text>
</g>
<!-- G1_FATHER -->
<g id="node3" class="node">
<title>G1_FATHER</title>
<g id="a_node3"><a xlink:href="https://www.wikitree.com/wiki/Satterwhite-249" xlink:title="Thomas Satterwhite 🔗\nb. ~1769, VA\nd. ~1804, GA" target="_blank">
<path fill="lightcoral" stroke="black" d="M754.15,-128.3C754.15,-128.3 663.25,-128.3 663.25,-128.3 657.25,-128.3 651.25,-122.3 651.25,-116.3 651.25,-116.3 651.25,-87.65 651.25,-87.65 651.25,-81.65 657.25,-75.65 663.25,-75.65 663.25,-75.65 754.15,-75.65 754.15,-75.65 760.15,-75.65 766.15,-81.65 766.15,-87.65 766.15,-87.65 766.15,-116.3 766.15,-116.3 766.15,-122.3 760.15,-128.3 754.15,-128.3"/>
<text xml:space="preserve" text-anchor="middle" x="708.7" y="-111.6" font-family="Arial" font-size="10.00">Thomas Satterwhite 🔗</text>
<text xml:space="preserve" text-anchor="middle" x="708.7" y="-97.35" font-family="Arial" font-size="10.00">b. ~1769, VA</text>
<text xml:space="preserve" text-anchor="middle" x="708.7" y="-85.35" font-family="Arial" font-size="10.00">d. ~1804, GA</text>
</a>
</g>
</g>
<!-- G1_FATHER&#45;&gt;G0_ME -->
<g id="edge15" class="edge">
<title>G1_FATHER&#45;&gt;G0_ME</title>
<path fill="none" stroke="black" stroke-width="1.5" d="M735.98,-75.22C740.76,-70.7 745.79,-65.95 750.76,-61.26"/>
<polygon fill="black" stroke="black" stroke-width="1.5" points="753.05,-63.91 757.92,-54.5 748.24,-58.82 753.05,-63.91"/>
</g>
<!-- G1_MOTHER -->
<g id="node4" class="node">
<title>G1_MOTHER</title>
<g id="a_node4"><a xlink:href="https://www.wikitree.com/wiki/Williams-23319" xlink:title="Nancy Williams 🔗\nb. 1774, GA\nd. ~1819, TN" target="_blank">
<path fill="lightcoral" stroke="black" d="M901.78,-128.3C901.78,-128.3 829.62,-128.3 829.62,-128.3 823.62,-128.3 817.62,-122.3 817.62,-116.3 817.62,-116.3 817.62,-87.65 817.62,-87.65 817.62,-81.65 823.62,-75.65 829.62,-75.65 829.62,-75.65 901.78,-75.65 901.78,-75.65 907.78,-75.65 913.78,-81.65 913.78,-87.65 913.78,-87.65 913.78,-116.3 913.78,-116.3 913.78,-122.3 907.78,-128.3 901.78,-128.3"/>
<text xml:space="preserve" text-anchor="middle" x="865.7" y="-111.6" font-family="Arial" font-size="10.00">Nancy Williams 🔗</text>
<text xml:space="preserve" text-anchor="middle" x="865.7" y="-97.35" font-family="Arial" font-size="10.00">b. 1774, GA</text>
<text xml:space="preserve" text-anchor="middle" x="865.7" y="-85.35" font-family="Arial" font-size="10.00">d. ~1819, TN</text>
</a>
</g>
</g>
<!-- G1_FATHER&#45;&gt;G1_MOTHER -->
<g id="edge2" class="edge">
<title>G1_FATHER&#45;&gt;G1_MOTHER</title>
<path fill="none" stroke="black" stroke-width="1.5" stroke-dasharray="5,2" d="M766.27,-101.98C782.98,-101.98 801.07,-101.98 817.17,-101.98"/>
<text xml:space="preserve" text-anchor="middle" x="791.89" y="-106.73" font-family="Times,serif" font-size="10.00">m. ~1790</text>
</g>
<!-- G1_MOTHER&#45;&gt;G0_ME -->
<g id="edge16" class="edge">
<title>G1_MOTHER&#45;&gt;G0_ME</title>
<path fill="none" stroke="black" stroke-width="1.5" d="M838.07,-75.22C833.23,-70.7 828.13,-65.95 823.1,-61.26"/>
<polygon fill="black" stroke="black" stroke-width="1.5" points="825.54,-58.75 815.84,-54.49 820.77,-63.87 825.54,-58.75"/>
</g>
<!-- G2_PATERNAL_GF -->
<g id="node5" class="node">
<title>G2_PATERNAL_GF</title>
<g id="a_node5"><a xlink:href="https://www.wikitree.com/wiki/Satterwhite-248" xlink:title="William Satterwhite 🔗\nb. ~1733, VA\nd. ~1805, GA" target="_blank">
<path fill="lightsteelblue" stroke="black" d="M610.65,-211.95C610.65,-211.95 522.75,-211.95 522.75,-211.95 516.75,-211.95 510.75,-205.95 510.75,-199.95 510.75,-199.95 510.75,-171.3 510.75,-171.3 510.75,-165.3 516.75,-159.3 522.75,-159.3 522.75,-159.3 610.65,-159.3 610.65,-159.3 616.65,-159.3 622.65,-165.3 622.65,-171.3 622.65,-171.3 622.65,-199.95 622.65,-199.95 622.65,-205.95 616.65,-211.95 610.65,-211.95"/>
<text xml:space="preserve" text-anchor="middle" x="566.7" y="-195.25" font-family="Arial" font-size="10.00">William Satterwhite 🔗</text>
<text xml:space="preserve" text-anchor="middle" x="566.7" y="-181" font-family="Arial" font-size="10.00">b. ~1733, VA</text>
<text xml:space="preserve" text-anchor="middle" x="566.7" y="-169" font-family="Arial" font-size="10.00">d. ~1805, GA</text>
</a>
</g>
</g>
<!-- G2_PATERNAL_GF&#45;&gt;G1_FATHER -->
<g id="edge17" class="edge">
<title>G2_PATERNAL_GF&#45;&gt;G1_FATHER</title>
<path fill="none" stroke="black" stroke-width="1.5" d="M611.24,-159.01C624.59,-151.34 639.4,-142.82 653.36,-134.8"/>
<polygon fill="black" stroke="black" stroke-width="1.5" points="654.94,-137.93 661.86,-129.91 651.45,-131.86 654.94,-137.93"/>
</g>
<!-- G2_PATERNAL_GM -->
<g id="node6" class="node tree&#45;connection">
<title>G2_PATERNAL_GM</title>
<g id="a_node6"><a xlink:href="https://www.wikitree.com/wiki/Dunn-1110" xlink:title="Millicent Dunn 🔗\nb. ~1746, VA\nd. ~1820, GA" target="_blank">
<path fill="lightsteelblue" stroke="black" d="M760.4,-211.95C760.4,-211.95 689,-211.95 689,-211.95 683,-211.95 677,-205.95 677,-199.95 677,-199.95 677,-171.3 677,-171.3 677,-165.3 683,-159.3 689,-159.3 689,-159.3 760.4,-159.3 760.4,-159.3 766.4,-159.3 772.4,-165.3 772.4,-171.3 772.4,-171.3 772.4,-199.95 772.4,-199.95 772.4,-205.95 766.4,-211.95 760.4,-211.95"/>
<path fill="none" stroke="black" d="M764.4,-215.95C764.4,-215.95 685,-215.95 685,-215.95 679,-215.95 673,-209.95 673,-203.95 673,-203.95 673,-167.3 673,-167.3 673,-161.3 679,-155.3 685,-155.3 685,-155.3 764.4,-155.3 764.4,-155.3 770.4,-155.3 776.4,-161.3 776.4,-167.3 776.4,-167.3 776.4,-203.95 776.4,-203.95 776.4,-209.95 770.4,-215.95 764.4,-215.95"/>
<path fill="none" stroke="black" d="M768.4,-219.95C768.4,-219.95 681,-219.95 681,-219.95 675,-219.95 669,-213.95 669,-207.95 669,-207.95 669,-163.3 669,-163.3 669,-157.3 675,-151.3 681,-151.3 681,-151.3 768.4,-151.3 768.4,-151.3 774.4,-151.3 780.4,-157.3 780.4,-163.3 780.4,-163.3 780.4,-207.95 780.4,-207.95 780.4,-213.95 774.4,-219.95 768.4,-219.95"/>
<text xml:space="preserve" text-anchor="middle" x="724.7" y="-195.25" font-family="Arial Bold" font-size="10.00">Millicent Dunn 🔗</text>
<text xml:space="preserve" text-anchor="middle" x="724.7" y="-181" font-family="Arial Bold" font-size="10.00">b. ~1746, VA</text>
<text xml:space="preserve" text-anchor="middle" x="724.7" y="-169" font-family="Arial Bold" font-size="10.00">d. ~1820, GA</text>
</a>
</g>
</g>
<!-- G2_PATERNAL_GF&#45;&gt;G2_PATERNAL_GM -->
<g id="edge3" class="edge">
<title>G2_PATERNAL_GF&#45;&gt;G2_PATERNAL_GM</title>
<path fill="none" stroke="black" stroke-width="1.5" stroke-dasharray="5,2" d="M622.85,-185.62C637.75,-185.62 653.84,-185.62 668.73,-185.62"/>
<text xml:space="preserve" text-anchor="middle" x="645.83" y="-190.38" font-family="Times,serif" font-size="10.00">m. 1764</text>
</g>
<!-- G2_PATERNAL_GM&#45;&gt;G1_FATHER -->
<g id="edge18" class="edge">
<title>G2_PATERNAL_GM&#45;&gt;G1_FATHER</title>
<path fill="none" stroke="black" stroke-width="1.5" d="M718.1,-150.94C717.41,-147.44 716.71,-143.87 716.02,-140.33"/>
<polygon fill="black" stroke="black" stroke-width="1.5" points="719.51,-139.96 714.16,-130.82 712.65,-141.31 719.51,-139.96"/>
</g>
<!-- G2_MATERNAL_GF -->
<g id="node7" class="node">
<title>G2_MATERNAL_GF</title>
<g id="a_node7"><a xlink:href="https://www.wikitree.com/wiki/Williams-23320" xlink:title="Jacob Williams 🔗\nb. 1746, VA\nd. 1819, TN" target="_blank">
<path fill="lightsteelblue" stroke="black" d="M881.65,-211.95C881.65,-211.95 811.75,-211.95 811.75,-211.95 805.75,-211.95 799.75,-205.95 799.75,-199.95 799.75,-199.95 799.75,-171.3 799.75,-171.3 799.75,-165.3 805.75,-159.3 811.75,-159.3 811.75,-159.3 881.65,-159.3 881.65,-159.3 887.65,-159.3 893.65,-165.3 893.65,-171.3 893.65,-171.3 893.65,-199.95 893.65,-199.95 893.65,-205.95 887.65,-211.95 881.65,-211.95"/>
<text xml:space="preserve" text-anchor="middle" x="846.7" y="-195.25" font-family="Arial" font-size="10.00">Jacob Williams 🔗</text>
<text xml:space="preserve" text-anchor="middle" x="846.7" y="-181" font-family="Arial" font-size="10.00">b. 1746, VA</text>
<text xml:space="preserve" text-anchor="middle" x="846.7" y="-169" font-family="Arial" font-size="10.00">d. 1819, TN</text>
</a>
</g>
</g>
<!-- G2_MATERNAL_GF&#45;&gt;G1_MOTHER -->
<g id="edge19" class="edge">
<title>G2_MATERNAL_GF&#45;&gt;G1_MOTHER</title>
<path fill="none" stroke="black" stroke-width="1.5" d="M852.61,-159.24C853.99,-153.3 855.49,-146.86 856.96,-140.52"/>
<polygon fill="black" stroke="black" stroke-width="1.5" points="860.36,-141.37 859.22,-130.84 853.54,-139.79 860.36,-141.37"/>
</g>
<!-- G2_MATERNAL_GM -->
<g id="node8" class="node">
<title>G2_MATERNAL_GM</title>
<g id="a_node8"><a xlink:href="https://www.wikitree.com/wiki/Cochran-1513" xlink:title="Margaret Peggy Cochran 🔗\nb. 1745, Scotland\nd. 1801, TN" target="_blank">
<path fill="lightsteelblue" stroke="black" d="M1044.65,-211.95C1044.65,-211.95 932.75,-211.95 932.75,-211.95 926.75,-211.95 920.75,-205.95 920.75,-199.95 920.75,-199.95 920.75,-171.3 920.75,-171.3 920.75,-165.3 926.75,-159.3 932.75,-159.3 932.75,-159.3 1044.65,-159.3 1044.65,-159.3 1050.65,-159.3 1056.65,-165.3 1056.65,-171.3 1056.65,-171.3 1056.65,-199.95 1056.65,-199.95 1056.65,-205.95 1050.65,-211.95 1044.65,-211.95"/>
<text xml:space="preserve" text-anchor="middle" x="988.7" y="-195.25" font-family="Arial" font-size="10.00">Margaret Peggy Cochran 🔗</text>
<text xml:space="preserve" text-anchor="middle" x="988.7" y="-181" font-family="Arial" font-size="10.00">b. 1745, Scotland</text>
<text xml:space="preserve" text-anchor="middle" x="988.7" y="-169" font-family="Arial" font-size="10.00">d. 1801, TN</text>
</a>
</g>
</g>
<!-- G2_MATERNAL_GF&#45;&gt;G2_MATERNAL_GM -->
<g id="edge4" class="edge">
<title>G2_MATERNAL_GF&#45;&gt;G2_MATERNAL_GM</title>
<path fill="none" stroke="black" stroke-width="1.5" stroke-dasharray="5,2" d="M894.13,-185.62C902.87,-185.62 911.61,-185.62 920.36,-185.62"/>
</g>
<!-- G2_MATERNAL_GM&#45;&gt;G1_MOTHER -->
<g id="edge20" class="edge">
<title>G2_MATERNAL_GM&#45;&gt;G1_MOTHER</title>
<path fill="none" stroke="black" stroke-width="1.5" d="M950.12,-159.01C938.89,-151.56 926.48,-143.32 914.7,-135.51"/>
<polygon fill="black" stroke="black" stroke-width="1.5" points="916.73,-132.65 906.46,-130.03 912.85,-138.48 916.73,-132.65"/>
</g>
<!-- G3_SATTERWHITE_GGF -->
<g id="node9" class="node">
<title>G3_SATTERWHITE_GGF</title>
<g id="a_node9"><a xlink:href="https://www.wikitree.com/wiki/Satterwhite-57" xlink:title="Thomas P. Satterwhite 🔗\nb. 1711, VA\nd. ~1767, VA" target="_blank">
<path fill="lightgreen" stroke="black" d="M552.78,-295.6C552.78,-295.6 450.63,-295.6 450.63,-295.6 444.63,-295.6 438.63,-289.6 438.63,-283.6 438.63,-283.6 438.63,-254.95 438.63,-254.95 438.63,-248.95 444.63,-242.95 450.63,-242.95 450.63,-242.95 552.78,-242.95 552.78,-242.95 558.78,-242.95 564.78,-248.95 564.78,-254.95 564.78,-254.95 564.78,-283.6 564.78,-283.6 564.78,-289.6 558.78,-295.6 552.78,-295.6"/>
<text xml:space="preserve" text-anchor="middle" x="501.7" y="-278.9" font-family="Arial" font-size="10.00">Thomas P. Satterwhite 🔗</text>
<text xml:space="preserve" text-anchor="middle" x="501.7" y="-264.65" font-family="Arial" font-size="10.00">b. 1711, VA</text>
<text xml:space="preserve" text-anchor="middle" x="501.7" y="-252.65" font-family="Arial" font-size="10.00">d. ~1767, VA</text>
</a>
</g>
</g>
<!-- G3_SATTERWHITE_GGF&#45;&gt;G2_PATERNAL_GF -->
<g id="edge21" class="edge">
<title>G3_SATTERWHITE_GGF&#45;&gt;G2_PATERNAL_GF</title>
<path fill="none" stroke="black" stroke-width="1.5" d="M521.91,-242.89C527.24,-236.19 533.09,-228.85 538.74,-221.74"/>
<polygon fill="black" stroke="black" stroke-width="1.5" points="541.37,-224.06 544.86,-214.05 535.9,-219.7 541.37,-224.06"/>
</g>
<!-- G3_BLAKE_GGM -->
<g id="node10" class="node">
<title>G3_BLAKE_GGM</title>
<g id="a_node10"><a xlink:href="https://www.wikitree.com/wiki/Blake-4335" xlink:title="Sarah Blake 🔗\nb. ~1711, VA\nd. ~1746, VA" target="_blank">
<path fill="lightgreen" stroke="black" d="M660.9,-295.6C660.9,-295.6 604.5,-295.6 604.5,-295.6 598.5,-295.6 592.5,-289.6 592.5,-283.6 592.5,-283.6 592.5,-254.95 592.5,-254.95 592.5,-248.95 598.5,-242.95 604.5,-242.95 604.5,-242.95 660.9,-242.95 660.9,-242.95 666.9,-242.95 672.9,-248.95 672.9,-254.95 672.9,-254.95 672.9,-283.6 672.9,-283.6 672.9,-289.6 666.9,-295.6 660.9,-295.6"/>
<text xml:space="preserve" text-anchor="middle" x="632.7" y="-278.9" font-family="Arial" font-size="10.00">Sarah Blake 🔗</text>
<text xml:space="preserve" text-anchor="middle" x="632.7" y="-264.65" font-family="Arial" font-size="10.00">b. ~1711, VA</text>
<text xml:space="preserve" text-anchor="middle" x="632.7" y="-252.65" font-family="Arial" font-size="10.00">d. ~1746, VA</text>
</a>
</g>
</g>
<!-- G3_SATTERWHITE_GGF&#45;&gt;G3_BLAKE_GGM -->
<g id="edge5" class="edge">
<title>G3_SATTERWHITE_GGF&#45;&gt;G3_BLAKE_GGM</title>
<path fill="none" stroke="black" stroke-width="1.5" stroke-dasharray="5,2" d="M565.15,-269.27C574.12,-269.27 583.1,-269.27 592.07,-269.27"/>
</g>
<!-- G3_BLAKE_GGM&#45;&gt;G2_PATERNAL_GF -->
<g id="edge22" class="edge">
<title>G3_BLAKE_GGM&#45;&gt;G2_PATERNAL_GF</title>
<path fill="none" stroke="black" stroke-width="1.5" d="M612.18,-242.89C606.77,-236.19 600.83,-228.85 595.09,-221.74"/>
<polygon fill="black" stroke="black" stroke-width="1.5" points="597.87,-219.62 588.86,-214.04 592.43,-224.02 597.87,-219.62"/>
</g>
<!-- G4_SATTERWHITE_GGGF -->
<g id="node11" class="node">
<title>G4_SATTERWHITE_GGGF</title>
<g id="a_node11"><a xlink:href="https://www.wikitree.com/wiki/Satterwhite-58" xlink:title="Michael Satterwhite 🔗\nb. 1686, VA\nd. ~1736, VA" target="_blank">
<path fill="wheat" stroke="black" d="M416.4,-371.25C416.4,-371.25 327,-371.25 327,-371.25 321,-371.25 315,-365.25 315,-359.25 315,-359.25 315,-330.6 315,-330.6 315,-324.6 321,-318.6 327,-318.6 327,-318.6 416.4,-318.6 416.4,-318.6 422.4,-318.6 428.4,-324.6 428.4,-330.6 428.4,-330.6 428.4,-359.25 428.4,-359.25 428.4,-365.25 422.4,-371.25 416.4,-371.25"/>
<text xml:space="preserve" text-anchor="middle" x="371.7" y="-354.55" font-family="Arial" font-size="10.00">Michael Satterwhite 🔗</text>
<text xml:space="preserve" text-anchor="middle" x="371.7" y="-340.3" font-family="Arial" font-size="10.00">b. 1686, VA</text>
<text xml:space="preserve" text-anchor="middle" x="371.7" y="-328.3" font-family="Arial" font-size="10.00">d. ~1736, VA</text>
</a>
</g>
</g>
<!-- G4_SATTERWHITE_GGGF&#45;&gt;G3_SATTERWHITE_GGF -->
<g id="edge23" class="edge">
<title>G4_SATTERWHITE_GGGF&#45;&gt;G3_SATTERWHITE_GGF</title>
<path fill="none" stroke="black" stroke-width="1.5" d="M417.17,-318.17C426.42,-312.92 436.26,-307.35 445.83,-301.93"/>
<polygon fill="black" stroke="black" stroke-width="1.5" points="447.53,-304.99 454.5,-297.01 444.08,-298.9 447.53,-304.99"/>
</g>
<!-- G4_BLEDWELL_GGGM -->
<g id="node12" class="node">
<title>G4_BLEDWELL_GGGM</title>
<g id="a_node12"><a xlink:href="https://www.wikitree.com/wiki/Bedwell-381" xlink:title="Julia Bedwell 🔗\nb. ~1692, England\nd. ~1736, VA" target="_blank">
<path fill="wheat" stroke="black" d="M537.65,-371.25C537.65,-371.25 467.75,-371.25 467.75,-371.25 461.75,-371.25 455.75,-365.25 455.75,-359.25 455.75,-359.25 455.75,-330.6 455.75,-330.6 455.75,-324.6 461.75,-318.6 467.75,-318.6 467.75,-318.6 537.65,-318.6 537.65,-318.6 543.65,-318.6 549.65,-324.6 549.65,-330.6 549.65,-330.6 549.65,-359.25 549.65,-359.25 549.65,-365.25 543.65,-371.25 537.65,-371.25"/>
<text xml:space="preserve" text-anchor="middle" x="502.7" y="-354.55" font-family="Arial" font-size="10.00">Julia Bedwell 🔗</text>
<text xml:space="preserve" text-anchor="middle" x="502.7" y="-340.3" font-family="Arial" font-size="10.00">b. ~1692, England</text>
<text xml:space="preserve" text-anchor="middle" x="502.7" y="-328.3" font-family="Arial" font-size="10.00">d. ~1736, VA</text>
</a>
</g>
</g>
<!-- G4_SATTERWHITE_GGGF&#45;&gt;G4_BLEDWELL_GGGM -->
<g id="edge6" class="edge">
<title>G4_SATTERWHITE_GGGF&#45;&gt;G4_BLEDWELL_GGGM</title>
<path fill="none" stroke="black" stroke-width="1.5" stroke-dasharray="5,2" d="M428.76,-344.92C437.61,-344.92 446.47,-344.92 455.33,-344.92"/>
</g>
<!-- G4_BLEDWELL_GGGM&#45;&gt;G3_SATTERWHITE_GGF -->
<g id="edge24" class="edge">
<title>G4_BLEDWELL_GGGM&#45;&gt;G3_SATTERWHITE_GGF</title>
<path fill="none" stroke="black" stroke-width="1.5" d="M502.35,-318.17C502.3,-314.74 502.26,-311.18 502.21,-307.61"/>
<polygon fill="black" stroke="black" stroke-width="1.5" points="505.71,-307.87 502.08,-297.92 498.71,-307.96 505.71,-307.87"/>
</g>
<!-- G4_BLAKE_GGGF -->
<g id="node13" class="node">
<title>G4_BLAKE_GGGF</title>
<g id="a_node13"><a xlink:href="https://www.wikitree.com/wiki/Blake-2594" xlink:title="William Blake 🔗\nb. ~1677, VA\nd. ~1746, VA" target="_blank">
<path fill="wheat" stroke="black" d="M663.28,-371.25C663.28,-371.25 600.12,-371.25 600.12,-371.25 594.12,-371.25 588.12,-365.25 588.12,-359.25 588.12,-359.25 588.12,-330.6 588.12,-330.6 588.12,-324.6 594.12,-318.6 600.12,-318.6 600.12,-318.6 663.28,-318.6 663.28,-318.6 669.28,-318.6 675.28,-324.6 675.28,-330.6 675.28,-330.6 675.28,-359.25 675.28,-359.25 675.28,-365.25 669.28,-371.25 663.28,-371.25"/>
<text xml:space="preserve" text-anchor="middle" x="631.7" y="-354.55" font-family="Arial" font-size="10.00">William Blake 🔗</text>
<text xml:space="preserve" text-anchor="middle" x="631.7" y="-340.3" font-family="Arial" font-size="10.00">b. ~1677, VA</text>
<text xml:space="preserve" text-anchor="middle" x="631.7" y="-328.3" font-family="Arial" font-size="10.00">d. ~1746, VA</text>
</a>
</g>
</g>
<!-- G4_BLAKE_GGGF&#45;&gt;G3_BLAKE_GGM -->
<g id="edge25" class="edge">
<title>G4_BLAKE_GGGF&#45;&gt;G3_BLAKE_GGM</title>
<path fill="none" stroke="black" stroke-width="1.5" d="M632.05,-318.17C632.1,-314.74 632.14,-311.18 632.19,-307.61"/>
<polygon fill="black" stroke="black" stroke-width="1.5" points="635.69,-307.96 632.32,-297.92 628.69,-307.87 635.69,-307.96"/>
</g>
<!-- G4_SESSUMS_GGGM -->
<g id="node14" class="node">
<title>G4_SESSUMS_GGGM</title>
<g id="a_node14"><a xlink:href="https://www.wikitree.com/wiki/Sessums-22" xlink:title="Mary Sessums 🔗\nb. ~1687, VA\nd. ~1746, VA" target="_blank">
<path fill="wheat" stroke="black" d="M821.28,-371.25C821.28,-371.25 752.12,-371.25 752.12,-371.25 746.12,-371.25 740.12,-365.25 740.12,-359.25 740.12,-359.25 740.12,-330.6 740.12,-330.6 740.12,-324.6 746.12,-318.6 752.12,-318.6 752.12,-318.6 821.28,-318.6 821.28,-318.6 827.28,-318.6 833.28,-324.6 833.28,-330.6 833.28,-330.6 833.28,-359.25 833.28,-359.25 833.28,-365.25 827.28,-371.25 821.28,-371.25"/>
<text xml:space="preserve" text-anchor="middle" x="786.7" y="-354.55" font-family="Arial" font-size="10.00">Mary Sessums 🔗</text>
<text xml:space="preserve" text-anchor="middle" x="786.7" y="-340.3" font-family="Arial" font-size="10.00">b. ~1687, VA</text>
<text xml:space="preserve" text-anchor="middle" x="786.7" y="-328.3" font-family="Arial" font-size="10.00">d. ~1746, VA</text>
</a>
</g>
</g>
<!-- G4_BLAKE_GGGF&#45;&gt;G4_SESSUMS_GGGM -->
<g id="edge7" class="edge">
<title>G4_BLAKE_GGGF&#45;&gt;G4_SESSUMS_GGGM</title>
<path fill="none" stroke="black" stroke-width="1.5" stroke-dasharray="5,2" d="M675.7,-344.92C695.75,-344.92 719.5,-344.92 739.88,-344.92"/>
<text xml:space="preserve" text-anchor="middle" x="707.7" y="-349.67" font-family="Times,serif" font-size="10.00">m. 1704, VA</text>
</g>
<!-- G4_SESSUMS_GGGM&#45;&gt;G3_BLAKE_GGM -->
<g id="edge26" class="edge">
<title>G4_SESSUMS_GGGM&#45;&gt;G3_BLAKE_GGM</title>
<path fill="none" stroke="black" stroke-width="1.5" d="M739.66,-321.43C722.08,-313.02 702.03,-303.43 684.08,-294.85"/>
<polygon fill="black" stroke="black" stroke-width="1.5" points="685.79,-291.79 675.26,-290.63 682.77,-298.1 685.79,-291.79"/>
</g>
<!-- G5_SATTERWHITE_GGGGF -->
<g id="node15" class="node">
<title>G5_SATTERWHITE_GGGGF</title>
<g id="a_node15"><a xlink:href="https://www.wikitree.com/wiki/Satterwhite-178" xlink:title="Thomas Satterwhite 🔗\nb. ~1660, VA\nd. ~1725, VA" target="_blank">
<path fill="plum" stroke="black" d="M278.15,-446.9C278.15,-446.9 187.25,-446.9 187.25,-446.9 181.25,-446.9 175.25,-440.9 175.25,-434.9 175.25,-434.9 175.25,-406.25 175.25,-406.25 175.25,-400.25 181.25,-394.25 187.25,-394.25 187.25,-394.25 278.15,-394.25 278.15,-394.25 284.15,-394.25 290.15,-400.25 290.15,-406.25 290.15,-406.25 290.15,-434.9 290.15,-434.9 290.15,-440.9 284.15,-446.9 278.15,-446.9"/>
<text xml:space="preserve" text-anchor="middle" x="232.7" y="-430.2" font-family="Arial" font-size="10.00">Thomas Satterwhite 🔗</text>
<text xml:space="preserve" text-anchor="middle" x="232.7" y="-415.95" font-family="Arial" font-size="10.00">b. ~1660, VA</text>
<text xml:space="preserve" text-anchor="middle" x="232.7" y="-403.95" font-family="Arial" font-size="10.00">d. ~1725, VA</text>
</a>
</g>
</g>
<!-- G5_SATTERWHITE_GGGGF&#45;&gt;G4_SATTERWHITE_GGGF -->
<g id="edge27" class="edge">
<title>G5_SATTERWHITE_GGGGF&#45;&gt;G4_SATTERWHITE_GGGF</title>
<path fill="none" stroke="black" stroke-width="1.5" d="M281.32,-393.82C291.43,-388.46 302.19,-382.76 312.62,-377.23"/>
<polygon fill="black" stroke="black" stroke-width="1.5" points="314.14,-380.38 321.34,-372.61 310.87,-374.2 314.14,-380.38"/>
</g>
<!-- G5_WILLIAMS_GGGGM -->
<g id="node16" class="node">
<title>G5_WILLIAMS_GGGGM</title>
<g id="a_node16"><a xlink:href="https://www.wikitree.com/wiki/Williams-48337" xlink:title="Mary Ann Williams 🔗\nb. ~1665, England\nd. ~1710, VA" target="_blank">
<path fill="plum" stroke="black" d="M414.15,-446.9C414.15,-446.9 329.25,-446.9 329.25,-446.9 323.25,-446.9 317.25,-440.9 317.25,-434.9 317.25,-434.9 317.25,-406.25 317.25,-406.25 317.25,-400.25 323.25,-394.25 329.25,-394.25 329.25,-394.25 414.15,-394.25 414.15,-394.25 420.15,-394.25 426.15,-400.25 426.15,-406.25 426.15,-406.25 426.15,-434.9 426.15,-434.9 426.15,-440.9 420.15,-446.9 414.15,-446.9"/>
<text xml:space="preserve" text-anchor="middle" x="371.7" y="-430.2" font-family="Arial" font-size="10.00">Mary Ann Williams 🔗</text>
<text xml:space="preserve" text-anchor="middle" x="371.7" y="-415.95" font-family="Arial" font-size="10.00">b. ~1665, England</text>
<text xml:space="preserve" text-anchor="middle" x="371.7" y="-403.95" font-family="Arial" font-size="10.00">d. ~1710, VA</text>
</a>
</g>
</g>
<!-- G5_SATTERWHITE_GGGGF&#45;&gt;G5_WILLIAMS_GGGGM -->
<g id="edge8" class="edge">
<title>G5_SATTERWHITE_GGGGF&#45;&gt;G5_WILLIAMS_GGGGM</title>
<path fill="none" stroke="black" stroke-width="1.5" stroke-dasharray="5,2" d="M290.53,-420.57C299.3,-420.57 308.07,-420.57 316.84,-420.57"/>
</g>
<!-- G5_WILLIAMS_GGGGM&#45;&gt;G4_SATTERWHITE_GGGF -->
<g id="edge28" class="edge">
<title>G5_WILLIAMS_GGGGM&#45;&gt;G4_SATTERWHITE_GGGF</title>
<path fill="none" stroke="black" stroke-width="1.5" d="M371.7,-393.82C371.7,-390.39 371.7,-386.83 371.7,-383.26"/>
<polygon fill="black" stroke="black" stroke-width="1.5" points="375.2,-383.57 371.7,-373.57 368.2,-383.57 375.2,-383.57"/>
</g>
<!-- G5_SESSUMS_GGGGF -->
<g id="node17" class="node">
<title>G5_SESSUMS_GGGGF</title>
<g id="a_node17"><a xlink:href="https://www.wikitree.com/wiki/Sessums-3" xlink:title="Nicholas Sessums 🔗\nb. ~1646, England\nd. ~1716, VA" target="_blank">
<path fill="plum" stroke="black" d="M829.53,-446.9C829.53,-446.9 743.88,-446.9 743.88,-446.9 737.88,-446.9 731.88,-440.9 731.88,-434.9 731.88,-434.9 731.88,-406.25 731.88,-406.25 731.88,-400.25 737.88,-394.25 743.88,-394.25 743.88,-394.25 829.53,-394.25 829.53,-394.25 835.53,-394.25 841.53,-400.25 841.53,-406.25 841.53,-406.25 841.53,-434.9 841.53,-434.9 841.53,-440.9 835.53,-446.9 829.53,-446.9"/>
<text xml:space="preserve" text-anchor="middle" x="786.7" y="-430.2" font-family="Arial" font-size="10.00">Nicholas Sessums 🔗</text>
<text xml:space="preserve" text-anchor="middle" x="786.7" y="-415.95" font-family="Arial" font-size="10.00">b. ~1646, England</text>
<text xml:space="preserve" text-anchor="middle" x="786.7" y="-403.95" font-family="Arial" font-size="10.00">d. ~1716, VA</text>
</a>
</g>
</g>
<!-- G5_SESSUMS_GGGGF&#45;&gt;G4_SESSUMS_GGGM -->
<g id="edge31" class="edge">
<title>G5_SESSUMS_GGGGF&#45;&gt;G4_SESSUMS_GGGM</title>
<path fill="none" stroke="black" stroke-width="1.5" d="M786.7,-393.82C786.7,-390.39 786.7,-386.83 786.7,-383.26"/>
<polygon fill="black" stroke="black" stroke-width="1.5" points="790.2,-383.57 786.7,-373.57 783.2,-383.57 790.2,-383.57"/>
</g>
<!-- G5_CULMER_GGGGM -->
<g id="node18" class="node">
<title>G5_CULMER_GGGGM</title>
<g id="a_node18"><a xlink:href="https://www.wikitree.com/wiki/Culmer-79" xlink:title="Hannah Culmer 🔗\nb. ~1652, England or VA\nd. ~1697, VA" target="_blank">
<path fill="plum" stroke="black" d="M978.15,-446.9C978.15,-446.9 881.25,-446.9 881.25,-446.9 875.25,-446.9 869.25,-440.9 869.25,-434.9 869.25,-434.9 869.25,-406.25 869.25,-406.25 869.25,-400.25 875.25,-394.25 881.25,-394.25 881.25,-394.25 978.15,-394.25 978.15,-394.25 984.15,-394.25 990.15,-400.25 990.15,-406.25 990.15,-406.25 990.15,-434.9 990.15,-434.9 990.15,-440.9 984.15,-446.9 978.15,-446.9"/>
<text xml:space="preserve" text-anchor="middle" x="929.7" y="-430.2" font-family="Arial" font-size="10.00">Hannah Culmer 🔗</text>
<text xml:space="preserve" text-anchor="middle" x="929.7" y="-415.95" font-family="Arial" font-size="10.00">b. ~1652, England or VA</text>
<text xml:space="preserve" text-anchor="middle" x="929.7" y="-403.95" font-family="Arial" font-size="10.00">d. ~1697, VA</text>
</a>
</g>
</g>
<!-- G5_SESSUMS_GGGGF&#45;&gt;G5_CULMER_GGGGM -->
<g id="edge9" class="edge">
<title>G5_SESSUMS_GGGGF&#45;&gt;G5_CULMER_GGGGM</title>
<path fill="none" stroke="black" stroke-width="1.5" stroke-dasharray="5,2" d="M842,-420.57C851.02,-420.57 860.04,-420.57 869.06,-420.57"/>
</g>
<!-- G5_CULMER_GGGGM&#45;&gt;G4_SESSUMS_GGGM -->
<g id="edge32" class="edge">
<title>G5_CULMER_GGGGM&#45;&gt;G4_SESSUMS_GGGM</title>
<path fill="none" stroke="black" stroke-width="1.5" d="M879.69,-393.82C868.22,-387.91 855.93,-381.58 844.18,-375.53"/>
<polygon fill="black" stroke="black" stroke-width="1.5" points="846.08,-372.57 835.59,-371.1 842.87,-378.79 846.08,-372.57"/>
</g>
<!-- G5_BLAKE_GGGGF -->
<g id="node19" class="node">
<title>G5_BLAKE_GGGGF</title>
<g id="a_node19"><a xlink:href="https://www.wikitree.com/wiki/Blake-3556" xlink:title="Thomas Blake 🔗\nb. 1640, England\nd. 1708, VA" target="_blank">
<path fill="plum" stroke="black" d="M519.78,-446.9C519.78,-446.9 453.63,-446.9 453.63,-446.9 447.63,-446.9 441.63,-440.9 441.63,-434.9 441.63,-434.9 441.63,-406.25 441.63,-406.25 441.63,-400.25 447.63,-394.25 453.63,-394.25 453.63,-394.25 519.78,-394.25 519.78,-394.25 525.78,-394.25 531.78,-400.25 531.78,-406.25 531.78,-406.25 531.78,-434.9 531.78,-434.9 531.78,-440.9 525.78,-446.9 519.78,-446.9"/>
<text xml:space="preserve" text-anchor="middle" x="486.7" y="-430.2" font-family="Arial" font-size="10.00">Thomas Blake 🔗</text>
<text xml:space="preserve" text-anchor="middle" x="486.7" y="-415.95" font-family="Arial" font-size="10.00">b. 1640, England</text>
<text xml:space="preserve" text-anchor="middle" x="486.7" y="-403.95" font-family="Arial" font-size="10.00">d. 1708, VA</text>
</a>
</g>
</g>
<!-- G5_BLAKE_GGGGF&#45;&gt;G4_BLAKE_GGGF -->
<g id="edge29" class="edge">
<title>G5_BLAKE_GGGGF&#45;&gt;G4_BLAKE_GGGF</title>
<path fill="none" stroke="black" stroke-width="1.5" d="M532.18,-396.47C546.48,-389.21 562.42,-381.11 577.28,-373.57"/>
<polygon fill="black" stroke="black" stroke-width="1.5" points="578.51,-376.87 585.84,-369.22 575.34,-370.62 578.51,-376.87"/>
</g>
<!-- G5_CHAMPION_GGGGM -->
<g id="node20" class="node">
<title>G5_CHAMPION_GGGGM</title>
<g id="a_node20"><a xlink:href="https://www.wikitree.com/wiki/Champion-986" xlink:title="Alice Elizabeth Champion 🔗\nb. ~1646, VA\nd. ~1710, VA" target="_blank">
<path fill="plum" stroke="black" d="M705.53,-446.9C705.53,-446.9 589.88,-446.9 589.88,-446.9 583.88,-446.9 577.88,-440.9 577.88,-434.9 577.88,-434.9 577.88,-406.25 577.88,-406.25 577.88,-400.25 583.88,-394.25 589.88,-394.25 589.88,-394.25 705.53,-394.25 705.53,-394.25 711.53,-394.25 717.53,-400.25 717.53,-406.25 717.53,-406.25 717.53,-434.9 717.53,-434.9 717.53,-440.9 711.53,-446.9 705.53,-446.9"/>
<text xml:space="preserve" text-anchor="middle" x="647.7" y="-430.2" font-family="Arial" font-size="10.00">Alice Elizabeth Champion 🔗</text>
<text xml:space="preserve" text-anchor="middle" x="647.7" y="-415.95" font-family="Arial" font-size="10.00">b. ~1646, VA</text>
<text xml:space="preserve" text-anchor="middle" x="647.7" y="-403.95" font-family="Arial" font-size="10.00">d. ~1710, VA</text>
</a>
</g>
</g>
<!-- G5_BLAKE_GGGGF&#45;&gt;G5_CHAMPION_GGGGM -->
<g id="edge10" class="edge">
<title>G5_BLAKE_GGGGF&#45;&gt;G5_CHAMPION_GGGGM</title>
<path fill="none" stroke="black" stroke-width="1.5" stroke-dasharray="5,2" d="M531.98,-420.57C546.11,-420.57 562.06,-420.57 577.49,-420.57"/>
<text xml:space="preserve" text-anchor="middle" x="554.83" y="-425.32" font-family="Times,serif" font-size="10.00">m. 1669</text>
</g>
<!-- G5_CHAMPION_GGGGM&#45;&gt;G4_BLAKE_GGGF -->
<g id="edge30" class="edge">
<title>G5_CHAMPION_GGGGM&#45;&gt;G4_BLAKE_GGGF</title>
<path fill="none" stroke="black" stroke-width="1.5" d="M642.1,-393.82C641.36,-390.39 640.59,-386.83 639.81,-383.26"/>
<polygon fill="black" stroke="black" stroke-width="1.5" points="643.24,-382.54 637.69,-373.52 636.4,-384.03 643.24,-382.54"/>
</g>
<!-- G6_SATTERWHITE_GGGGGF -->
<g id="node21" class="node">
<title>G6_SATTERWHITE_GGGGGF</title>
<g id="a_node21"><a xlink:href="https://www.wikitree.com/wiki/Satterwhite-179" xlink:title="Michael Satterwhite 🔗\nb. ~1639, VA\nd. ~1700, VA" target="_blank">
<path fill="lightyellow" stroke="black" d="M172.4,-522.55C172.4,-522.55 83,-522.55 83,-522.55 77,-522.55 71,-516.55 71,-510.55 71,-510.55 71,-481.9 71,-481.9 71,-475.9 77,-469.9 83,-469.9 83,-469.9 172.4,-469.9 172.4,-469.9 178.4,-469.9 184.4,-475.9 184.4,-481.9 184.4,-481.9 184.4,-510.55 184.4,-510.55 184.4,-516.55 178.4,-522.55 172.4,-522.55"/>
<text xml:space="preserve" text-anchor="middle" x="127.7" y="-505.85" font-family="Arial" font-size="10.00">Michael Satterwhite 🔗</text>
<text xml:space="preserve" text-anchor="middle" x="127.7" y="-491.6" font-family="Arial" font-size="10.00">b. ~1639, VA</text>
<text xml:space="preserve" text-anchor="middle" x="127.7" y="-479.6" font-family="Arial" font-size="10.00">d. ~1700, VA</text>
</a>
</g>
</g>
<!-- G6_SATTERWHITE_GGGGGF&#45;&gt;G5_SATTERWHITE_GGGGF -->
<g id="edge33" class="edge">
<title>G6_SATTERWHITE_GGGGGF&#45;&gt;G5_SATTERWHITE_GGGGF</title>
<path fill="none" stroke="black" stroke-width="1.5" d="M164.42,-469.47C171.5,-464.5 178.99,-459.25 186.33,-454.1"/>
<polygon fill="black" stroke="black" stroke-width="1.5" points="188.14,-457.11 194.32,-448.5 184.12,-451.38 188.14,-457.11"/>
</g>
<!-- G6_CROSHAW_GGGGGM -->
<g id="node22" class="node">
<title>G6_CROSHAW_GGGGGM</title>
<g id="a_node22"><a xlink:href="https://www.wikitree.com/wiki/Croshaw-81" xlink:title="Catherine Croshow 🔗\nb. ~1640, VA\nd. ~1691, VA" target="_blank">
<path fill="lightyellow" stroke="black" d="M311.28,-522.55C311.28,-522.55 224.13,-522.55 224.13,-522.55 218.13,-522.55 212.13,-516.55 212.13,-510.55 212.13,-510.55 212.13,-481.9 212.13,-481.9 212.13,-475.9 218.13,-469.9 224.13,-469.9 224.13,-469.9 311.28,-469.9 311.28,-469.9 317.28,-469.9 323.28,-475.9 323.28,-481.9 323.28,-481.9 323.28,-510.55 323.28,-510.55 323.28,-516.55 317.28,-522.55 311.28,-522.55"/>
<text xml:space="preserve" text-anchor="middle" x="267.7" y="-505.85" font-family="Arial" font-size="10.00">Catherine Croshow 🔗</text>
<text xml:space="preserve" text-anchor="middle" x="267.7" y="-491.6" font-family="Arial" font-size="10.00">b. ~1640, VA</text>
<text xml:space="preserve" text-anchor="middle" x="267.7" y="-479.6" font-family="Arial" font-size="10.00">d. ~1691, VA</text>
</a>
</g>
</g>
<!-- G6_SATTERWHITE_GGGGGF&#45;&gt;G6_CROSHAW_GGGGGM -->
<g id="edge11" class="edge">
<title>G6_SATTERWHITE_GGGGGF&#45;&gt;G6_CROSHAW_GGGGGM</title>
<path fill="none" stroke="black" stroke-width="1.5" stroke-dasharray="5,2" d="M184.85,-496.22C193.8,-496.22 202.76,-496.22 211.71,-496.22"/>
</g>
<!-- G6_CROSHAW_GGGGGM&#45;&gt;G5_SATTERWHITE_GGGGF -->
<g id="edge34" class="edge">
<title>G6_CROSHAW_GGGGGM&#45;&gt;G5_SATTERWHITE_GGGGF</title>
<path fill="none" stroke="black" stroke-width="1.5" d="M255.46,-469.47C253.67,-465.7 251.8,-461.77 249.93,-457.84"/>
<polygon fill="black" stroke="black" stroke-width="1.5" points="253.19,-456.53 245.73,-449 246.86,-459.53 253.19,-456.53"/>
</g>
<!-- G6_CULMER_GGGGGF -->
<g id="node23" class="node">
<title>G6_CULMER_GGGGGF</title>
<g id="a_node23"><a xlink:href="https://www.wikitree.com/wiki/Culmer-109" xlink:title="Thomas Culmer 🔗\nb. ~1621, England\nd. ~1622, VA" target="_blank">
<path fill="lightyellow" stroke="black" d="M906.15,-522.55C906.15,-522.55 833.25,-522.55 833.25,-522.55 827.25,-522.55 821.25,-516.55 821.25,-510.55 821.25,-510.55 821.25,-481.9 821.25,-481.9 821.25,-475.9 827.25,-469.9 833.25,-469.9 833.25,-469.9 906.15,-469.9 906.15,-469.9 912.15,-469.9 918.15,-475.9 918.15,-481.9 918.15,-481.9 918.15,-510.55 918.15,-510.55 918.15,-516.55 912.15,-522.55 906.15,-522.55"/>
<text xml:space="preserve" text-anchor="middle" x="869.7" y="-505.85" font-family="Arial" font-size="10.00">Thomas Culmer 🔗</text>
<text xml:space="preserve" text-anchor="middle" x="869.7" y="-491.6" font-family="Arial" font-size="10.00">b. ~1621, England</text>
<text xml:space="preserve" text-anchor="middle" x="869.7" y="-479.6" font-family="Arial" font-size="10.00">d. ~1622, VA</text>
</a>
</g>
</g>
<!-- G6_CULMER_GGGGGF&#45;&gt;G5_CULMER_GGGGM -->
<g id="edge35" class="edge">
<title>G6_CULMER_GGGGGF&#45;&gt;G5_CULMER_GGGGM</title>
<path fill="none" stroke="black" stroke-width="1.5" d="M890.69,-469.47C894.12,-465.25 897.74,-460.81 901.32,-456.41"/>
<polygon fill="black" stroke="black" stroke-width="1.5" points="903.99,-458.67 907.6,-448.71 898.57,-454.25 903.99,-458.67"/>
</g>
<!-- G6_BLAKE_GGGGGM -->
<g id="node24" class="node">
<title>G6_BLAKE_GGGGGM</title>
<g id="a_node24"><a xlink:href="https://www.wikitree.com/wiki/Blake-1324" xlink:title="Eliza Blake 🔗\nb. 1625, England\nd. 1670, VA" target="_blank">
<path fill="lightyellow" stroke="black" d="M1021.65,-522.55C1021.65,-522.55 957.75,-522.55 957.75,-522.55 951.75,-522.55 945.75,-516.55 945.75,-510.55 945.75,-510.55 945.75,-481.9 945.75,-481.9 945.75,-475.9 951.75,-469.9 957.75,-469.9 957.75,-469.9 1021.65,-469.9 1021.65,-469.9 1027.65,-469.9 1033.65,-475.9 1033.65,-481.9 1033.65,-481.9 1033.65,-510.55 1033.65,-510.55 1033.65,-516.55 1027.65,-522.55 1021.65,-522.55"/>
<text xml:space="preserve" text-anchor="middle" x="989.7" y="-505.85" font-family="Arial" font-size="10.00">Eliza Blake 🔗</text>
<text xml:space="preserve" text-anchor="middle" x="989.7" y="-491.6" font-family="Arial" font-size="10.00">b. 1625, England</text>
<text xml:space="preserve" text-anchor="middle" x="989.7" y="-479.6" font-family="Arial" font-size="10.00">d. 1670, VA</text>
</a>
</g>
</g>
<!-- G6_CULMER_GGGGGF&#45;&gt;G6_BLAKE_GGGGGM -->
<g id="edge12" class="edge">
<title>G6_CULMER_GGGGGF&#45;&gt;G6_BLAKE_GGGGGM</title>
<path fill="none" stroke="black" stroke-width="1.5" stroke-dasharray="5,2" d="M918.45,-496.22C927.45,-496.22 936.45,-496.22 945.45,-496.22"/>
</g>
<!-- G6_BLAKE_GGGGGM&#45;&gt;G5_CULMER_GGGGM -->
<g id="edge36" class="edge">
<title>G6_BLAKE_GGGGGM&#45;&gt;G5_CULMER_GGGGM</title>
<path fill="none" stroke="black" stroke-width="1.5" d="M968.71,-469.47C965.28,-465.25 961.66,-460.81 958.08,-456.41"/>
<polygon fill="black" stroke="black" stroke-width="1.5" points="960.83,-454.25 951.8,-448.71 955.41,-458.67 960.83,-454.25"/>
</g>
<!-- G6_CHAMPION_GGGGGF -->
<g id="node25" class="node">
<title>G6_CHAMPION_GGGGGF</title>
<g id="a_node25"><a xlink:href="https://www.wikitree.com/wiki/Champion-23" xlink:title="Edward Champion 🔗\nb. 1602, England\nd. ~1668, VA" target="_blank">
<path fill="lightyellow" stroke="black" d="M635.4,-522.55C635.4,-522.55 552,-522.55 552,-522.55 546,-522.55 540,-516.55 540,-510.55 540,-510.55 540,-481.9 540,-481.9 540,-475.9 546,-469.9 552,-469.9 552,-469.9 635.4,-469.9 635.4,-469.9 641.4,-469.9 647.4,-475.9 647.4,-481.9 647.4,-481.9 647.4,-510.55 647.4,-510.55 647.4,-516.55 641.4,-522.55 635.4,-522.55"/>
<text xml:space="preserve" text-anchor="middle" x="593.7" y="-505.85" font-family="Arial" font-size="10.00">Edward Champion 🔗</text>
<text xml:space="preserve" text-anchor="middle" x="593.7" y="-491.6" font-family="Arial" font-size="10.00">b. 1602, England</text>
<text xml:space="preserve" text-anchor="middle" x="593.7" y="-479.6" font-family="Arial" font-size="10.00">d. ~1668, VA</text>
</a>
</g>
</g>
<!-- G6_CHAMPION_GGGGGF&#45;&gt;G5_CHAMPION_GGGGM -->
<g id="edge37" class="edge">
<title>G6_CHAMPION_GGGGGF&#45;&gt;G5_CHAMPION_GGGGM</title>
<path fill="none" stroke="black" stroke-width="1.5" d="M612.59,-469.47C615.6,-465.36 618.76,-461.05 621.89,-456.77"/>
<polygon fill="black" stroke="black" stroke-width="1.5" points="624.66,-458.91 627.75,-448.78 619.02,-454.77 624.66,-458.91"/>
</g>
<!-- G6_ATKENS_GGGGGM -->
<g id="node26" class="node">
<title>G6_ATKENS_GGGGGM</title>
<g id="a_node26"><a xlink:href="https://www.wikitree.com/wiki/Atkens-3" xlink:title="Elizabeth Atkens 🔗\nb. ~1615, England\nd. ~1670, VA" target="_blank">
<path fill="lightyellow" stroke="black" d="M764.03,-522.55C764.03,-522.55 687.38,-522.55 687.38,-522.55 681.38,-522.55 675.38,-516.55 675.38,-510.55 675.38,-510.55 675.38,-481.9 675.38,-481.9 675.38,-475.9 681.38,-469.9 687.38,-469.9 687.38,-469.9 764.03,-469.9 764.03,-469.9 770.03,-469.9 776.03,-475.9 776.03,-481.9 776.03,-481.9 776.03,-510.55 776.03,-510.55 776.03,-516.55 770.03,-522.55 764.03,-522.55"/>
<text xml:space="preserve" text-anchor="middle" x="725.7" y="-505.85" font-family="Arial" font-size="10.00">Elizabeth Atkens 🔗</text>
<text xml:space="preserve" text-anchor="middle" x="725.7" y="-491.6" font-family="Arial" font-size="10.00">b. ~1615, England</text>
<text xml:space="preserve" text-anchor="middle" x="725.7" y="-479.6" font-family="Arial" font-size="10.00">d. ~1670, VA</text>
</a>
</g>
</g>
<!-- G6_CHAMPION_GGGGGF&#45;&gt;G6_ATKENS_GGGGGM -->
<g id="edge13" class="edge">
<title>G6_CHAMPION_GGGGGF&#45;&gt;G6_ATKENS_GGGGGM</title>
<path fill="none" stroke="black" stroke-width="1.5" stroke-dasharray="5,2" d="M647.84,-496.22C656.86,-496.22 665.89,-496.22 674.91,-496.22"/>
</g>
<!-- G6_ATKENS_GGGGGM&#45;&gt;G5_CHAMPION_GGGGM -->
<g id="edge38" class="edge">
<title>G6_ATKENS_GGGGGM&#45;&gt;G5_CHAMPION_GGGGM</title>
<path fill="none" stroke="black" stroke-width="1.5" d="M698.42,-469.47C693.64,-464.95 688.61,-460.2 683.64,-455.51"/>
<polygon fill="black" stroke="black" stroke-width="1.5" points="686.16,-453.07 676.48,-448.75 681.35,-458.16 686.16,-453.07"/>
</g>
<!-- G7_SATTERWHITE_GGGGGGF -->
<g id="node27" class="node">
<title>G7_SATTERWHITE_GGGGGGF</title>
<g id="a_node27"><a xlink:href="https://www.wikitree.com/wiki/Satterthwaite-51" xlink:title="Michael Satterwhite 🔗\nb. ~1580, England\nd. ~1660, VA" target="_blank">
<path fill="lightcyan" stroke="black" d="M101.4,-598.2C101.4,-598.2 12,-598.2 12,-598.2 6,-598.2 0,-592.2 0,-586.2 0,-586.2 0,-557.55 0,-557.55 0,-551.55 6,-545.55 12,-545.55 12,-545.55 101.4,-545.55 101.4,-545.55 107.4,-545.55 113.4,-551.55 113.4,-557.55 113.4,-557.55 113.4,-586.2 113.4,-586.2 113.4,-592.2 107.4,-598.2 101.4,-598.2"/>
<text xml:space="preserve" text-anchor="middle" x="56.7" y="-581.5" font-family="Arial" font-size="10.00">Michael Satterwhite 🔗</text>
<text xml:space="preserve" text-anchor="middle" x="56.7" y="-567.25" font-family="Arial" font-size="10.00">b. ~1580, England</text>
<text xml:space="preserve" text-anchor="middle" x="56.7" y="-555.25" font-family="Arial" font-size="10.00">d. ~1660, VA</text>
</a>
</g>
</g>
<!-- G7_SATTERWHITE_GGGGGGF&#45;&gt;G6_SATTERWHITE_GGGGGF -->
<g id="edge39" class="edge">
<title>G7_SATTERWHITE_GGGGGGF&#45;&gt;G6_SATTERWHITE_GGGGGF</title>
<path fill="none" stroke="black" stroke-width="1.5" d="M81.53,-545.12C85.82,-540.67 90.34,-535.98 94.8,-531.35"/>
<polygon fill="black" stroke="black" stroke-width="1.5" points="97.24,-533.86 101.67,-524.23 92.21,-529 97.24,-533.86"/>
</g>
<!-- G7_COULDER_GGGGGGM -->
<g id="node28" class="node">
<title>G7_COULDER_GGGGGGM</title>
<path fill="lightcyan" stroke="black" d="M248.4,-597.08C248.4,-597.08 153,-597.08 153,-597.08 147,-597.08 141,-591.08 141,-585.08 141,-585.08 141,-558.67 141,-558.67 141,-552.67 147,-546.67 153,-546.67 153,-546.67 248.4,-546.67 248.4,-546.67 254.4,-546.67 260.4,-552.67 260.4,-558.67 260.4,-558.67 260.4,-585.08 260.4,-585.08 260.4,-591.08 254.4,-597.08 248.4,-597.08"/>
<text xml:space="preserve" text-anchor="middle" x="200.7" y="-580.38" font-family="Arial" font-size="10.00">Clara Catherine Coulder</text>
<text xml:space="preserve" text-anchor="middle" x="200.7" y="-568.38" font-family="Arial" font-size="10.00">b. 1623, England</text>
<text xml:space="preserve" text-anchor="middle" x="200.7" y="-556.38" font-family="Arial" font-size="10.00">d. 1691, VA</text>
</g>
<!-- G7_SATTERWHITE_GGGGGGF&#45;&gt;G7_COULDER_GGGGGGM -->
<g id="edge14" class="edge">
<title>G7_SATTERWHITE_GGGGGGF&#45;&gt;G7_COULDER_GGGGGGM</title>
<path fill="none" stroke="black" stroke-width="1.5" stroke-dasharray="5,2" d="M113.79,-571.88C122.73,-571.88 131.67,-571.88 140.61,-571.88"/>
</g>
<!-- G7_COULDER_GGGGGGM&#45;&gt;G6_SATTERWHITE_GGGGGF -->
<g id="edge40" class="edge">
<title>G7_COULDER_GGGGGGM&#45;&gt;G6_SATTERWHITE_GGGGGF</title>
<path fill="none" stroke="black" stroke-width="1.5" d="M176.39,-546.35C171.61,-541.53 166.51,-536.38 161.48,-531.31"/>
<polygon fill="black" stroke="black" stroke-width="1.5" points="164.28,-529.15 154.75,-524.52 159.3,-534.08 164.28,-529.15"/>
</g>
</g>
</svg>
