<?xml version="1.0" encoding="UTF-8" standalone="no"?>
<!DOCTYPE svg PUBLIC "-//W3C//DTD SVG 1.1//EN"
 "http://www.w3.org/Graphics/SVG/1.1/DTD/svg11.dtd">
<!-- Generated by graphviz version 13.0.1 (20250615.1724)
 -->
<!-- Title: family_tree Pages: 1 -->
<svg width="1090pt" height="535pt"
 viewBox="7.00 7.00 1083.00 528.00" xmlns="http://www.w3.org/2000/svg" xmlns:xlink="http://www.w3.org/1999/xlink">
<g id="graph0" class="graph" transform="scale(1 1) rotate(0) translate(14.4 520.95)">
<title>family_tree</title>
<polygon fill="white" stroke="none" points="-7.2,7.2 -7.2,-513.75 1068.48,-513.75 1068.48,7.2 -7.2,7.2"/>
<!-- G0_ME -->
<g id="node1" class="node">
<title>G0_ME</title>
<g id="a_node1"><a xlink:href="https://ancestors.familysearch.org/en/LXSM-GTQ/moses-woody-1810" xlink:title="Moses Woody 🔗\nb. 1810, NC\nd. MS" target="_blank">
<path fill="gold" stroke="black" d="M608.78,-52.65C608.78,-52.65 543.38,-52.65 543.38,-52.65 537.38,-52.65 531.38,-46.65 531.38,-40.65 531.38,-40.65 531.38,-12 531.38,-12 531.38,-6 537.38,0 543.38,0 543.38,0 608.78,0 608.78,0 614.78,0 620.78,-6 620.78,-12 620.78,-12 620.78,-40.65 620.78,-40.65 620.78,-46.65 614.78,-52.65 608.78,-52.65"/>
<text xml:space="preserve" text-anchor="middle" x="576.08" y="-35.95" font-family="Arial" font-size="10.00">Moses Woody 🔗</text>
<text xml:space="preserve" text-anchor="middle" x="576.08" y="-21.7" font-family="Arial" font-size="10.00">b. 1810, NC</text>
<text xml:space="preserve" text-anchor="middle" x="576.08" y="-9.7" font-family="Arial" font-size="10.00">d. MS</text>
</a>
</g>
</g>
<!-- G0_SPOUSE -->
<g id="node2" class="node">
<title>G0_SPOUSE</title>
<g id="a_node2"><a xlink:href="https://ancestors.familysearch.org/en/2Z8S-FQJ/mary-s-mccracken-1815-1889" xlink:title="Mary S. McCracken 🔗\nb. 1815, TN\nd. 1889, TX" target="_blank">
<path fill="gold" stroke="black" d="M751.53,-52.65C751.53,-52.65 660.62,-52.65 660.62,-52.65 654.62,-52.65 648.62,-46.65 648.62,-40.65 648.62,-40.65 648.62,-12 648.62,-12 648.62,-6 654.62,0 660.62,0 660.62,0 751.53,0 751.53,0 757.53,0 763.53,-6 763.53,-12 763.53,-12 763.53,-40.65 763.53,-40.65 763.53,-46.65 757.53,-52.65 751.53,-52.65"/>
<text xml:space="preserve" text-anchor="middle" x="706.08" y="-35.95" font-family="Arial" font-size="10.00">Mary S. McCracken 🔗</text>
<text xml:space="preserve" text-anchor="middle" x="706.08" y="-21.7" font-family="Arial" font-size="10.00">b. 1815, TN</text>
<text xml:space="preserve" text-anchor="middle" x="706.08" y="-9.7" font-family="Arial" font-size="10.00">d. 1889, TX</text>
</a>
</g>
</g>
<!-- G0_ME&#45;&gt;G0_SPOUSE -->
<g id="edge1" class="edge">
<title>G0_ME&#45;&gt;G0_SPOUSE</title>
<path fill="none" stroke="black" stroke-width="1.5" stroke-dasharray="5,2" d="M621.27,-26.32C630.32,-26.32 639.38,-26.32 648.43,-26.32"/>
</g>
<!-- G1_FATHER -->
<g id="node3" class="node">
<title>G1_FATHER</title>
<g id="a_node3"><a xlink:href="https://www.wikitree.com/wiki/Woody-780" xlink:title="Samuel Woody 🔗\nb. 1770, NC\nd. 1855, TN" target="_blank">
<path fill="lightcoral" stroke="black" d="M533.65,-128.3C533.65,-128.3 464.5,-128.3 464.5,-128.3 458.5,-128.3 452.5,-122.3 452.5,-116.3 452.5,-116.3 452.5,-87.65 452.5,-87.65 452.5,-81.65 458.5,-75.65 464.5,-75.65 464.5,-75.65 533.65,-75.65 533.65,-75.65 539.65,-75.65 545.65,-81.65 545.65,-87.65 545.65,-87.65 545.65,-116.3 545.65,-116.3 545.65,-122.3 539.65,-128.3 533.65,-128.3"/>
<text xml:space="preserve" text-anchor="middle" x="499.08" y="-111.6" font-family="Arial" font-size="10.00">Samuel Woody 🔗</text>
<text xml:space="preserve" text-anchor="middle" x="499.08" y="-97.35" font-family="Arial" font-size="10.00">b. 1770, NC</text>
<text xml:space="preserve" text-anchor="middle" x="499.08" y="-85.35" font-family="Arial" font-size="10.00">d. 1855, TN</text>
</a>
</g>
</g>
<!-- G1_FATHER&#45;&gt;G0_ME -->
<g id="edge13" class="edge">
<title>G1_FATHER&#45;&gt;G0_ME</title>
<path fill="none" stroke="black" stroke-width="1.5" d="M526.01,-75.22C530.72,-70.7 535.69,-65.95 540.6,-61.26"/>
<polygon fill="black" stroke="black" stroke-width="1.5" points="542.84,-63.96 547.65,-54.51 538,-58.9 542.84,-63.96"/>
</g>
<!-- G1_MOTHER -->
<g id="node4" class="node">
<title>G1_MOTHER</title>
<g id="a_node4"><a xlink:href="https://www.wikitree.com/wiki/Holmes-1651" xlink:title="Jane Holmes 🔗\nb. 1774, NC\nd. 1856, TN" target="_blank">
<path fill="lightcoral" stroke="black" d="M686.53,-128.3C686.53,-128.3 625.62,-128.3 625.62,-128.3 619.62,-128.3 613.62,-122.3 613.62,-116.3 613.62,-116.3 613.62,-87.65 613.62,-87.65 613.62,-81.65 619.62,-75.65 625.62,-75.65 625.62,-75.65 686.53,-75.65 686.53,-75.65 692.53,-75.65 698.53,-81.65 698.53,-87.65 698.53,-87.65 698.53,-116.3 698.53,-116.3 698.53,-122.3 692.53,-128.3 686.53,-128.3"/>
<text xml:space="preserve" text-anchor="middle" x="656.08" y="-111.6" font-family="Arial" font-size="10.00">Jane Holmes 🔗</text>
<text xml:space="preserve" text-anchor="middle" x="656.08" y="-97.35" font-family="Arial" font-size="10.00">b. 1774, NC</text>
<text xml:space="preserve" text-anchor="middle" x="656.08" y="-85.35" font-family="Arial" font-size="10.00">d. 1856, TN</text>
</a>
</g>
</g>
<!-- G1_FATHER&#45;&gt;G1_MOTHER -->
<g id="edge2" class="edge">
<title>G1_FATHER&#45;&gt;G1_MOTHER</title>
<path fill="none" stroke="black" stroke-width="1.5" stroke-dasharray="5,2" d="M545.76,-101.98C567.18,-101.98 592.41,-101.98 613.33,-101.98"/>
<text xml:space="preserve" text-anchor="middle" x="579.64" y="-106.73" font-family="Times,serif" font-size="10.00">m. 1795, NC</text>
</g>
<!-- G1_MOTHER&#45;&gt;G0_ME -->
<g id="edge14" class="edge">
<title>G1_MOTHER&#45;&gt;G0_ME</title>
<path fill="none" stroke="black" stroke-width="1.5" d="M628.09,-75.22C623.07,-70.59 617.77,-65.71 612.55,-60.91"/>
<polygon fill="black" stroke="black" stroke-width="1.5" points="615.3,-58.68 605.57,-54.48 610.56,-63.83 615.3,-58.68"/>
</g>
<!-- G2_PATERNAL_GF -->
<g id="node5" class="node">
<title>G2_PATERNAL_GF</title>
<g id="a_node5"><a xlink:href="https://www.wikitree.com/wiki/Woody-227" xlink:title="Joseph Woody 🔗\nb. ~1748, MD\nd. ~1815, NC" target="_blank">
<path fill="lightsteelblue" stroke="black" d="M363.9,-203.95C363.9,-203.95 296.25,-203.95 296.25,-203.95 290.25,-203.95 284.25,-197.95 284.25,-191.95 284.25,-191.95 284.25,-163.3 284.25,-163.3 284.25,-157.3 290.25,-151.3 296.25,-151.3 296.25,-151.3 363.9,-151.3 363.9,-151.3 369.9,-151.3 375.9,-157.3 375.9,-163.3 375.9,-163.3 375.9,-191.95 375.9,-191.95 375.9,-197.95 369.9,-203.95 363.9,-203.95"/>
<text xml:space="preserve" text-anchor="middle" x="330.08" y="-187.25" font-family="Arial" font-size="10.00">Joseph Woody 🔗</text>
<text xml:space="preserve" text-anchor="middle" x="330.08" y="-173" font-family="Arial" font-size="10.00">b. ~1748, MD</text>
<text xml:space="preserve" text-anchor="middle" x="330.08" y="-161" font-family="Arial" font-size="10.00">d. ~1815, NC</text>
</a>
</g>
</g>
<!-- G2_PATERNAL_GF&#45;&gt;G1_FATHER -->
<g id="edge15" class="edge">
<title>G2_PATERNAL_GF&#45;&gt;G1_FATHER</title>
<path fill="none" stroke="black" stroke-width="1.5" d="M376.25,-156.5C396.22,-147.8 419.81,-137.52 440.94,-128.31"/>
<polygon fill="black" stroke="black" stroke-width="1.5" points="442.22,-131.57 449.99,-124.37 439.42,-125.15 442.22,-131.57"/>
</g>
<!-- G2_PATERNAL_GM -->
<g id="node6" class="node">
<title>G2_PATERNAL_GM</title>
<g id="a_node6"><a xlink:href="https://www.wikitree.com/wiki/Thompson-5888" xlink:title="Sarah Thompson 🔗\nb. 1750, VA\nd. 1822, NC" target="_blank">
<path fill="lightsteelblue" stroke="black" d="M537.4,-203.95C537.4,-203.95 460.75,-203.95 460.75,-203.95 454.75,-203.95 448.75,-197.95 448.75,-191.95 448.75,-191.95 448.75,-163.3 448.75,-163.3 448.75,-157.3 454.75,-151.3 460.75,-151.3 460.75,-151.3 537.4,-151.3 537.4,-151.3 543.4,-151.3 549.4,-157.3 549.4,-163.3 549.4,-163.3 549.4,-191.95 549.4,-191.95 549.4,-197.95 543.4,-203.95 537.4,-203.95"/>
<text xml:space="preserve" text-anchor="middle" x="499.08" y="-187.25" font-family="Arial" font-size="10.00">Sarah Thompson 🔗</text>
<text xml:space="preserve" text-anchor="middle" x="499.08" y="-173" font-family="Arial" font-size="10.00">b. 1750, VA</text>
<text xml:space="preserve" text-anchor="middle" x="499.08" y="-161" font-family="Arial" font-size="10.00">d. 1822, NC</text>
</a>
</g>
</g>
<!-- G2_PATERNAL_GF&#45;&gt;G2_PATERNAL_GM -->
<g id="edge3" class="edge">
<title>G2_PATERNAL_GF&#45;&gt;G2_PATERNAL_GM</title>
<path fill="none" stroke="black" stroke-width="1.5" stroke-dasharray="5,2" d="M376.25,-177.62C398.64,-177.62 425.57,-177.62 448.5,-177.62"/>
<text xml:space="preserve" text-anchor="middle" x="412.33" y="-182.38" font-family="Times,serif" font-size="10.00">m. ~1766, NC</text>
</g>
<!-- G2_PATERNAL_GM&#45;&gt;G1_FATHER -->
<g id="edge16" class="edge">
<title>G2_PATERNAL_GM&#45;&gt;G1_FATHER</title>
<path fill="none" stroke="black" stroke-width="1.5" d="M499.08,-150.87C499.08,-147.44 499.08,-143.88 499.08,-140.31"/>
<polygon fill="black" stroke="black" stroke-width="1.5" points="502.58,-140.62 499.08,-130.62 495.58,-140.62 502.58,-140.62"/>
</g>
<!-- G2_MATERNAL_GF -->
<g id="node7" class="node">
<title>G2_MATERNAL_GF</title>
<g id="a_node7"><a xlink:href="https://www.wikitree.com/wiki/Holmes-3284" xlink:title="Robert John Holmes 🔗\nb. ~1745, NC\nd. ~1820, NC" target="_blank">
<path fill="lightsteelblue" stroke="black" d="M702.65,-203.95C702.65,-203.95 609.5,-203.95 609.5,-203.95 603.5,-203.95 597.5,-197.95 597.5,-191.95 597.5,-191.95 597.5,-163.3 597.5,-163.3 597.5,-157.3 603.5,-151.3 609.5,-151.3 609.5,-151.3 702.65,-151.3 702.65,-151.3 708.65,-151.3 714.65,-157.3 714.65,-163.3 714.65,-163.3 714.65,-191.95 714.65,-191.95 714.65,-197.95 708.65,-203.95 702.65,-203.95"/>
<text xml:space="preserve" text-anchor="middle" x="656.08" y="-187.25" font-family="Arial" font-size="10.00">Robert John Holmes 🔗</text>
<text xml:space="preserve" text-anchor="middle" x="656.08" y="-173" font-family="Arial" font-size="10.00">b. ~1745, NC</text>
<text xml:space="preserve" text-anchor="middle" x="656.08" y="-161" font-family="Arial" font-size="10.00">d. ~1820, NC</text>
</a>
</g>
</g>
<!-- G2_MATERNAL_GF&#45;&gt;G1_MOTHER -->
<g id="edge17" class="edge">
<title>G2_MATERNAL_GF&#45;&gt;G1_MOTHER</title>
<path fill="none" stroke="black" stroke-width="1.5" d="M656.08,-150.87C656.08,-147.44 656.08,-143.88 656.08,-140.31"/>
<polygon fill="black" stroke="black" stroke-width="1.5" points="659.58,-140.62 656.08,-130.62 652.58,-140.62 659.58,-140.62"/>
</g>
<!-- G2_MATERNAL_GM -->
<g id="node8" class="node">
<title>G2_MATERNAL_GM</title>
<g id="a_node8"><a xlink:href="https://www.wikitree.com/wiki/Bruce-1766" xlink:title="Rachel Bruce 🔗\nb. ~1755, VA\nd. ~1835, VA" target="_blank">
<path fill="lightsteelblue" stroke="black" d="M816.28,-203.95C816.28,-203.95 753.88,-203.95 753.88,-203.95 747.88,-203.95 741.88,-197.95 741.88,-191.95 741.88,-191.95 741.88,-163.3 741.88,-163.3 741.88,-157.3 747.88,-151.3 753.88,-151.3 753.88,-151.3 816.28,-151.3 816.28,-151.3 822.28,-151.3 828.28,-157.3 828.28,-163.3 828.28,-163.3 828.28,-191.95 828.28,-191.95 828.28,-197.95 822.28,-203.95 816.28,-203.95"/>
<text xml:space="preserve" text-anchor="middle" x="785.08" y="-187.25" font-family="Arial" font-size="10.00">Rachel Bruce 🔗</text>
<text xml:space="preserve" text-anchor="middle" x="785.08" y="-173" font-family="Arial" font-size="10.00">b. ~1755, VA</text>
<text xml:space="preserve" text-anchor="middle" x="785.08" y="-161" font-family="Arial" font-size="10.00">d. ~1835, VA</text>
</a>
</g>
</g>
<!-- G2_MATERNAL_GF&#45;&gt;G2_MATERNAL_GM -->
<g id="edge4" class="edge">
<title>G2_MATERNAL_GF&#45;&gt;G2_MATERNAL_GM</title>
<path fill="none" stroke="black" stroke-width="1.5" stroke-dasharray="5,2" d="M715.03,-177.62C723.88,-177.62 732.73,-177.62 741.57,-177.62"/>
</g>
<!-- G2_MATERNAL_GM&#45;&gt;G1_MOTHER -->
<g id="edge18" class="edge">
<title>G2_MATERNAL_GM&#45;&gt;G1_MOTHER</title>
<path fill="none" stroke="black" stroke-width="1.5" d="M741.4,-151.69C731.1,-145.81 719.99,-139.47 709.32,-133.37"/>
<polygon fill="black" stroke="black" stroke-width="1.5" points="711.22,-130.43 700.8,-128.51 707.75,-136.51 711.22,-130.43"/>
</g>
<!-- G3_BRUCE_GGF -->
<g id="node9" class="node">
<title>G3_BRUCE_GGF</title>
<g id="a_node9"><a xlink:href="https://ancestors.familysearch.org/en/PSF5-FKV/george-g.-bruce-1713-1797" xlink:title="George G. Bruce 🔗\nb. 1713, Scotland\nd. 1797, TN" target="_blank">
<path fill="lightgreen" stroke="black" d="M818.4,-279.6C818.4,-279.6 741.75,-279.6 741.75,-279.6 735.75,-279.6 729.75,-273.6 729.75,-267.6 729.75,-267.6 729.75,-238.95 729.75,-238.95 729.75,-232.95 735.75,-226.95 741.75,-226.95 741.75,-226.95 818.4,-226.95 818.4,-226.95 824.4,-226.95 830.4,-232.95 830.4,-238.95 830.4,-238.95 830.4,-267.6 830.4,-267.6 830.4,-273.6 824.4,-279.6 818.4,-279.6"/>
<text xml:space="preserve" text-anchor="middle" x="780.08" y="-262.9" font-family="Arial" font-size="10.00">George G. Bruce 🔗</text>
<text xml:space="preserve" text-anchor="middle" x="780.08" y="-248.65" font-family="Arial" font-size="10.00">b. 1713, Scotland</text>
<text xml:space="preserve" text-anchor="middle" x="780.08" y="-236.65" font-family="Arial" font-size="10.00">d. 1797, TN</text>
</a>
</g>
</g>
<!-- G3_BRUCE_GGF&#45;&gt;G2_MATERNAL_GM -->
<g id="edge24" class="edge">
<title>G3_BRUCE_GGF&#45;&gt;G2_MATERNAL_GM</title>
<path fill="none" stroke="black" stroke-width="1.5" d="M781.82,-226.52C782.06,-223.09 782.3,-219.53 782.54,-215.96"/>
<polygon fill="black" stroke="black" stroke-width="1.5" points="786.01,-216.48 783.2,-206.26 779.03,-216 786.01,-216.48"/>
</g>
<!-- G3_QUINN_GGM -->
<g id="node10" class="node">
<title>G3_QUINN_GGM</title>
<g id="a_node10"><a xlink:href="https://ancestors.familysearch.org/en/LHZC-752/mary-elizabeth-quinn-1720-1793" xlink:title="Mary Elizabeth Quinn 🔗\nb. 1720, VA\nd. 1793, VA" target="_blank">
<path fill="lightgreen" stroke="black" d="M1003.53,-279.6C1003.53,-279.6 906.62,-279.6 906.62,-279.6 900.62,-279.6 894.62,-273.6 894.62,-267.6 894.62,-267.6 894.62,-238.95 894.62,-238.95 894.62,-232.95 900.62,-226.95 906.62,-226.95 906.62,-226.95 1003.53,-226.95 1003.53,-226.95 1009.53,-226.95 1015.53,-232.95 1015.53,-238.95 1015.53,-238.95 1015.53,-267.6 1015.53,-267.6 1015.53,-273.6 1009.53,-279.6 1003.53,-279.6"/>
<text xml:space="preserve" text-anchor="middle" x="955.08" y="-262.9" font-family="Arial" font-size="10.00">Mary Elizabeth Quinn 🔗</text>
<text xml:space="preserve" text-anchor="middle" x="955.08" y="-248.65" font-family="Arial" font-size="10.00">b. 1720, VA</text>
<text xml:space="preserve" text-anchor="middle" x="955.08" y="-236.65" font-family="Arial" font-size="10.00">d. 1793, VA</text>
</a>
</g>
</g>
<!-- G3_BRUCE_GGF&#45;&gt;G3_QUINN_GGM -->
<g id="edge5" class="edge">
<title>G3_BRUCE_GGF&#45;&gt;G3_QUINN_GGM</title>
<path fill="none" stroke="black" stroke-width="1.5" stroke-dasharray="5,2" d="M830.69,-253.27C850.58,-253.27 873.58,-253.27 894.35,-253.27"/>
<text xml:space="preserve" text-anchor="middle" x="862.51" y="-258.02" font-family="Times,serif" font-size="10.00">m. 1720, VA</text>
</g>
<!-- G3_QUINN_GGM&#45;&gt;G2_MATERNAL_GM -->
<g id="edge25" class="edge">
<title>G3_QUINN_GGM&#45;&gt;G2_MATERNAL_GM</title>
<path fill="none" stroke="black" stroke-width="1.5" d="M895.62,-226.52C877.47,-218.65 857.6,-210.05 839.78,-202.33"/>
<polygon fill="black" stroke="black" stroke-width="1.5" points="841.35,-199.19 830.78,-198.43 838.56,-205.61 841.35,-199.19"/>
</g>
<!-- G3_HOLMES_GGF -->
<g id="node11" class="node">
<title>G3_HOLMES_GGF</title>
<g id="a_node11"><a xlink:href="https://www.wikitree.com/wiki/Holmes-5407" xlink:title="James Holmes 🔗\nb. ~1710\nd. NC" target="_blank">
<path fill="lightgreen" stroke="black" d="M694.65,-279.6C694.65,-279.6 625.5,-279.6 625.5,-279.6 619.5,-279.6 613.5,-273.6 613.5,-267.6 613.5,-267.6 613.5,-238.95 613.5,-238.95 613.5,-232.95 619.5,-226.95 625.5,-226.95 625.5,-226.95 694.65,-226.95 694.65,-226.95 700.65,-226.95 706.65,-232.95 706.65,-238.95 706.65,-238.95 706.65,-267.6 706.65,-267.6 706.65,-273.6 700.65,-279.6 694.65,-279.6"/>
<text xml:space="preserve" text-anchor="middle" x="660.08" y="-262.9" font-family="Arial" font-size="10.00">James Holmes 🔗</text>
<text xml:space="preserve" text-anchor="middle" x="660.08" y="-248.65" font-family="Arial" font-size="10.00">b. ~1710</text>
<text xml:space="preserve" text-anchor="middle" x="660.08" y="-236.65" font-family="Arial" font-size="10.00">d. NC</text>
</a>
</g>
</g>
<!-- G3_HOLMES_GGF&#45;&gt;G2_MATERNAL_GF -->
<g id="edge23" class="edge">
<title>G3_HOLMES_GGF&#45;&gt;G2_MATERNAL_GF</title>
<path fill="none" stroke="black" stroke-width="1.5" d="M658.68,-226.52C658.49,-223.09 658.3,-219.53 658.1,-215.96"/>
<polygon fill="black" stroke="black" stroke-width="1.5" points="661.61,-216.06 657.58,-206.26 654.62,-216.44 661.61,-216.06"/>
</g>
<!-- G3_LINDLEY_GGM -->
<g id="node12" class="node">
<title>G3_LINDLEY_GGM</title>
<g id="a_node12"><a xlink:href="https://www.wikitree.com/wiki/Lindley-330" xlink:title="Mary Lindley 🔗\nb. 1717, PA\nd. 1795, NC" target="_blank">
<path fill="lightgreen" stroke="black" d="M210.4,-279.6C210.4,-279.6 151.75,-279.6 151.75,-279.6 145.75,-279.6 139.75,-273.6 139.75,-267.6 139.75,-267.6 139.75,-238.95 139.75,-238.95 139.75,-232.95 145.75,-226.95 151.75,-226.95 151.75,-226.95 210.4,-226.95 210.4,-226.95 216.4,-226.95 222.4,-232.95 222.4,-238.95 222.4,-238.95 222.4,-267.6 222.4,-267.6 222.4,-273.6 216.4,-279.6 210.4,-279.6"/>
<text xml:space="preserve" text-anchor="middle" x="181.08" y="-262.9" font-family="Arial" font-size="10.00">Mary Lindley 🔗</text>
<text xml:space="preserve" text-anchor="middle" x="181.08" y="-248.65" font-family="Arial" font-size="10.00">b. 1717, PA</text>
<text xml:space="preserve" text-anchor="middle" x="181.08" y="-236.65" font-family="Arial" font-size="10.00">d. 1795, NC</text>
</a>
</g>
</g>
<!-- G3_LINDLEY_GGM&#45;&gt;G2_PATERNAL_GF -->
<g id="edge20" class="edge">
<title>G3_LINDLEY_GGM&#45;&gt;G2_PATERNAL_GF</title>
<path fill="none" stroke="black" stroke-width="1.5" d="M222.58,-231.76C238.19,-224.04 256.22,-215.13 273.01,-206.83"/>
<polygon fill="black" stroke="black" stroke-width="1.5" points="274.37,-210.07 281.78,-202.5 271.26,-203.79 274.37,-210.07"/>
</g>
<!-- G3_WOODY_GGF -->
<g id="node13" class="node">
<title>G3_WOODY_GGF</title>
<g id="a_node13"><a xlink:href="https://www.wikitree.com/wiki/Woody-608" xlink:title="John Woody 🔗\nb. 1715, MA\nd. ~1763, NC" target="_blank">
<path fill="lightgreen" stroke="black" d="M358.65,-279.6C358.65,-279.6 301.5,-279.6 301.5,-279.6 295.5,-279.6 289.5,-273.6 289.5,-267.6 289.5,-267.6 289.5,-238.95 289.5,-238.95 289.5,-232.95 295.5,-226.95 301.5,-226.95 301.5,-226.95 358.65,-226.95 358.65,-226.95 364.65,-226.95 370.65,-232.95 370.65,-238.95 370.65,-238.95 370.65,-267.6 370.65,-267.6 370.65,-273.6 364.65,-279.6 358.65,-279.6"/>
<text xml:space="preserve" text-anchor="middle" x="330.08" y="-262.9" font-family="Arial" font-size="10.00">John Woody 🔗</text>
<text xml:space="preserve" text-anchor="middle" x="330.08" y="-248.65" font-family="Arial" font-size="10.00">b. 1715, MA</text>
<text xml:space="preserve" text-anchor="middle" x="330.08" y="-236.65" font-family="Arial" font-size="10.00">d. ~1763, NC</text>
</a>
</g>
</g>
<!-- G3_LINDLEY_GGM&#45;&gt;G3_WOODY_GGF -->
<g id="edge6" class="edge">
<title>G3_LINDLEY_GGM&#45;&gt;G3_WOODY_GGF</title>
<path fill="none" stroke="black" stroke-width="1.5" stroke-dasharray="5,2" d="M222.58,-253.27C243.33,-253.27 268.36,-253.27 289.05,-253.27"/>
<text xml:space="preserve" text-anchor="middle" x="255.95" y="-258.02" font-family="Times,serif" font-size="10.00">m. 1738, MD</text>
</g>
<!-- G3_WOODY_GGF&#45;&gt;G2_PATERNAL_GF -->
<g id="edge19" class="edge">
<title>G3_WOODY_GGF&#45;&gt;G2_PATERNAL_GF</title>
<path fill="none" stroke="black" stroke-width="1.5" d="M330.08,-226.52C330.08,-223.09 330.08,-219.53 330.08,-215.96"/>
<polygon fill="black" stroke="black" stroke-width="1.5" points="333.58,-216.27 330.08,-206.27 326.58,-216.27 333.58,-216.27"/>
</g>
<!-- G3_THOMPSON_GGF -->
<g id="node14" class="node">
<title>G3_THOMPSON_GGF</title>
<g id="a_node14"><a xlink:href="https://www.wikitree.com/wiki/Thompson-20472" xlink:title="Samuel Thompson 🔗\nb. ~1720, VA\nd. ~1804, NC" target="_blank">
<path fill="lightgreen" stroke="black" d="M481.15,-279.6C481.15,-279.6 397,-279.6 397,-279.6 391,-279.6 385,-273.6 385,-267.6 385,-267.6 385,-238.95 385,-238.95 385,-232.95 391,-226.95 397,-226.95 397,-226.95 481.15,-226.95 481.15,-226.95 487.15,-226.95 493.15,-232.95 493.15,-238.95 493.15,-238.95 493.15,-267.6 493.15,-267.6 493.15,-273.6 487.15,-279.6 481.15,-279.6"/>
<text xml:space="preserve" text-anchor="middle" x="439.08" y="-262.9" font-family="Arial" font-size="10.00">Samuel Thompson 🔗</text>
<text xml:space="preserve" text-anchor="middle" x="439.08" y="-248.65" font-family="Arial" font-size="10.00">b. ~1720, VA</text>
<text xml:space="preserve" text-anchor="middle" x="439.08" y="-236.65" font-family="Arial" font-size="10.00">d. ~1804, NC</text>
</a>
</g>
</g>
<!-- G3_THOMPSON_GGF&#45;&gt;G2_PATERNAL_GM -->
<g id="edge21" class="edge">
<title>G3_THOMPSON_GGF&#45;&gt;G2_PATERNAL_GM</title>
<path fill="none" stroke="black" stroke-width="1.5" d="M460.06,-226.52C463.5,-222.3 467.11,-217.86 470.69,-213.46"/>
<polygon fill="black" stroke="black" stroke-width="1.5" points="473.37,-215.72 476.97,-205.76 467.94,-211.3 473.37,-215.72"/>
</g>
<!-- G3_PAYNE_GGM -->
<g id="node15" class="node">
<title>G3_PAYNE_GGM</title>
<g id="a_node15"><a xlink:href="https://www.wikitree.com/wiki/Payne-5172" xlink:title="Mary Payne 🔗\nb. 1726, VA\nd. NC" target="_blank">
<path fill="lightgreen" stroke="black" d="M587.9,-279.6C587.9,-279.6 532.25,-279.6 532.25,-279.6 526.25,-279.6 520.25,-273.6 520.25,-267.6 520.25,-267.6 520.25,-238.95 520.25,-238.95 520.25,-232.95 526.25,-226.95 532.25,-226.95 532.25,-226.95 587.9,-226.95 587.9,-226.95 593.9,-226.95 599.9,-232.95 599.9,-238.95 599.9,-238.95 599.9,-267.6 599.9,-267.6 599.9,-273.6 593.9,-279.6 587.9,-279.6"/>
<text xml:space="preserve" text-anchor="middle" x="560.08" y="-262.9" font-family="Arial" font-size="10.00">Mary Payne 🔗</text>
<text xml:space="preserve" text-anchor="middle" x="560.08" y="-248.65" font-family="Arial" font-size="10.00">b. 1726, VA</text>
<text xml:space="preserve" text-anchor="middle" x="560.08" y="-236.65" font-family="Arial" font-size="10.00">d. NC</text>
</a>
</g>
</g>
<!-- G3_THOMPSON_GGF&#45;&gt;G3_PAYNE_GGM -->
<g id="edge7" class="edge">
<title>G3_THOMPSON_GGF&#45;&gt;G3_PAYNE_GGM</title>
<path fill="none" stroke="black" stroke-width="1.5" stroke-dasharray="5,2" d="M493.43,-253.27C502.28,-253.27 511.13,-253.27 519.98,-253.27"/>
</g>
<!-- G3_PAYNE_GGM&#45;&gt;G2_PATERNAL_GM -->
<g id="edge22" class="edge">
<title>G3_PAYNE_GGM&#45;&gt;G2_PATERNAL_GM</title>
<path fill="none" stroke="black" stroke-width="1.5" d="M538.74,-226.52C535.15,-222.18 531.37,-217.62 527.63,-213.11"/>
<polygon fill="black" stroke="black" stroke-width="1.5" points="530.61,-211.21 521.54,-205.75 525.22,-215.68 530.61,-211.21"/>
</g>
<!-- G4_QUINN_GGGF -->
<g id="node16" class="node">
<title>G4_QUINN_GGGF</title>
<g id="a_node16"><a xlink:href="https://ancestors.familysearch.org/en/G6CW-91W/darby-a-quinn-1680-1756" xlink:title="Darby A. Quinn 🔗\nb. 1680, Ireland\nd. 1756, VA" target="_blank">
<path fill="wheat" stroke="black" d="M929.03,-355.25C929.03,-355.25 859.12,-355.25 859.12,-355.25 853.12,-355.25 847.12,-349.25 847.12,-343.25 847.12,-343.25 847.12,-314.6 847.12,-314.6 847.12,-308.6 853.12,-302.6 859.12,-302.6 859.12,-302.6 929.03,-302.6 929.03,-302.6 935.03,-302.6 941.03,-308.6 941.03,-314.6 941.03,-314.6 941.03,-343.25 941.03,-343.25 941.03,-349.25 935.03,-355.25 929.03,-355.25"/>
<text xml:space="preserve" text-anchor="middle" x="894.08" y="-338.55" font-family="Arial" font-size="10.00">Darby A. Quinn 🔗</text>
<text xml:space="preserve" text-anchor="middle" x="894.08" y="-324.3" font-family="Arial" font-size="10.00">b. 1680, Ireland</text>
<text xml:space="preserve" text-anchor="middle" x="894.08" y="-312.3" font-family="Arial" font-size="10.00">d. 1756, VA</text>
</a>
</g>
</g>
<!-- G4_QUINN_GGGF&#45;&gt;G3_QUINN_GGM -->
<g id="edge26" class="edge">
<title>G4_QUINN_GGGF&#45;&gt;G3_QUINN_GGM</title>
<path fill="none" stroke="black" stroke-width="1.5" d="M915.41,-302.17C919,-297.83 922.78,-293.27 926.52,-288.76"/>
<polygon fill="black" stroke="black" stroke-width="1.5" points="928.93,-291.33 932.61,-281.4 923.54,-286.86 928.93,-291.33"/>
</g>
<!-- G4_ASHWORTH_GGGM -->
<g id="node17" class="node">
<title>G4_ASHWORTH_GGGM</title>
<g id="a_node17"><a xlink:href="https://ancestors.familysearch.org/en/PM79-G44/mary-ashworth-1689-1754" xlink:title="Mary Ashworth 🔗\nb. 1689, England\nd. 1754, VA" target="_blank">
<path fill="wheat" stroke="black" d="M1049.28,-355.25C1049.28,-355.25 980.88,-355.25 980.88,-355.25 974.88,-355.25 968.88,-349.25 968.88,-343.25 968.88,-343.25 968.88,-314.6 968.88,-314.6 968.88,-308.6 974.88,-302.6 980.88,-302.6 980.88,-302.6 1049.28,-302.6 1049.28,-302.6 1055.28,-302.6 1061.28,-308.6 1061.28,-314.6 1061.28,-314.6 1061.28,-343.25 1061.28,-343.25 1061.28,-349.25 1055.28,-355.25 1049.28,-355.25"/>
<text xml:space="preserve" text-anchor="middle" x="1015.08" y="-338.55" font-family="Arial" font-size="10.00">Mary Ashworth 🔗</text>
<text xml:space="preserve" text-anchor="middle" x="1015.08" y="-324.3" font-family="Arial" font-size="10.00">b. 1689, England</text>
<text xml:space="preserve" text-anchor="middle" x="1015.08" y="-312.3" font-family="Arial" font-size="10.00">d. 1754, VA</text>
</a>
</g>
</g>
<!-- G4_QUINN_GGGF&#45;&gt;G4_ASHWORTH_GGGM -->
<g id="edge8" class="edge">
<title>G4_QUINN_GGGF&#45;&gt;G4_ASHWORTH_GGGM</title>
<path fill="none" stroke="black" stroke-width="1.5" stroke-dasharray="5,2" d="M941.34,-328.92C950.37,-328.92 959.39,-328.92 968.41,-328.92"/>
</g>
<!-- G4_ASHWORTH_GGGM&#45;&gt;G3_QUINN_GGM -->
<g id="edge27" class="edge">
<title>G4_ASHWORTH_GGGM&#45;&gt;G3_QUINN_GGM</title>
<path fill="none" stroke="black" stroke-width="1.5" d="M994.09,-302.17C990.65,-297.95 987.04,-293.51 983.46,-289.11"/>
<polygon fill="black" stroke="black" stroke-width="1.5" points="986.21,-286.95 977.18,-281.41 980.78,-291.37 986.21,-286.95"/>
</g>
<!-- G4_WOODY_GGGF -->
<g id="node18" class="node">
<title>G4_WOODY_GGGF</title>
<g id="a_node18"><a xlink:href="https://www.wikitree.com/wiki/Woody-238" xlink:title="John Woody 🔗\nb. 1687, MA\nd. ~1719, MA" target="_blank">
<path fill="wheat" stroke="black" d="M348.65,-355.25C348.65,-355.25 291.5,-355.25 291.5,-355.25 285.5,-355.25 279.5,-349.25 279.5,-343.25 279.5,-343.25 279.5,-314.6 279.5,-314.6 279.5,-308.6 285.5,-302.6 291.5,-302.6 291.5,-302.6 348.65,-302.6 348.65,-302.6 354.65,-302.6 360.65,-308.6 360.65,-314.6 360.65,-314.6 360.65,-343.25 360.65,-343.25 360.65,-349.25 354.65,-355.25 348.65,-355.25"/>
<text xml:space="preserve" text-anchor="middle" x="320.08" y="-338.55" font-family="Arial" font-size="10.00">John Woody 🔗</text>
<text xml:space="preserve" text-anchor="middle" x="320.08" y="-324.3" font-family="Arial" font-size="10.00">b. 1687, MA</text>
<text xml:space="preserve" text-anchor="middle" x="320.08" y="-312.3" font-family="Arial" font-size="10.00">d. ~1719, MA</text>
</a>
</g>
</g>
<!-- G4_WOODY_GGGF&#45;&gt;G3_WOODY_GGF -->
<g id="edge30" class="edge">
<title>G4_WOODY_GGGF&#45;&gt;G3_WOODY_GGF</title>
<path fill="none" stroke="black" stroke-width="1.5" d="M323.57,-302.17C324.04,-298.74 324.52,-295.18 325.01,-291.61"/>
<polygon fill="black" stroke="black" stroke-width="1.5" points="328.45,-292.28 326.32,-281.9 321.51,-291.33 328.45,-292.28"/>
</g>
<!-- G4_GOWAN_GGGM -->
<g id="node19" class="node">
<title>G4_GOWAN_GGGM</title>
<path fill="wheat" stroke="black" d="M449.9,-354.12C449.9,-354.12 400.25,-354.12 400.25,-354.12 394.25,-354.12 388.25,-348.12 388.25,-342.12 388.25,-342.12 388.25,-315.72 388.25,-315.72 388.25,-309.72 394.25,-303.72 400.25,-303.72 400.25,-303.72 449.9,-303.72 449.9,-303.72 455.9,-303.72 461.9,-309.72 461.9,-315.72 461.9,-315.72 461.9,-342.12 461.9,-342.12 461.9,-348.12 455.9,-354.12 449.9,-354.12"/>
<text xml:space="preserve" text-anchor="middle" x="425.08" y="-337.42" font-family="Arial" font-size="10.00">Mary Gowan</text>
<text xml:space="preserve" text-anchor="middle" x="425.08" y="-325.42" font-family="Arial" font-size="10.00">b. ~1688, MA</text>
<text xml:space="preserve" text-anchor="middle" x="425.08" y="-313.42" font-family="Arial" font-size="10.00">d. ~1755, NC</text>
</g>
<!-- G4_WOODY_GGGF&#45;&gt;G4_GOWAN_GGGM -->
<g id="edge9" class="edge">
<title>G4_WOODY_GGGF&#45;&gt;G4_GOWAN_GGGM</title>
<path fill="none" stroke="black" stroke-width="1.5" stroke-dasharray="5,2" d="M361.09,-328.92C370.09,-328.92 379.09,-328.92 388.08,-328.92"/>
</g>
<!-- G4_GOWAN_GGGM&#45;&gt;G3_WOODY_GGF -->
<g id="edge31" class="edge">
<title>G4_GOWAN_GGGM&#45;&gt;G3_WOODY_GGF</title>
<path fill="none" stroke="black" stroke-width="1.5" d="M393.44,-303.4C386.76,-298.22 379.61,-292.68 372.6,-287.25"/>
<polygon fill="black" stroke="black" stroke-width="1.5" points="375.04,-284.71 364.99,-281.34 370.75,-290.24 375.04,-284.71"/>
</g>
<!-- G4_LINDLEY_GGGF -->
<g id="node20" class="node">
<title>G4_LINDLEY_GGGF</title>
<g id="a_node20"><a xlink:href="https://www.wikitree.com/wiki/Lindley-48" xlink:title="James Lindley 🔗\nb. 1681, Ireland\nd. 1726, PA" target="_blank">
<path fill="wheat" stroke="black" d="M78.15,-355.25C78.15,-355.25 12,-355.25 12,-355.25 6,-355.25 0,-349.25 0,-343.25 0,-343.25 0,-314.6 0,-314.6 0,-308.6 6,-302.6 12,-302.6 12,-302.6 78.15,-302.6 78.15,-302.6 84.15,-302.6 90.15,-308.6 90.15,-314.6 90.15,-314.6 90.15,-343.25 90.15,-343.25 90.15,-349.25 84.15,-355.25 78.15,-355.25"/>
<text xml:space="preserve" text-anchor="middle" x="45.08" y="-338.55" font-family="Arial" font-size="10.00">James Lindley 🔗</text>
<text xml:space="preserve" text-anchor="middle" x="45.08" y="-324.3" font-family="Arial" font-size="10.00">b. 1681, Ireland</text>
<text xml:space="preserve" text-anchor="middle" x="45.08" y="-312.3" font-family="Arial" font-size="10.00">d. 1726, PA</text>
</a>
</g>
</g>
<!-- G4_LINDLEY_GGGF&#45;&gt;G3_LINDLEY_GGM -->
<g id="edge28" class="edge">
<title>G4_LINDLEY_GGGF&#45;&gt;G3_LINDLEY_GGM</title>
<path fill="none" stroke="black" stroke-width="1.5" d="M90.36,-303.4C102.8,-296.67 116.38,-289.31 129.15,-282.39"/>
<polygon fill="black" stroke="black" stroke-width="1.5" points="130.53,-285.63 137.66,-277.79 127.2,-279.47 130.53,-285.63"/>
</g>
<!-- G4_PARKE_GGGM -->
<g id="node21" class="node">
<title>G4_PARKE_GGGM</title>
<path fill="wheat" stroke="black" d="M240.03,-354.12C240.03,-354.12 182.13,-354.12 182.13,-354.12 176.13,-354.12 170.13,-348.12 170.13,-342.12 170.13,-342.12 170.13,-315.72 170.13,-315.72 170.13,-309.72 176.13,-303.72 182.13,-303.72 182.13,-303.72 240.03,-303.72 240.03,-303.72 246.03,-303.72 252.03,-309.72 252.03,-315.72 252.03,-315.72 252.03,-342.12 252.03,-342.12 252.03,-348.12 246.03,-354.12 240.03,-354.12"/>
<text xml:space="preserve" text-anchor="middle" x="211.08" y="-337.42" font-family="Arial" font-size="10.00">Eleanor Parke</text>
<text xml:space="preserve" text-anchor="middle" x="211.08" y="-325.42" font-family="Arial" font-size="10.00">b. 1684, Ireland</text>
<text xml:space="preserve" text-anchor="middle" x="211.08" y="-313.42" font-family="Arial" font-size="10.00">d. ~1748, PA</text>
</g>
<!-- G4_LINDLEY_GGGF&#45;&gt;G4_PARKE_GGGM -->
<g id="edge10" class="edge">
<title>G4_LINDLEY_GGGF&#45;&gt;G4_PARKE_GGGM</title>
<path fill="none" stroke="black" stroke-width="1.5" stroke-dasharray="5,2" d="M90.44,-328.92C115.2,-328.92 145.64,-328.92 169.75,-328.92"/>
<text xml:space="preserve" text-anchor="middle" x="130.14" y="-333.67" font-family="Times,serif" font-size="10.00">m. 1705, Ireland</text>
</g>
<!-- G4_PARKE_GGGM&#45;&gt;G3_LINDLEY_GGM -->
<g id="edge29" class="edge">
<title>G4_PARKE_GGGM&#45;&gt;G3_LINDLEY_GGM</title>
<path fill="none" stroke="black" stroke-width="1.5" d="M201.09,-303.4C199.46,-299.4 197.74,-295.18 196.02,-290.96"/>
<polygon fill="black" stroke="black" stroke-width="1.5" points="199.4,-290 192.39,-282.06 192.92,-292.64 199.4,-290"/>
</g>
<!-- G5_WOODY_GGGGF -->
<g id="node22" class="node">
<title>G5_WOODY_GGGGF</title>
<g id="a_node22"><a xlink:href="https://www.wikitree.com/wiki/Woody-283" xlink:title="John Woody 🔗\nb. 1659, MA\nd. 1695, MA" target="_blank">
<path fill="plum" stroke="black" d="M265.65,-430.9C265.65,-430.9 208.5,-430.9 208.5,-430.9 202.5,-430.9 196.5,-424.9 196.5,-418.9 196.5,-418.9 196.5,-390.25 196.5,-390.25 196.5,-384.25 202.5,-378.25 208.5,-378.25 208.5,-378.25 265.65,-378.25 265.65,-378.25 271.65,-378.25 277.65,-384.25 277.65,-390.25 277.65,-390.25 277.65,-418.9 277.65,-418.9 277.65,-424.9 271.65,-430.9 265.65,-430.9"/>
<text xml:space="preserve" text-anchor="middle" x="237.08" y="-414.2" font-family="Arial" font-size="10.00">John Woody 🔗</text>
<text xml:space="preserve" text-anchor="middle" x="237.08" y="-399.95" font-family="Arial" font-size="10.00">b. 1659, MA</text>
<text xml:space="preserve" text-anchor="middle" x="237.08" y="-387.95" font-family="Arial" font-size="10.00">d. 1695, MA</text>
</a>
</g>
</g>
<!-- G5_WOODY_GGGGF&#45;&gt;G4_WOODY_GGGF -->
<g id="edge32" class="edge">
<title>G5_WOODY_GGGGF&#45;&gt;G4_WOODY_GGGF</title>
<path fill="none" stroke="black" stroke-width="1.5" d="M266.1,-377.82C271.32,-373.19 276.82,-368.31 282.23,-363.51"/>
<polygon fill="black" stroke="black" stroke-width="1.5" points="284.35,-366.31 289.5,-357.05 279.7,-361.07 284.35,-366.31"/>
</g>
<!-- G5_WINCHESTER_GGGGM -->
<g id="node23" class="node">
<title>G5_WINCHESTER_GGGGM</title>
<g id="a_node23"><a xlink:href="https://www.wikitree.com/wiki/Winchester-120" xlink:title="Mary Winchester 🔗\nb.\nd. ~1691" target="_blank">
<path fill="plum" stroke="black" d="M413.78,-430.9C413.78,-430.9 336.38,-430.9 336.38,-430.9 330.38,-430.9 324.38,-424.9 324.38,-418.9 324.38,-418.9 324.38,-390.25 324.38,-390.25 324.38,-384.25 330.38,-378.25 336.38,-378.25 336.38,-378.25 413.78,-378.25 413.78,-378.25 419.78,-378.25 425.78,-384.25 425.78,-390.25 425.78,-390.25 425.78,-418.9 425.78,-418.9 425.78,-424.9 419.78,-430.9 413.78,-430.9"/>
<text xml:space="preserve" text-anchor="middle" x="375.08" y="-414.2" font-family="Arial" font-size="10.00">Mary Winchester 🔗</text>
<text xml:space="preserve" text-anchor="middle" x="375.08" y="-399.95" font-family="Arial" font-size="10.00">b.</text>
<text xml:space="preserve" text-anchor="middle" x="375.08" y="-387.95" font-family="Arial" font-size="10.00">d. ~1691</text>
</a>
</g>
</g>
<!-- G5_WOODY_GGGGF&#45;&gt;G5_WINCHESTER_GGGGM -->
<g id="edge11" class="edge">
<title>G5_WOODY_GGGGF&#45;&gt;G5_WINCHESTER_GGGGM</title>
<path fill="none" stroke="black" stroke-width="1.5" stroke-dasharray="5,2" d="M278.11,-404.57C292.49,-404.57 308.82,-404.57 323.92,-404.57"/>
<text xml:space="preserve" text-anchor="middle" x="301.01" y="-409.32" font-family="Times,serif" font-size="10.00">m. 1686</text>
</g>
<!-- G5_WINCHESTER_GGGGM&#45;&gt;G4_WOODY_GGGF -->
<g id="edge33" class="edge">
<title>G5_WINCHESTER_GGGGM&#45;&gt;G4_WOODY_GGGF</title>
<path fill="none" stroke="black" stroke-width="1.5" d="M355.84,-377.82C352.77,-373.71 349.55,-369.4 346.36,-365.12"/>
<polygon fill="black" stroke="black" stroke-width="1.5" points="349.17,-363.03 340.38,-357.12 343.56,-367.22 349.17,-363.03"/>
</g>
<!-- G6_WOODY_GGGGGF -->
<g id="node24" class="node">
<title>G6_WOODY_GGGGGF</title>
<g id="a_node24"><a xlink:href="https://www.wikitree.com/wiki/Woody-795" xlink:title="Isaac Woody 🔗\nb. 1631, England\nd. ~1676, MA" target="_blank">
<path fill="lightyellow" stroke="black" d="M191.03,-506.55C191.03,-506.55 127.13,-506.55 127.13,-506.55 121.13,-506.55 115.13,-500.55 115.13,-494.55 115.13,-494.55 115.13,-465.9 115.13,-465.9 115.13,-459.9 121.13,-453.9 127.13,-453.9 127.13,-453.9 191.03,-453.9 191.03,-453.9 197.03,-453.9 203.03,-459.9 203.03,-465.9 203.03,-465.9 203.03,-494.55 203.03,-494.55 203.03,-500.55 197.03,-506.55 191.03,-506.55"/>
<text xml:space="preserve" text-anchor="middle" x="159.08" y="-489.85" font-family="Arial" font-size="10.00">Isaac Woody 🔗</text>
<text xml:space="preserve" text-anchor="middle" x="159.08" y="-475.6" font-family="Arial" font-size="10.00">b. 1631, England</text>
<text xml:space="preserve" text-anchor="middle" x="159.08" y="-463.6" font-family="Arial" font-size="10.00">d. ~1676, MA</text>
</a>
</g>
</g>
<!-- G6_WOODY_GGGGGF&#45;&gt;G5_WOODY_GGGGF -->
<g id="edge34" class="edge">
<title>G6_WOODY_GGGGGF&#45;&gt;G5_WOODY_GGGGF</title>
<path fill="none" stroke="black" stroke-width="1.5" d="M186.36,-453.47C191.13,-448.95 196.17,-444.2 201.14,-439.51"/>
<polygon fill="black" stroke="black" stroke-width="1.5" points="203.42,-442.16 208.29,-432.75 198.62,-437.07 203.42,-442.16"/>
</g>
<!-- G6_HARPER_GGGGGM -->
<g id="node25" class="node">
<title>G6_HARPER_GGGGGM</title>
<g id="a_node25"><a xlink:href="https://www.wikitree.com/wiki/Harper-1404" xlink:title="Dorcas Harper 🔗\nb. ~1636, England\nd. ~1695, MA" target="_blank">
<path fill="lightyellow" stroke="black" d="M352.03,-506.55C352.03,-506.55 282.13,-506.55 282.13,-506.55 276.13,-506.55 270.13,-500.55 270.13,-494.55 270.13,-494.55 270.13,-465.9 270.13,-465.9 270.13,-459.9 276.13,-453.9 282.13,-453.9 282.13,-453.9 352.03,-453.9 352.03,-453.9 358.03,-453.9 364.03,-459.9 364.03,-465.9 364.03,-465.9 364.03,-494.55 364.03,-494.55 364.03,-500.55 358.03,-506.55 352.03,-506.55"/>
<text xml:space="preserve" text-anchor="middle" x="317.08" y="-489.85" font-family="Arial" font-size="10.00">Dorcas Harper 🔗</text>
<text xml:space="preserve" text-anchor="middle" x="317.08" y="-475.6" font-family="Arial" font-size="10.00">b. ~1636, England</text>
<text xml:space="preserve" text-anchor="middle" x="317.08" y="-463.6" font-family="Arial" font-size="10.00">d. ~1695, MA</text>
</a>
</g>
</g>
<!-- G6_WOODY_GGGGGF&#45;&gt;G6_HARPER_GGGGGM -->
<g id="edge12" class="edge">
<title>G6_WOODY_GGGGGF&#45;&gt;G6_HARPER_GGGGGM</title>
<path fill="none" stroke="black" stroke-width="1.5" stroke-dasharray="5,2" d="M203.51,-480.22C224.14,-480.22 248.68,-480.22 269.66,-480.22"/>
<text xml:space="preserve" text-anchor="middle" x="236.58" y="-484.97" font-family="Times,serif" font-size="10.00">m. 1655, MA</text>
</g>
<!-- G6_HARPER_GGGGGM&#45;&gt;G5_WOODY_GGGGF -->
<g id="edge35" class="edge">
<title>G6_HARPER_GGGGGM&#45;&gt;G5_WOODY_GGGGF</title>
<path fill="none" stroke="black" stroke-width="1.5" d="M289.09,-453.47C284.07,-448.84 278.77,-443.96 273.55,-439.16"/>
<polygon fill="black" stroke="black" stroke-width="1.5" points="276.3,-436.93 266.57,-432.73 271.56,-442.08 276.3,-436.93"/>
</g>
</g>
</svg>
