<?xml version="1.0" encoding="UTF-8" standalone="no"?>
<!DOCTYPE svg PUBLIC "-//W3C//DTD SVG 1.1//EN"
 "http://www.w3.org/Graphics/SVG/1.1/DTD/svg11.dtd">
<!-- Generated by graphviz version 13.0.1 (20250615.1724)
 -->
<!-- Title: family_tree Pages: 1 -->
<svg width="1317pt" height="551pt"
 viewBox="7.00 7.00 1310.00 544.00" xmlns="http://www.w3.org/2000/svg" xmlns:xlink="http://www.w3.org/1999/xlink">
<g id="graph0" class="graph" transform="scale(1 1) rotate(0) translate(14.4 536.95)">
<title>family_tree</title>
<polygon fill="white" stroke="none" points="-7.2,7.2 -7.2,-529.75 1295.48,-529.75 1295.48,7.2 -7.2,7.2"/>
<!-- G0_ME -->
<g id="node1" class="node">
<title>G0_ME</title>
<g id="a_node1"><a xlink:href="https://www.wikitree.com/wiki/Powell-4847" xlink:title="Katherine Powell 🔗\nb. 1797, GA\nd. 1873, AR" target="_blank">
<path fill="gold" stroke="black" d="M916.9,-52.65C916.9,-52.65 840.25,-52.65 840.25,-52.65 834.25,-52.65 828.25,-46.65 828.25,-40.65 828.25,-40.65 828.25,-12 828.25,-12 828.25,-6 834.25,0 840.25,0 840.25,0 916.9,0 916.9,0 922.9,0 928.9,-6 928.9,-12 928.9,-12 928.9,-40.65 928.9,-40.65 928.9,-46.65 922.9,-52.65 916.9,-52.65"/>
<text xml:space="preserve" text-anchor="middle" x="878.58" y="-35.95" font-family="Arial" font-size="10.00">Katherine Powell 🔗</text>
<text xml:space="preserve" text-anchor="middle" x="878.58" y="-21.7" font-family="Arial" font-size="10.00">b. 1797, GA</text>
<text xml:space="preserve" text-anchor="middle" x="878.58" y="-9.7" font-family="Arial" font-size="10.00">d. 1873, AR</text>
</a>
</g>
</g>
<!-- G0_SPOUSE -->
<g id="node2" class="node">
<title>G0_SPOUSE</title>
<g id="a_node2"><a xlink:href="https://ancestors.familysearch.org/en/G947-VZ1/capt.-paul-satterwhite-1795-1858" xlink:title="Paul Satterwhite 🔗\nb. 1795, GA\nd. 1858, AR" target="_blank">
<path fill="gold" stroke="black" d="M1062.15,-52.65C1062.15,-52.65 987,-52.65 987,-52.65 981,-52.65 975,-46.65 975,-40.65 975,-40.65 975,-12 975,-12 975,-6 981,0 987,0 987,0 1062.15,0 1062.15,0 1068.15,0 1074.15,-6 1074.15,-12 1074.15,-12 1074.15,-40.65 1074.15,-40.65 1074.15,-46.65 1068.15,-52.65 1062.15,-52.65"/>
<text xml:space="preserve" text-anchor="middle" x="1024.58" y="-35.95" font-family="Arial" font-size="10.00">Paul Satterwhite 🔗</text>
<text xml:space="preserve" text-anchor="middle" x="1024.58" y="-21.7" font-family="Arial" font-size="10.00">b. 1795, GA</text>
<text xml:space="preserve" text-anchor="middle" x="1024.58" y="-9.7" font-family="Arial" font-size="10.00">d. 1858, AR</text>
</a>
</g>
</g>
<!-- G0_ME&#45;&gt;G0_SPOUSE -->
<g id="edge1" class="edge">
<title>G0_ME&#45;&gt;G0_SPOUSE</title>
<path fill="none" stroke="black" stroke-width="1.5" stroke-dasharray="5,2" d="M929.23,-26.32C943.89,-26.32 959.88,-26.32 974.5,-26.32"/>
<text xml:space="preserve" text-anchor="middle" x="951.95" y="-31.08" font-family="Times,serif" font-size="10.00">m. 1814</text>
</g>
<!-- G1_FATHER -->
<g id="node3" class="node">
<title>G1_FATHER</title>
<g id="a_node3"><a xlink:href="https://www.wikitree.com/wiki/Powell-2593" xlink:title="Henry W. Powell 🔗\nb. ~1767, NC\nd. ~1840, AL" target="_blank">
<path fill="lightcoral" stroke="black" d="M824.9,-136.3C824.9,-136.3 748.25,-136.3 748.25,-136.3 742.25,-136.3 736.25,-130.3 736.25,-124.3 736.25,-124.3 736.25,-95.65 736.25,-95.65 736.25,-89.65 742.25,-83.65 748.25,-83.65 748.25,-83.65 824.9,-83.65 824.9,-83.65 830.9,-83.65 836.9,-89.65 836.9,-95.65 836.9,-95.65 836.9,-124.3 836.9,-124.3 836.9,-130.3 830.9,-136.3 824.9,-136.3"/>
<text xml:space="preserve" text-anchor="middle" x="786.58" y="-119.6" font-family="Arial" font-size="10.00">Henry W. Powell 🔗</text>
<text xml:space="preserve" text-anchor="middle" x="786.58" y="-105.35" font-family="Arial" font-size="10.00">b. ~1767, NC</text>
<text xml:space="preserve" text-anchor="middle" x="786.58" y="-93.35" font-family="Arial" font-size="10.00">d. ~1840, AL</text>
</a>
</g>
</g>
<!-- G1_FATHER&#45;&gt;G0_ME -->
<g id="edge16" class="edge">
<title>G1_FATHER&#45;&gt;G0_ME</title>
<path fill="none" stroke="black" stroke-width="1.5" d="M815.43,-83.36C823.4,-76.29 832.18,-68.5 840.58,-61.04"/>
<polygon fill="black" stroke="black" stroke-width="1.5" points="842.65,-63.89 847.81,-54.63 838,-58.65 842.65,-63.89"/>
</g>
<!-- G1_MOTHER -->
<g id="node4" class="node tree&#45;connection">
<title>G1_MOTHER</title>
<g id="a_node4"><a xlink:href="https://www.wikitree.com/wiki/Pope-1042" xlink:title="Mary Elizabeth Pope 🔗\nb. 1773, NC\nd. 1831, AL" target="_blank">
<path fill="lightcoral" stroke="black" d="M1021.15,-136.3C1021.15,-136.3 922,-136.3 922,-136.3 916,-136.3 910,-130.3 910,-124.3 910,-124.3 910,-95.65 910,-95.65 910,-89.65 916,-83.65 922,-83.65 922,-83.65 1021.15,-83.65 1021.15,-83.65 1027.15,-83.65 1033.15,-89.65 1033.15,-95.65 1033.15,-95.65 1033.15,-124.3 1033.15,-124.3 1033.15,-130.3 1027.15,-136.3 1021.15,-136.3"/>
<path fill="none" stroke="black" d="M1025.15,-140.3C1025.15,-140.3 918,-140.3 918,-140.3 912,-140.3 906,-134.3 906,-128.3 906,-128.3 906,-91.65 906,-91.65 906,-85.65 912,-79.65 918,-79.65 918,-79.65 1025.15,-79.65 1025.15,-79.65 1031.15,-79.65 1037.15,-85.65 1037.15,-91.65 1037.15,-91.65 1037.15,-128.3 1037.15,-128.3 1037.15,-134.3 1031.15,-140.3 1025.15,-140.3"/>
<path fill="none" stroke="black" d="M1029.15,-144.3C1029.15,-144.3 914,-144.3 914,-144.3 908,-144.3 902,-138.3 902,-132.3 902,-132.3 902,-87.65 902,-87.65 902,-81.65 908,-75.65 914,-75.65 914,-75.65 1029.15,-75.65 1029.15,-75.65 1035.15,-75.65 1041.15,-81.65 1041.15,-87.65 1041.15,-87.65 1041.15,-132.3 1041.15,-132.3 1041.15,-138.3 1035.15,-144.3 1029.15,-144.3"/>
<text xml:space="preserve" text-anchor="middle" x="971.58" y="-119.6" font-family="Arial Bold" font-size="10.00">Mary Elizabeth Pope 🔗</text>
<text xml:space="preserve" text-anchor="middle" x="971.58" y="-105.35" font-family="Arial Bold" font-size="10.00">b. 1773, NC</text>
<text xml:space="preserve" text-anchor="middle" x="971.58" y="-93.35" font-family="Arial Bold" font-size="10.00">d. 1831, AL</text>
</a>
</g>
</g>
<!-- G1_FATHER&#45;&gt;G1_MOTHER -->
<g id="edge2" class="edge">
<title>G1_FATHER&#45;&gt;G1_MOTHER</title>
<path fill="none" stroke="black" stroke-width="1.5" stroke-dasharray="5,2" d="M837.13,-109.98C857.03,-109.98 880.21,-109.98 901.67,-109.98"/>
<text xml:space="preserve" text-anchor="middle" x="869.45" y="-114.73" font-family="Times,serif" font-size="10.00">m. 1792, NC</text>
</g>
<!-- G1_MOTHER&#45;&gt;G0_ME -->
<g id="edge17" class="edge">
<title>G1_MOTHER&#45;&gt;G0_ME</title>
<path fill="none" stroke="black" stroke-width="1.5" d="M933.21,-75.29C927.76,-70.51 922.16,-65.59 916.71,-60.81"/>
<polygon fill="black" stroke="black" stroke-width="1.5" points="919.29,-58.41 909.46,-54.44 914.67,-63.67 919.29,-58.41"/>
</g>
<!-- G2_PATERNAL_GF -->
<g id="node5" class="node">
<title>G2_PATERNAL_GF</title>
<g id="a_node5"><a xlink:href="https://www.wikitree.com/wiki/Powell-2608" xlink:title="Moses Rascow Powell 🔗\nb. ~1725, VA\nd. ~1799, NC" target="_blank">
<path fill="lightsteelblue" stroke="black" d="M749.4,-219.95C749.4,-219.95 645.75,-219.95 645.75,-219.95 639.75,-219.95 633.75,-213.95 633.75,-207.95 633.75,-207.95 633.75,-179.3 633.75,-179.3 633.75,-173.3 639.75,-167.3 645.75,-167.3 645.75,-167.3 749.4,-167.3 749.4,-167.3 755.4,-167.3 761.4,-173.3 761.4,-179.3 761.4,-179.3 761.4,-207.95 761.4,-207.95 761.4,-213.95 755.4,-219.95 749.4,-219.95"/>
<text xml:space="preserve" text-anchor="middle" x="697.58" y="-203.25" font-family="Arial" font-size="10.00">Moses Rascow Powell 🔗</text>
<text xml:space="preserve" text-anchor="middle" x="697.58" y="-189" font-family="Arial" font-size="10.00">b. ~1725, VA</text>
<text xml:space="preserve" text-anchor="middle" x="697.58" y="-177" font-family="Arial" font-size="10.00">d. ~1799, NC</text>
</a>
</g>
</g>
<!-- G2_PATERNAL_GF&#45;&gt;G1_FATHER -->
<g id="edge18" class="edge">
<title>G2_PATERNAL_GF&#45;&gt;G1_FATHER</title>
<path fill="none" stroke="black" stroke-width="1.5" d="M725.25,-167.24C732.96,-160.16 741.46,-152.36 749.62,-144.88"/>
<polygon fill="black" stroke="black" stroke-width="1.5" points="751.94,-147.5 756.94,-138.16 747.21,-142.34 751.94,-147.5"/>
</g>
<!-- G2_PATERNAL_GM -->
<g id="node6" class="node">
<title>G2_PATERNAL_GM</title>
<g id="a_node6"><a xlink:href="https://www.wikitree.com/wiki/Garner-1293" xlink:title="Prudence Garner 🔗\nb. ~1737, VA\nd. 1814, NC" target="_blank">
<path fill="lightsteelblue" stroke="black" d="M930.9,-219.95C930.9,-219.95 854.25,-219.95 854.25,-219.95 848.25,-219.95 842.25,-213.95 842.25,-207.95 842.25,-207.95 842.25,-179.3 842.25,-179.3 842.25,-173.3 848.25,-167.3 854.25,-167.3 854.25,-167.3 930.9,-167.3 930.9,-167.3 936.9,-167.3 942.9,-173.3 942.9,-179.3 942.9,-179.3 942.9,-207.95 942.9,-207.95 942.9,-213.95 936.9,-219.95 930.9,-219.95"/>
<text xml:space="preserve" text-anchor="middle" x="892.58" y="-203.25" font-family="Arial" font-size="10.00">Prudence Garner 🔗</text>
<text xml:space="preserve" text-anchor="middle" x="892.58" y="-189" font-family="Arial" font-size="10.00">b. ~1737, VA</text>
<text xml:space="preserve" text-anchor="middle" x="892.58" y="-177" font-family="Arial" font-size="10.00">d. 1814, NC</text>
</a>
</g>
</g>
<!-- G2_PATERNAL_GF&#45;&gt;G2_PATERNAL_GM -->
<g id="edge3" class="edge">
<title>G2_PATERNAL_GF&#45;&gt;G2_PATERNAL_GM</title>
<path fill="none" stroke="black" stroke-width="1.5" stroke-dasharray="5,2" d="M761.7,-193.62C787.78,-193.62 817.49,-193.62 842.01,-193.62"/>
<text xml:space="preserve" text-anchor="middle" x="801.83" y="-198.38" font-family="Times,serif" font-size="10.00">m. 1760, VA</text>
</g>
<!-- G2_PATERNAL_GM&#45;&gt;G1_FATHER -->
<g id="edge19" class="edge">
<title>G2_PATERNAL_GM&#45;&gt;G1_FATHER</title>
<path fill="none" stroke="black" stroke-width="1.5" d="M859.33,-167.01C849.95,-159.79 839.6,-151.82 829.73,-144.22"/>
<polygon fill="black" stroke="black" stroke-width="1.5" points="831.93,-141.49 821.87,-138.16 827.65,-147.04 831.93,-141.49"/>
</g>
<!-- G3_POWELL_GGF -->
<g id="node7" class="node">
<title>G3_POWELL_GGF</title>
<g id="a_node7"><a xlink:href="https://www.wikitree.com/wiki/Powell-3674" xlink:title="John Thomas Powell 🔗\nb. ~1695, VA\nd. 1762, VA" target="_blank">
<path fill="lightgreen" stroke="black" d="M488.53,-295.6C488.53,-295.6 394.63,-295.6 394.63,-295.6 388.63,-295.6 382.63,-289.6 382.63,-283.6 382.63,-283.6 382.63,-254.95 382.63,-254.95 382.63,-248.95 388.63,-242.95 394.63,-242.95 394.63,-242.95 488.53,-242.95 488.53,-242.95 494.53,-242.95 500.53,-248.95 500.53,-254.95 500.53,-254.95 500.53,-283.6 500.53,-283.6 500.53,-289.6 494.53,-295.6 488.53,-295.6"/>
<text xml:space="preserve" text-anchor="middle" x="441.58" y="-278.9" font-family="Arial" font-size="10.00">John Thomas Powell 🔗</text>
<text xml:space="preserve" text-anchor="middle" x="441.58" y="-264.65" font-family="Arial" font-size="10.00">b. ~1695, VA</text>
<text xml:space="preserve" text-anchor="middle" x="441.58" y="-252.65" font-family="Arial" font-size="10.00">d. 1762, VA</text>
</a>
</g>
</g>
<!-- G3_POWELL_GGF&#45;&gt;G2_PATERNAL_GF -->
<g id="edge20" class="edge">
<title>G3_POWELL_GGF&#45;&gt;G2_PATERNAL_GF</title>
<path fill="none" stroke="black" stroke-width="1.5" d="M500.95,-251.19C536.96,-240.83 583.25,-227.52 621.87,-216.4"/>
<polygon fill="black" stroke="black" stroke-width="1.5" points="622.77,-219.79 631.41,-213.66 620.83,-213.06 622.77,-219.79"/>
</g>
<!-- G3_MURRELL_GGM -->
<g id="node8" class="node">
<title>G3_MURRELL_GGM</title>
<g id="a_node8"><a xlink:href="https://www.wikitree.com/wiki/Murrell-128" xlink:title="Alice Murrell 🔗\nb. ~1705, VA\nd. 1766, VA" target="_blank">
<path fill="lightgreen" stroke="black" d="M726.15,-295.6C726.15,-295.6 669,-295.6 669,-295.6 663,-295.6 657,-289.6 657,-283.6 657,-283.6 657,-254.95 657,-254.95 657,-248.95 663,-242.95 669,-242.95 669,-242.95 726.15,-242.95 726.15,-242.95 732.15,-242.95 738.15,-248.95 738.15,-254.95 738.15,-254.95 738.15,-283.6 738.15,-283.6 738.15,-289.6 732.15,-295.6 726.15,-295.6"/>
<text xml:space="preserve" text-anchor="middle" x="697.58" y="-278.9" font-family="Arial" font-size="10.00">Alice Murrell 🔗</text>
<text xml:space="preserve" text-anchor="middle" x="697.58" y="-264.65" font-family="Arial" font-size="10.00">b. ~1705, VA</text>
<text xml:space="preserve" text-anchor="middle" x="697.58" y="-252.65" font-family="Arial" font-size="10.00">d. 1766, VA</text>
</a>
</g>
</g>
<!-- G3_POWELL_GGF&#45;&gt;G3_MURRELL_GGM -->
<g id="edge4" class="edge">
<title>G3_POWELL_GGF&#45;&gt;G3_MURRELL_GGM</title>
<path fill="none" stroke="black" stroke-width="1.5" stroke-dasharray="5,2" d="M500.95,-269.27C548.81,-269.27 614.83,-269.27 656.87,-269.27"/>
<text xml:space="preserve" text-anchor="middle" x="578.76" y="-274.02" font-family="Times,serif" font-size="10.00">m. 1724, VA</text>
</g>
<!-- G3_MURRELL_GGM&#45;&gt;G2_PATERNAL_GF -->
<g id="edge21" class="edge">
<title>G3_MURRELL_GGM&#45;&gt;G2_PATERNAL_GF</title>
<path fill="none" stroke="black" stroke-width="1.5" d="M697.58,-242.52C697.58,-239.09 697.58,-235.53 697.58,-231.96"/>
<polygon fill="black" stroke="black" stroke-width="1.5" points="701.08,-232.27 697.58,-222.27 694.08,-232.27 701.08,-232.27"/>
</g>
<!-- G3_GARNER_GGF -->
<g id="node9" class="node">
<title>G3_GARNER_GGF</title>
<g id="a_node9"><a xlink:href="https://www.wikitree.com/wiki/Garner-1292" xlink:title="Joseph Garner 🔗\nb. ~1705, VA\nd. 1772, NC" target="_blank">
<path fill="lightgreen" stroke="black" d="M926.03,-295.6C926.03,-295.6 859.12,-295.6 859.12,-295.6 853.12,-295.6 847.12,-289.6 847.12,-283.6 847.12,-283.6 847.12,-254.95 847.12,-254.95 847.12,-248.95 853.12,-242.95 859.12,-242.95 859.12,-242.95 926.03,-242.95 926.03,-242.95 932.03,-242.95 938.03,-248.95 938.03,-254.95 938.03,-254.95 938.03,-283.6 938.03,-283.6 938.03,-289.6 932.03,-295.6 926.03,-295.6"/>
<text xml:space="preserve" text-anchor="middle" x="892.58" y="-278.9" font-family="Arial" font-size="10.00">Joseph Garner 🔗</text>
<text xml:space="preserve" text-anchor="middle" x="892.58" y="-264.65" font-family="Arial" font-size="10.00">b. ~1705, VA</text>
<text xml:space="preserve" text-anchor="middle" x="892.58" y="-252.65" font-family="Arial" font-size="10.00">d. 1772, NC</text>
</a>
</g>
</g>
<!-- G3_GARNER_GGF&#45;&gt;G2_PATERNAL_GM -->
<g id="edge22" class="edge">
<title>G3_GARNER_GGF&#45;&gt;G2_PATERNAL_GM</title>
<path fill="none" stroke="black" stroke-width="1.5" d="M892.58,-242.52C892.58,-239.09 892.58,-235.53 892.58,-231.96"/>
<polygon fill="black" stroke="black" stroke-width="1.5" points="896.08,-232.27 892.58,-222.27 889.08,-232.27 896.08,-232.27"/>
</g>
<!-- G3_JOYNER_GGM -->
<g id="node10" class="node">
<title>G3_JOYNER_GGM</title>
<g id="a_node10"><a xlink:href="https://www.wikitree.com/wiki/Joyner-157" xlink:title="Prudence Joyner 🔗\nb. 1705, VA\nd. 1740, VA" target="_blank">
<path fill="lightgreen" stroke="black" d="M1149.9,-295.6C1149.9,-295.6 1073.25,-295.6 1073.25,-295.6 1067.25,-295.6 1061.25,-289.6 1061.25,-283.6 1061.25,-283.6 1061.25,-254.95 1061.25,-254.95 1061.25,-248.95 1067.25,-242.95 1073.25,-242.95 1073.25,-242.95 1149.9,-242.95 1149.9,-242.95 1155.9,-242.95 1161.9,-248.95 1161.9,-254.95 1161.9,-254.95 1161.9,-283.6 1161.9,-283.6 1161.9,-289.6 1155.9,-295.6 1149.9,-295.6"/>
<text xml:space="preserve" text-anchor="middle" x="1111.58" y="-278.9" font-family="Arial" font-size="10.00">Prudence Joyner 🔗</text>
<text xml:space="preserve" text-anchor="middle" x="1111.58" y="-264.65" font-family="Arial" font-size="10.00">b. 1705, VA</text>
<text xml:space="preserve" text-anchor="middle" x="1111.58" y="-252.65" font-family="Arial" font-size="10.00">d. 1740, VA</text>
</a>
</g>
</g>
<!-- G3_GARNER_GGF&#45;&gt;G3_JOYNER_GGM -->
<g id="edge5" class="edge">
<title>G3_GARNER_GGF&#45;&gt;G3_JOYNER_GGM</title>
<path fill="none" stroke="black" stroke-width="1.5" stroke-dasharray="5,2" d="M938.48,-269.27C974.23,-269.27 1023.81,-269.27 1060.75,-269.27"/>
<text xml:space="preserve" text-anchor="middle" x="999.64" y="-274.02" font-family="Times,serif" font-size="10.00">m. ~1722</text>
</g>
<!-- G3_JOYNER_GGM&#45;&gt;G2_PATERNAL_GM -->
<g id="edge23" class="edge">
<title>G3_JOYNER_GGM&#45;&gt;G2_PATERNAL_GM</title>
<path fill="none" stroke="black" stroke-width="1.5" d="M1060.78,-251.19C1029.13,-240.55 988.2,-226.78 954.63,-215.49"/>
<polygon fill="black" stroke="black" stroke-width="1.5" points="955.84,-212.21 945.24,-212.34 953.61,-218.84 955.84,-212.21"/>
</g>
<!-- G4_JAMES_GGGM -->
<g id="node11" class="node">
<title>G4_JAMES_GGGM</title>
<g id="a_node11"><a xlink:href="https://www.wikitree.com/wiki/James-24808" xlink:title="Elizabeth James 🔗\nb. ~1666, VA\nd. ~1748, VA" target="_blank">
<path fill="wheat" stroke="black" d="M896.53,-371.25C896.53,-371.25 820.62,-371.25 820.62,-371.25 814.62,-371.25 808.62,-365.25 808.62,-359.25 808.62,-359.25 808.62,-330.6 808.62,-330.6 808.62,-324.6 814.62,-318.6 820.62,-318.6 820.62,-318.6 896.53,-318.6 896.53,-318.6 902.53,-318.6 908.53,-324.6 908.53,-330.6 908.53,-330.6 908.53,-359.25 908.53,-359.25 908.53,-365.25 902.53,-371.25 896.53,-371.25"/>
<text xml:space="preserve" text-anchor="middle" x="858.58" y="-354.55" font-family="Arial" font-size="10.00">Elizabeth James 🔗</text>
<text xml:space="preserve" text-anchor="middle" x="858.58" y="-340.3" font-family="Arial" font-size="10.00">b. ~1666, VA</text>
<text xml:space="preserve" text-anchor="middle" x="858.58" y="-328.3" font-family="Arial" font-size="10.00">d. ~1748, VA</text>
</a>
</g>
</g>
<!-- G4_JAMES_GGGM&#45;&gt;G3_GARNER_GGF -->
<g id="edge29" class="edge">
<title>G4_JAMES_GGGM&#45;&gt;G3_GARNER_GGF</title>
<path fill="none" stroke="black" stroke-width="1.5" d="M870.47,-318.17C872.2,-314.4 874.02,-310.47 875.83,-306.54"/>
<polygon fill="black" stroke="black" stroke-width="1.5" points="878.9,-308.25 879.91,-297.71 872.54,-305.32 878.9,-308.25"/>
</g>
<!-- G4_GARNER_GGGF -->
<g id="node12" class="node">
<title>G4_GARNER_GGGF</title>
<g id="a_node12"><a xlink:href="https://www.wikitree.com/wiki/Garner-7084" xlink:title="James Garner 🔗\nb. ~1663, VA\nd. ~1748, VA" target="_blank">
<path fill="wheat" stroke="black" d="M1031.9,-371.25C1031.9,-371.25 967.25,-371.25 967.25,-371.25 961.25,-371.25 955.25,-365.25 955.25,-359.25 955.25,-359.25 955.25,-330.6 955.25,-330.6 955.25,-324.6 961.25,-318.6 967.25,-318.6 967.25,-318.6 1031.9,-318.6 1031.9,-318.6 1037.9,-318.6 1043.9,-324.6 1043.9,-330.6 1043.9,-330.6 1043.9,-359.25 1043.9,-359.25 1043.9,-365.25 1037.9,-371.25 1031.9,-371.25"/>
<text xml:space="preserve" text-anchor="middle" x="999.58" y="-354.55" font-family="Arial" font-size="10.00">James Garner 🔗</text>
<text xml:space="preserve" text-anchor="middle" x="999.58" y="-340.3" font-family="Arial" font-size="10.00">b. ~1663, VA</text>
<text xml:space="preserve" text-anchor="middle" x="999.58" y="-328.3" font-family="Arial" font-size="10.00">d. ~1748, VA</text>
</a>
</g>
</g>
<!-- G4_JAMES_GGGM&#45;&gt;G4_GARNER_GGGF -->
<g id="edge6" class="edge">
<title>G4_JAMES_GGGM&#45;&gt;G4_GARNER_GGGF</title>
<path fill="none" stroke="black" stroke-width="1.5" stroke-dasharray="5,2" d="M908.68,-344.92C923.72,-344.92 940.12,-344.92 954.79,-344.92"/>
<text xml:space="preserve" text-anchor="middle" x="931.89" y="-349.67" font-family="Times,serif" font-size="10.00">m. 1684</text>
</g>
<!-- G4_GARNER_GGGF&#45;&gt;G3_GARNER_GGF -->
<g id="edge28" class="edge">
<title>G4_GARNER_GGGF&#45;&gt;G3_GARNER_GGF</title>
<path fill="none" stroke="black" stroke-width="1.5" d="M962.15,-318.17C954.94,-313.2 947.3,-307.95 939.83,-302.8"/>
<polygon fill="black" stroke="black" stroke-width="1.5" points="941.89,-299.97 931.67,-297.18 937.92,-305.74 941.89,-299.97"/>
</g>
<!-- G4_JOYNER_GGGF -->
<g id="node13" class="node">
<title>G4_JOYNER_GGGF</title>
<g id="a_node13"><a xlink:href="https://www.wikitree.com/wiki/Joyner-1515" xlink:title="Theophilus Joyner 🔗\nb. 1660, VA\nd. 1739, VA" target="_blank">
<path fill="wheat" stroke="black" d="M1152.9,-371.25C1152.9,-371.25 1070.25,-371.25 1070.25,-371.25 1064.25,-371.25 1058.25,-365.25 1058.25,-359.25 1058.25,-359.25 1058.25,-330.6 1058.25,-330.6 1058.25,-324.6 1064.25,-318.6 1070.25,-318.6 1070.25,-318.6 1152.9,-318.6 1152.9,-318.6 1158.9,-318.6 1164.9,-324.6 1164.9,-330.6 1164.9,-330.6 1164.9,-359.25 1164.9,-359.25 1164.9,-365.25 1158.9,-371.25 1152.9,-371.25"/>
<text xml:space="preserve" text-anchor="middle" x="1111.58" y="-354.55" font-family="Arial" font-size="10.00">Theophilus Joyner 🔗</text>
<text xml:space="preserve" text-anchor="middle" x="1111.58" y="-340.3" font-family="Arial" font-size="10.00">b. 1660, VA</text>
<text xml:space="preserve" text-anchor="middle" x="1111.58" y="-328.3" font-family="Arial" font-size="10.00">d. 1739, VA</text>
</a>
</g>
</g>
<!-- G4_JOYNER_GGGF&#45;&gt;G3_JOYNER_GGM -->
<g id="edge30" class="edge">
<title>G4_JOYNER_GGGF&#45;&gt;G3_JOYNER_GGM</title>
<path fill="none" stroke="black" stroke-width="1.5" d="M1111.58,-318.17C1111.58,-314.74 1111.58,-311.18 1111.58,-307.61"/>
<polygon fill="black" stroke="black" stroke-width="1.5" points="1115.08,-307.92 1111.58,-297.92 1108.08,-307.92 1115.08,-307.92"/>
</g>
<!-- G4_GRIFFIN_GGGM -->
<g id="node14" class="node">
<title>G4_GRIFFIN_GGGM</title>
<g id="a_node14"><a xlink:href="https://www.wikitree.com/wiki/Griffin-1272" xlink:title="Henrietta Griffin 🔗\nb. 1670, VA\nd. 1750, VA" target="_blank">
<path fill="wheat" stroke="black" d="M1276.28,-371.25C1276.28,-371.25 1204.88,-371.25 1204.88,-371.25 1198.88,-371.25 1192.88,-365.25 1192.88,-359.25 1192.88,-359.25 1192.88,-330.6 1192.88,-330.6 1192.88,-324.6 1198.88,-318.6 1204.88,-318.6 1204.88,-318.6 1276.28,-318.6 1276.28,-318.6 1282.28,-318.6 1288.28,-324.6 1288.28,-330.6 1288.28,-330.6 1288.28,-359.25 1288.28,-359.25 1288.28,-365.25 1282.28,-371.25 1276.28,-371.25"/>
<text xml:space="preserve" text-anchor="middle" x="1240.58" y="-354.55" font-family="Arial" font-size="10.00">Henrietta Griffin 🔗</text>
<text xml:space="preserve" text-anchor="middle" x="1240.58" y="-340.3" font-family="Arial" font-size="10.00">b. 1670, VA</text>
<text xml:space="preserve" text-anchor="middle" x="1240.58" y="-328.3" font-family="Arial" font-size="10.00">d. 1750, VA</text>
</a>
</g>
</g>
<!-- G4_JOYNER_GGGF&#45;&gt;G4_GRIFFIN_GGGM -->
<g id="edge7" class="edge">
<title>G4_JOYNER_GGGF&#45;&gt;G4_GRIFFIN_GGGM</title>
<path fill="none" stroke="black" stroke-width="1.5" stroke-dasharray="5,2" d="M1165.24,-344.92C1174.36,-344.92 1183.49,-344.92 1192.61,-344.92"/>
</g>
<!-- G4_GRIFFIN_GGGM&#45;&gt;G3_JOYNER_GGM -->
<g id="edge31" class="edge">
<title>G4_GRIFFIN_GGGM&#45;&gt;G3_JOYNER_GGM</title>
<path fill="none" stroke="black" stroke-width="1.5" d="M1195.46,-318.17C1186.27,-312.92 1176.51,-307.35 1167.01,-301.93"/>
<polygon fill="black" stroke="black" stroke-width="1.5" points="1168.84,-298.94 1158.42,-297.02 1165.37,-305.02 1168.84,-298.94"/>
</g>
<!-- G4_POWELL_GGGF -->
<g id="node15" class="node">
<title>G4_POWELL_GGGF</title>
<g id="a_node15"><a xlink:href="https://www.wikitree.com/wiki/Powell-2189" xlink:title="John Powell 🔗\nb. ~1670, VA\nd. ~1731, VA" target="_blank">
<path fill="wheat" stroke="black" d="M349.78,-371.25C349.78,-371.25 293.38,-371.25 293.38,-371.25 287.38,-371.25 281.38,-365.25 281.38,-359.25 281.38,-359.25 281.38,-330.6 281.38,-330.6 281.38,-324.6 287.38,-318.6 293.38,-318.6 293.38,-318.6 349.78,-318.6 349.78,-318.6 355.78,-318.6 361.78,-324.6 361.78,-330.6 361.78,-330.6 361.78,-359.25 361.78,-359.25 361.78,-365.25 355.78,-371.25 349.78,-371.25"/>
<text xml:space="preserve" text-anchor="middle" x="321.58" y="-354.55" font-family="Arial" font-size="10.00">John Powell 🔗</text>
<text xml:space="preserve" text-anchor="middle" x="321.58" y="-340.3" font-family="Arial" font-size="10.00">b. ~1670, VA</text>
<text xml:space="preserve" text-anchor="middle" x="321.58" y="-328.3" font-family="Arial" font-size="10.00">d. ~1731, VA</text>
</a>
</g>
</g>
<!-- G4_POWELL_GGGF&#45;&gt;G3_POWELL_GGF -->
<g id="edge24" class="edge">
<title>G4_POWELL_GGGF&#45;&gt;G3_POWELL_GGF</title>
<path fill="none" stroke="black" stroke-width="1.5" d="M362.2,-318.99C371,-313.59 380.41,-307.81 389.57,-302.19"/>
<polygon fill="black" stroke="black" stroke-width="1.5" points="391.14,-305.34 397.83,-297.12 387.47,-299.37 391.14,-305.34"/>
</g>
<!-- G4_TURNER_GGGM -->
<g id="node16" class="node">
<title>G4_TURNER_GGGM</title>
<g id="a_node16"><a xlink:href="https://www.wikitree.com/wiki/Turner-3598" xlink:title="Michall Turner 🔗\nb. ~1675\nd. ~1775, VA" target="_blank">
<path fill="wheat" stroke="black" d="M473.53,-371.25C473.53,-371.25 409.63,-371.25 409.63,-371.25 403.63,-371.25 397.63,-365.25 397.63,-359.25 397.63,-359.25 397.63,-330.6 397.63,-330.6 397.63,-324.6 403.63,-318.6 409.63,-318.6 409.63,-318.6 473.53,-318.6 473.53,-318.6 479.53,-318.6 485.53,-324.6 485.53,-330.6 485.53,-330.6 485.53,-359.25 485.53,-359.25 485.53,-365.25 479.53,-371.25 473.53,-371.25"/>
<text xml:space="preserve" text-anchor="middle" x="441.58" y="-354.55" font-family="Arial" font-size="10.00">Michall Turner 🔗</text>
<text xml:space="preserve" text-anchor="middle" x="441.58" y="-340.3" font-family="Arial" font-size="10.00">b. ~1675</text>
<text xml:space="preserve" text-anchor="middle" x="441.58" y="-328.3" font-family="Arial" font-size="10.00">d. ~1775, VA</text>
</a>
</g>
</g>
<!-- G4_POWELL_GGGF&#45;&gt;G4_TURNER_GGGM -->
<g id="edge8" class="edge">
<title>G4_POWELL_GGGF&#45;&gt;G4_TURNER_GGGM</title>
<path fill="none" stroke="black" stroke-width="1.5" stroke-dasharray="5,2" d="M361.89,-344.92C373.72,-344.92 385.54,-344.92 397.37,-344.92"/>
</g>
<!-- G4_TURNER_GGGM&#45;&gt;G3_POWELL_GGF -->
<g id="edge25" class="edge">
<title>G4_TURNER_GGGM&#45;&gt;G3_POWELL_GGF</title>
<path fill="none" stroke="black" stroke-width="1.5" d="M441.58,-318.17C441.58,-314.74 441.58,-311.18 441.58,-307.61"/>
<polygon fill="black" stroke="black" stroke-width="1.5" points="445.08,-307.92 441.58,-297.92 438.08,-307.92 445.08,-307.92"/>
</g>
<!-- G4_MURRELL_GGGF -->
<g id="node17" class="node">
<title>G4_MURRELL_GGGF</title>
<g id="a_node17"><a xlink:href="https://www.wikitree.com/wiki/Murrell-1704" xlink:title="George Murrell 🔗\nb. ~1679, VA\nd. ~1730, VA" target="_blank">
<path fill="wheat" stroke="black" d="M673.03,-371.25C673.03,-371.25 606.12,-371.25 606.12,-371.25 600.12,-371.25 594.12,-365.25 594.12,-359.25 594.12,-359.25 594.12,-330.6 594.12,-330.6 594.12,-324.6 600.12,-318.6 606.12,-318.6 606.12,-318.6 673.03,-318.6 673.03,-318.6 679.03,-318.6 685.03,-324.6 685.03,-330.6 685.03,-330.6 685.03,-359.25 685.03,-359.25 685.03,-365.25 679.03,-371.25 673.03,-371.25"/>
<text xml:space="preserve" text-anchor="middle" x="639.58" y="-354.55" font-family="Arial" font-size="10.00">George Murrell 🔗</text>
<text xml:space="preserve" text-anchor="middle" x="639.58" y="-340.3" font-family="Arial" font-size="10.00">b. ~1679, VA</text>
<text xml:space="preserve" text-anchor="middle" x="639.58" y="-328.3" font-family="Arial" font-size="10.00">d. ~1730, VA</text>
</a>
</g>
</g>
<!-- G4_MURRELL_GGGF&#45;&gt;G3_MURRELL_GGM -->
<g id="edge26" class="edge">
<title>G4_MURRELL_GGGF&#45;&gt;G3_MURRELL_GGM</title>
<path fill="none" stroke="black" stroke-width="1.5" d="M659.86,-318.17C663.18,-313.95 666.68,-309.51 670.14,-305.11"/>
<polygon fill="black" stroke="black" stroke-width="1.5" points="672.75,-307.45 676.19,-297.43 667.25,-303.12 672.75,-307.45"/>
</g>
<!-- G4_WATERS_GGGM -->
<g id="node18" class="node">
<title>G4_WATERS_GGGM</title>
<g id="a_node18"><a xlink:href="https://www.wikitree.com/wiki/Waters-11315" xlink:title="Mary Waters 🔗\nb. ~1685, VA\nd. ~1730, VA" target="_blank">
<path fill="wheat" stroke="black" d="M782.9,-371.25C782.9,-371.25 724.25,-371.25 724.25,-371.25 718.25,-371.25 712.25,-365.25 712.25,-359.25 712.25,-359.25 712.25,-330.6 712.25,-330.6 712.25,-324.6 718.25,-318.6 724.25,-318.6 724.25,-318.6 782.9,-318.6 782.9,-318.6 788.9,-318.6 794.9,-324.6 794.9,-330.6 794.9,-330.6 794.9,-359.25 794.9,-359.25 794.9,-365.25 788.9,-371.25 782.9,-371.25"/>
<text xml:space="preserve" text-anchor="middle" x="753.58" y="-354.55" font-family="Arial" font-size="10.00">Mary Waters 🔗</text>
<text xml:space="preserve" text-anchor="middle" x="753.58" y="-340.3" font-family="Arial" font-size="10.00">b. ~1685, VA</text>
<text xml:space="preserve" text-anchor="middle" x="753.58" y="-328.3" font-family="Arial" font-size="10.00">d. ~1730, VA</text>
</a>
</g>
</g>
<!-- G4_MURRELL_GGGF&#45;&gt;G4_WATERS_GGGM -->
<g id="edge9" class="edge">
<title>G4_MURRELL_GGGF&#45;&gt;G4_WATERS_GGGM</title>
<path fill="none" stroke="black" stroke-width="1.5" stroke-dasharray="5,2" d="M685.44,-344.92C694.22,-344.92 703.01,-344.92 711.79,-344.92"/>
</g>
<!-- G4_WATERS_GGGM&#45;&gt;G3_MURRELL_GGM -->
<g id="edge27" class="edge">
<title>G4_WATERS_GGGM&#45;&gt;G3_MURRELL_GGM</title>
<path fill="none" stroke="black" stroke-width="1.5" d="M733.99,-318.17C730.78,-313.95 727.41,-309.51 724.06,-305.11"/>
<polygon fill="black" stroke="black" stroke-width="1.5" points="727.08,-303.3 718.24,-297.45 721.51,-307.53 727.08,-303.3"/>
</g>
<!-- G5_WATERS_GGGGF -->
<g id="node19" class="node">
<title>G5_WATERS_GGGGF</title>
<g id="a_node19"><a xlink:href="https://www.wikitree.com/wiki/Waters-9328" xlink:title="Walter Waters 🔗\nb. ~1662, VA\nd. 1732, VA" target="_blank">
<path fill="plum" stroke="black" d="M785.9,-446.9C785.9,-446.9 721.25,-446.9 721.25,-446.9 715.25,-446.9 709.25,-440.9 709.25,-434.9 709.25,-434.9 709.25,-406.25 709.25,-406.25 709.25,-400.25 715.25,-394.25 721.25,-394.25 721.25,-394.25 785.9,-394.25 785.9,-394.25 791.9,-394.25 797.9,-400.25 797.9,-406.25 797.9,-406.25 797.9,-434.9 797.9,-434.9 797.9,-440.9 791.9,-446.9 785.9,-446.9"/>
<text xml:space="preserve" text-anchor="middle" x="753.58" y="-430.2" font-family="Arial" font-size="10.00">Walter Waters 🔗</text>
<text xml:space="preserve" text-anchor="middle" x="753.58" y="-415.95" font-family="Arial" font-size="10.00">b. ~1662, VA</text>
<text xml:space="preserve" text-anchor="middle" x="753.58" y="-403.95" font-family="Arial" font-size="10.00">d. 1732, VA</text>
</a>
</g>
</g>
<!-- G5_WATERS_GGGGF&#45;&gt;G4_WATERS_GGGM -->
<g id="edge39" class="edge">
<title>G5_WATERS_GGGGF&#45;&gt;G4_WATERS_GGGM</title>
<path fill="none" stroke="black" stroke-width="1.5" d="M753.58,-393.82C753.58,-390.39 753.58,-386.83 753.58,-383.26"/>
<polygon fill="black" stroke="black" stroke-width="1.5" points="757.08,-383.57 753.58,-373.57 750.08,-383.57 757.08,-383.57"/>
</g>
<!-- G5_LARAMORE -->
<g id="node20" class="node">
<title>G5_LARAMORE</title>
<g id="a_node20"><a xlink:href="https://www.wikitree.com/wiki/Laramore-9" xlink:title="Alice Laramore 🔗\nb. 1664, VA\nd. 1734, VA" target="_blank">
<path fill="plum" stroke="black" d="M905.78,-446.9C905.78,-446.9 837.38,-446.9 837.38,-446.9 831.38,-446.9 825.38,-440.9 825.38,-434.9 825.38,-434.9 825.38,-406.25 825.38,-406.25 825.38,-400.25 831.38,-394.25 837.38,-394.25 837.38,-394.25 905.78,-394.25 905.78,-394.25 911.78,-394.25 917.78,-400.25 917.78,-406.25 917.78,-406.25 917.78,-434.9 917.78,-434.9 917.78,-440.9 911.78,-446.9 905.78,-446.9"/>
<text xml:space="preserve" text-anchor="middle" x="871.58" y="-430.2" font-family="Arial" font-size="10.00">Alice Laramore 🔗</text>
<text xml:space="preserve" text-anchor="middle" x="871.58" y="-415.95" font-family="Arial" font-size="10.00">b. 1664, VA</text>
<text xml:space="preserve" text-anchor="middle" x="871.58" y="-403.95" font-family="Arial" font-size="10.00">d. 1734, VA</text>
</a>
</g>
</g>
<!-- G5_WATERS_GGGGF&#45;&gt;G5_LARAMORE -->
<g id="edge10" class="edge">
<title>G5_WATERS_GGGGF&#45;&gt;G5_LARAMORE</title>
<path fill="none" stroke="black" stroke-width="1.5" stroke-dasharray="5,2" d="M798.29,-420.57C807.16,-420.57 816.04,-420.57 824.91,-420.57"/>
</g>
<!-- G5_LARAMORE&#45;&gt;G4_WATERS_GGGM -->
<g id="edge40" class="edge">
<title>G5_LARAMORE&#45;&gt;G4_WATERS_GGGM</title>
<path fill="none" stroke="black" stroke-width="1.5" d="M830.3,-393.82C822.08,-388.68 813.36,-383.24 804.85,-377.93"/>
<polygon fill="black" stroke="black" stroke-width="1.5" points="806.89,-375.07 796.55,-372.75 803.18,-381.01 806.89,-375.07"/>
</g>
<!-- G5_MURRELL_GGGGF -->
<g id="node21" class="node">
<title>G5_MURRELL_GGGGF</title>
<g id="a_node21"><a xlink:href="https://www.wikitree.com/wiki/Murrell-1705" xlink:title="George Murrell 🔗\nb. ~1657, VA\nd. ~1728, VA" target="_blank">
<path fill="plum" stroke="black" d="M584.03,-446.9C584.03,-446.9 517.12,-446.9 517.12,-446.9 511.13,-446.9 505.13,-440.9 505.13,-434.9 505.13,-434.9 505.13,-406.25 505.13,-406.25 505.13,-400.25 511.13,-394.25 517.13,-394.25 517.13,-394.25 584.03,-394.25 584.03,-394.25 590.03,-394.25 596.03,-400.25 596.03,-406.25 596.03,-406.25 596.03,-434.9 596.03,-434.9 596.03,-440.9 590.03,-446.9 584.03,-446.9"/>
<text xml:space="preserve" text-anchor="middle" x="550.58" y="-430.2" font-family="Arial" font-size="10.00">George Murrell 🔗</text>
<text xml:space="preserve" text-anchor="middle" x="550.58" y="-415.95" font-family="Arial" font-size="10.00">b. ~1657, VA</text>
<text xml:space="preserve" text-anchor="middle" x="550.58" y="-403.95" font-family="Arial" font-size="10.00">d. ~1728, VA</text>
</a>
</g>
</g>
<!-- G5_MURRELL_GGGGF&#45;&gt;G4_MURRELL_GGGF -->
<g id="edge37" class="edge">
<title>G5_MURRELL_GGGGF&#45;&gt;G4_MURRELL_GGGF</title>
<path fill="none" stroke="black" stroke-width="1.5" d="M581.7,-393.82C587.43,-389.08 593.48,-384.07 599.42,-379.15"/>
<polygon fill="black" stroke="black" stroke-width="1.5" points="601.39,-382.06 606.87,-372.99 596.93,-376.67 601.39,-382.06"/>
</g>
<!-- G5_UNKNOWN2_GGGGM -->
<g id="node22" class="node">
<title>G5_UNKNOWN2_GGGGM</title>
<g id="a_node22"><a xlink:href="https://www.wikitree.com/wiki/Unknown-677793" xlink:title="Elizabeth 🔗\nb. ~1652, VA\nd. ~1728, VA" target="_blank">
<path fill="plum" stroke="black" d="M683.28,-446.9C683.28,-446.9 635.88,-446.9 635.88,-446.9 629.88,-446.9 623.88,-440.9 623.88,-434.9 623.88,-434.9 623.88,-406.25 623.88,-406.25 623.88,-400.25 629.88,-394.25 635.88,-394.25 635.88,-394.25 683.28,-394.25 683.28,-394.25 689.28,-394.25 695.28,-400.25 695.28,-406.25 695.28,-406.25 695.28,-434.9 695.28,-434.9 695.28,-440.9 689.28,-446.9 683.28,-446.9"/>
<text xml:space="preserve" text-anchor="middle" x="659.58" y="-430.2" font-family="Arial" font-size="10.00">Elizabeth 🔗</text>
<text xml:space="preserve" text-anchor="middle" x="659.58" y="-415.95" font-family="Arial" font-size="10.00">b. ~1652, VA</text>
<text xml:space="preserve" text-anchor="middle" x="659.58" y="-403.95" font-family="Arial" font-size="10.00">d. ~1728, VA</text>
</a>
</g>
</g>
<!-- G5_MURRELL_GGGGF&#45;&gt;G5_UNKNOWN2_GGGGM -->
<g id="edge11" class="edge">
<title>G5_MURRELL_GGGGF&#45;&gt;G5_UNKNOWN2_GGGGM</title>
<path fill="none" stroke="black" stroke-width="1.5" stroke-dasharray="5,2" d="M596.13,-420.57C605.22,-420.57 614.31,-420.57 623.39,-420.57"/>
</g>
<!-- G5_UNKNOWN2_GGGGM&#45;&gt;G4_MURRELL_GGGF -->
<g id="edge38" class="edge">
<title>G5_UNKNOWN2_GGGGM&#45;&gt;G4_MURRELL_GGGF</title>
<path fill="none" stroke="black" stroke-width="1.5" d="M652.58,-393.82C651.62,-390.28 650.62,-386.59 649.62,-382.9"/>
<polygon fill="black" stroke="black" stroke-width="1.5" points="653.06,-382.22 647.06,-373.49 646.3,-384.06 653.06,-382.22"/>
</g>
<!-- G5_JOYNER_GGGGF -->
<g id="node23" class="node">
<title>G5_JOYNER_GGGGF</title>
<g id="a_node23"><a xlink:href="https://www.wikitree.com/wiki/Joyner-66" xlink:title="Thomas Joyner III 🔗\nb. ~1619, England\nd. 1678, VA" target="_blank">
<path fill="plum" stroke="black" d="M1089.9,-446.9C1089.9,-446.9 1007.25,-446.9 1007.25,-446.9 1001.25,-446.9 995.25,-440.9 995.25,-434.9 995.25,-434.9 995.25,-406.25 995.25,-406.25 995.25,-400.25 1001.25,-394.25 1007.25,-394.25 1007.25,-394.25 1089.9,-394.25 1089.9,-394.25 1095.9,-394.25 1101.9,-400.25 1101.9,-406.25 1101.9,-406.25 1101.9,-434.9 1101.9,-434.9 1101.9,-440.9 1095.9,-446.9 1089.9,-446.9"/>
<text xml:space="preserve" text-anchor="middle" x="1048.58" y="-430.2" font-family="Arial" font-size="10.00">Thomas Joyner III 🔗</text>
<text xml:space="preserve" text-anchor="middle" x="1048.58" y="-415.95" font-family="Arial" font-size="10.00">b. ~1619, England</text>
<text xml:space="preserve" text-anchor="middle" x="1048.58" y="-403.95" font-family="Arial" font-size="10.00">d. 1678, VA</text>
</a>
</g>
</g>
<!-- G5_JOYNER_GGGGF&#45;&gt;G4_JOYNER_GGGF -->
<g id="edge32" class="edge">
<title>G5_JOYNER_GGGGF&#45;&gt;G4_JOYNER_GGGF</title>
<path fill="none" stroke="black" stroke-width="1.5" d="M1070.61,-393.82C1074.32,-389.48 1078.22,-384.92 1082.08,-380.41"/>
<polygon fill="black" stroke="black" stroke-width="1.5" points="1084.56,-382.9 1088.4,-373.02 1079.24,-378.35 1084.56,-382.9"/>
</g>
<!-- G5_EDWARDS_GGGGM -->
<g id="node24" class="node">
<title>G5_EDWARDS_GGGGM</title>
<g id="a_node24"><a xlink:href="https://www.wikitree.com/wiki/Edwards-14454" xlink:title="Sarah Elizabeth Edwards 🔗\nb. 1622, England\nd. 1710, VA" target="_blank">
<path fill="plum" stroke="black" d="M1255.28,-446.9C1255.28,-446.9 1141.88,-446.9 1141.88,-446.9 1135.88,-446.9 1129.88,-440.9 1129.88,-434.9 1129.88,-434.9 1129.88,-406.25 1129.88,-406.25 1129.88,-400.25 1135.88,-394.25 1141.88,-394.25 1141.88,-394.25 1255.28,-394.25 1255.28,-394.25 1261.28,-394.25 1267.28,-400.25 1267.28,-406.25 1267.28,-406.25 1267.28,-434.9 1267.28,-434.9 1267.28,-440.9 1261.28,-446.9 1255.28,-446.9"/>
<text xml:space="preserve" text-anchor="middle" x="1198.58" y="-430.2" font-family="Arial" font-size="10.00">Sarah Elizabeth Edwards 🔗</text>
<text xml:space="preserve" text-anchor="middle" x="1198.58" y="-415.95" font-family="Arial" font-size="10.00">b. 1622, England</text>
<text xml:space="preserve" text-anchor="middle" x="1198.58" y="-403.95" font-family="Arial" font-size="10.00">d. 1710, VA</text>
</a>
</g>
</g>
<!-- G5_JOYNER_GGGGF&#45;&gt;G5_EDWARDS_GGGGM -->
<g id="edge12" class="edge">
<title>G5_JOYNER_GGGGF&#45;&gt;G5_EDWARDS_GGGGM</title>
<path fill="none" stroke="black" stroke-width="1.5" stroke-dasharray="5,2" d="M1102.19,-420.57C1111.35,-420.57 1120.51,-420.57 1129.67,-420.57"/>
</g>
<!-- G5_EDWARDS_GGGGM&#45;&gt;G4_JOYNER_GGGF -->
<g id="edge33" class="edge">
<title>G5_EDWARDS_GGGGM&#45;&gt;G4_JOYNER_GGGF</title>
<path fill="none" stroke="black" stroke-width="1.5" d="M1168.15,-393.82C1162.55,-389.08 1156.64,-384.07 1150.83,-379.15"/>
<polygon fill="black" stroke="black" stroke-width="1.5" points="1153.47,-376.8 1143.57,-373.01 1148.94,-382.14 1153.47,-376.8"/>
</g>
<!-- G5_POWELL_GGGGF -->
<g id="node25" class="node">
<title>G5_POWELL_GGGGF</title>
<g id="a_node25"><a xlink:href="https://www.wikitree.com/wiki/Powell-259" xlink:title="William Thomas Powell 🔗\nb. ~1641, VA\nd. 1695, VA" target="_blank">
<path fill="plum" stroke="black" d="M226.15,-446.9C226.15,-446.9 121,-446.9 121,-446.9 115,-446.9 109,-440.9 109,-434.9 109,-434.9 109,-406.25 109,-406.25 109,-400.25 115,-394.25 121,-394.25 121,-394.25 226.15,-394.25 226.15,-394.25 232.15,-394.25 238.15,-400.25 238.15,-406.25 238.15,-406.25 238.15,-434.9 238.15,-434.9 238.15,-440.9 232.15,-446.9 226.15,-446.9"/>
<text xml:space="preserve" text-anchor="middle" x="173.58" y="-430.2" font-family="Arial" font-size="10.00">William Thomas Powell 🔗</text>
<text xml:space="preserve" text-anchor="middle" x="173.58" y="-415.95" font-family="Arial" font-size="10.00">b. ~1641, VA</text>
<text xml:space="preserve" text-anchor="middle" x="173.58" y="-403.95" font-family="Arial" font-size="10.00">d. 1695, VA</text>
</a>
</g>
</g>
<!-- G5_POWELL_GGGGF&#45;&gt;G4_POWELL_GGGF -->
<g id="edge34" class="edge">
<title>G5_POWELL_GGGGF&#45;&gt;G4_POWELL_GGGF</title>
<path fill="none" stroke="black" stroke-width="1.5" d="M225.34,-393.82C239.95,-386.54 255.84,-378.64 270.42,-371.38"/>
<polygon fill="black" stroke="black" stroke-width="1.5" points="271.84,-374.58 279.24,-366.99 268.72,-368.32 271.84,-374.58"/>
</g>
<!-- G5_LAWRENCE_GGGGM -->
<g id="node26" class="node">
<title>G5_LAWRENCE_GGGGM</title>
<g id="a_node26"><a xlink:href="https://www.wikitree.com/wiki/Lawrence-2199" xlink:title="Elizabeth Lawrence 🔗\nb. 1641, VA\nd. 1704, VA" target="_blank">
<path fill="plum" stroke="black" d="M365.9,-446.9C365.9,-446.9 277.25,-446.9 277.25,-446.9 271.25,-446.9 265.25,-440.9 265.25,-434.9 265.25,-434.9 265.25,-406.25 265.25,-406.25 265.25,-400.25 271.25,-394.25 277.25,-394.25 277.25,-394.25 365.9,-394.25 365.9,-394.25 371.9,-394.25 377.9,-400.25 377.9,-406.25 377.9,-406.25 377.9,-434.9 377.9,-434.9 377.9,-440.9 371.9,-446.9 365.9,-446.9"/>
<text xml:space="preserve" text-anchor="middle" x="321.58" y="-430.2" font-family="Arial" font-size="10.00">Elizabeth Lawrence 🔗</text>
<text xml:space="preserve" text-anchor="middle" x="321.58" y="-415.95" font-family="Arial" font-size="10.00">b. 1641, VA</text>
<text xml:space="preserve" text-anchor="middle" x="321.58" y="-403.95" font-family="Arial" font-size="10.00">d. 1704, VA</text>
</a>
</g>
</g>
<!-- G5_POWELL_GGGGF&#45;&gt;G5_LAWRENCE_GGGGM -->
<g id="edge13" class="edge">
<title>G5_POWELL_GGGGF&#45;&gt;G5_LAWRENCE_GGGGM</title>
<path fill="none" stroke="black" stroke-width="1.5" stroke-dasharray="5,2" d="M238.61,-420.57C247.36,-420.57 256.11,-420.57 264.86,-420.57"/>
</g>
<!-- G5_LAWRENCE_GGGGM&#45;&gt;G4_POWELL_GGGF -->
<g id="edge35" class="edge">
<title>G5_LAWRENCE_GGGGM&#45;&gt;G4_POWELL_GGGF</title>
<path fill="none" stroke="black" stroke-width="1.5" d="M321.58,-393.82C321.58,-390.39 321.58,-386.83 321.58,-383.26"/>
<polygon fill="black" stroke="black" stroke-width="1.5" points="325.08,-383.57 321.58,-373.57 318.08,-383.57 325.08,-383.57"/>
</g>
<!-- G5_TURNER_GGGGF -->
<g id="node27" class="node">
<title>G5_TURNER_GGGGF</title>
<g id="a_node27"><a xlink:href="https://www.wikitree.com/wiki/Turner-3599" xlink:title="Hezekiah Turner 🔗\nb. ~1620, VA\nd. 1677, VA" target="_blank">
<path fill="plum" stroke="black" d="M478.78,-446.9C478.78,-446.9 404.38,-446.9 404.38,-446.9 398.38,-446.9 392.38,-440.9 392.38,-434.9 392.38,-434.9 392.38,-406.25 392.38,-406.25 392.38,-400.25 398.38,-394.25 404.38,-394.25 404.38,-394.25 478.78,-394.25 478.78,-394.25 484.78,-394.25 490.78,-400.25 490.78,-406.25 490.78,-406.25 490.78,-434.9 490.78,-434.9 490.78,-440.9 484.78,-446.9 478.78,-446.9"/>
<text xml:space="preserve" text-anchor="middle" x="441.58" y="-430.2" font-family="Arial" font-size="10.00">Hezekiah Turner 🔗</text>
<text xml:space="preserve" text-anchor="middle" x="441.58" y="-415.95" font-family="Arial" font-size="10.00">b. ~1620, VA</text>
<text xml:space="preserve" text-anchor="middle" x="441.58" y="-403.95" font-family="Arial" font-size="10.00">d. 1677, VA</text>
</a>
</g>
</g>
<!-- G5_TURNER_GGGGF&#45;&gt;G4_TURNER_GGGM -->
<g id="edge36" class="edge">
<title>G5_TURNER_GGGGF&#45;&gt;G4_TURNER_GGGM</title>
<path fill="none" stroke="black" stroke-width="1.5" d="M441.58,-393.82C441.58,-390.39 441.58,-386.83 441.58,-383.26"/>
<polygon fill="black" stroke="black" stroke-width="1.5" points="445.08,-383.57 441.58,-373.57 438.08,-383.57 445.08,-383.57"/>
</g>
<!-- G6_POWELL_GGGGGF -->
<g id="node28" class="node">
<title>G6_POWELL_GGGGGF</title>
<g id="a_node28"><a xlink:href="https://www.wikitree.com/wiki/Powell-260" xlink:title="William Thomas Powell 🔗\nb. ~1605, England\nd. ~1687?, VA?" target="_blank">
<path fill="lightyellow" stroke="black" d="M117.15,-522.55C117.15,-522.55 12,-522.55 12,-522.55 6,-522.55 0,-516.55 0,-510.55 0,-510.55 0,-481.9 0,-481.9 0,-475.9 6,-469.9 12,-469.9 12,-469.9 117.15,-469.9 117.15,-469.9 123.15,-469.9 129.15,-475.9 129.15,-481.9 129.15,-481.9 129.15,-510.55 129.15,-510.55 129.15,-516.55 123.15,-522.55 117.15,-522.55"/>
<text xml:space="preserve" text-anchor="middle" x="64.58" y="-505.85" font-family="Arial" font-size="10.00">William Thomas Powell 🔗</text>
<text xml:space="preserve" text-anchor="middle" x="64.58" y="-491.6" font-family="Arial" font-size="10.00">b. ~1605, England</text>
<text xml:space="preserve" text-anchor="middle" x="64.58" y="-479.6" font-family="Arial" font-size="10.00">d. ~1687?, VA?</text>
</a>
</g>
</g>
<!-- G6_POWELL_GGGGGF&#45;&gt;G5_POWELL_GGGGF -->
<g id="edge43" class="edge">
<title>G6_POWELL_GGGGGF&#45;&gt;G5_POWELL_GGGGF</title>
<path fill="none" stroke="black" stroke-width="1.5" d="M102.7,-469.47C110.13,-464.45 118,-459.13 125.7,-453.93"/>
<polygon fill="black" stroke="black" stroke-width="1.5" points="127.45,-456.97 133.78,-448.47 123.53,-451.16 127.45,-456.97"/>
</g>
<!-- G6_GORSUCH_GGGGGM -->
<g id="node29" class="node">
<title>G6_GORSUCH_GGGGGM</title>
<g id="a_node29"><a xlink:href="https://www.wikitree.com/wiki/Gorsuch-284" xlink:title="Elizabeth Gorsuch 🔗\nb. ~1607, England\nd. 1676, VA" target="_blank">
<path fill="lightyellow" stroke="black" d="M252.28,-522.55C252.28,-522.55 168.88,-522.55 168.88,-522.55 162.88,-522.55 156.88,-516.55 156.88,-510.55 156.88,-510.55 156.88,-481.9 156.88,-481.9 156.88,-475.9 162.88,-469.9 168.88,-469.9 168.88,-469.9 252.28,-469.9 252.28,-469.9 258.28,-469.9 264.28,-475.9 264.28,-481.9 264.28,-481.9 264.28,-510.55 264.28,-510.55 264.28,-516.55 258.28,-522.55 252.28,-522.55"/>
<text xml:space="preserve" text-anchor="middle" x="210.58" y="-505.85" font-family="Arial" font-size="10.00">Elizabeth Gorsuch 🔗</text>
<text xml:space="preserve" text-anchor="middle" x="210.58" y="-491.6" font-family="Arial" font-size="10.00">b. ~1607, England</text>
<text xml:space="preserve" text-anchor="middle" x="210.58" y="-479.6" font-family="Arial" font-size="10.00">d. 1676, VA</text>
</a>
</g>
</g>
<!-- G6_POWELL_GGGGGF&#45;&gt;G6_GORSUCH_GGGGGM -->
<g id="edge14" class="edge">
<title>G6_POWELL_GGGGGF&#45;&gt;G6_GORSUCH_GGGGGM</title>
<path fill="none" stroke="black" stroke-width="1.5" stroke-dasharray="5,2" d="M129.59,-496.22C138.55,-496.22 147.52,-496.22 156.48,-496.22"/>
</g>
<!-- G6_GORSUCH_GGGGGM&#45;&gt;G5_POWELL_GGGGF -->
<g id="edge44" class="edge">
<title>G6_GORSUCH_GGGGGM&#45;&gt;G5_POWELL_GGGGF</title>
<path fill="none" stroke="black" stroke-width="1.5" d="M197.63,-469.47C195.74,-465.7 193.77,-461.77 191.79,-457.84"/>
<polygon fill="black" stroke="black" stroke-width="1.5" points="194.96,-456.34 187.34,-448.98 188.7,-459.48 194.96,-456.34"/>
</g>
<!-- G6_LARAMORE_GGGGGF -->
<g id="node30" class="node">
<title>G6_LARAMORE_GGGGGF</title>
<g id="a_node30"><a xlink:href="https://www.wikitree.com/wiki/Laramore-134" xlink:title="Thomas Roger Laramore 🔗\nb. 1642, England\nd. 1732, MD" target="_blank">
<path fill="lightyellow" stroke="black" d="M862.15,-522.55C862.15,-522.55 751,-522.55 751,-522.55 745,-522.55 739,-516.55 739,-510.55 739,-510.55 739,-481.9 739,-481.9 739,-475.9 745,-469.9 751,-469.9 751,-469.9 862.15,-469.9 862.15,-469.9 868.15,-469.9 874.15,-475.9 874.15,-481.9 874.15,-481.9 874.15,-510.55 874.15,-510.55 874.15,-516.55 868.15,-522.55 862.15,-522.55"/>
<text xml:space="preserve" text-anchor="middle" x="806.58" y="-505.85" font-family="Arial" font-size="10.00">Thomas Roger Laramore 🔗</text>
<text xml:space="preserve" text-anchor="middle" x="806.58" y="-491.6" font-family="Arial" font-size="10.00">b. 1642, England</text>
<text xml:space="preserve" text-anchor="middle" x="806.58" y="-479.6" font-family="Arial" font-size="10.00">d. 1732, MD</text>
</a>
</g>
</g>
<!-- G6_LARAMORE_GGGGGF&#45;&gt;G5_LARAMORE -->
<g id="edge41" class="edge">
<title>G6_LARAMORE_GGGGGF&#45;&gt;G5_LARAMORE</title>
<path fill="none" stroke="black" stroke-width="1.5" d="M829.31,-469.47C833.13,-465.13 837.16,-460.57 841.14,-456.06"/>
<polygon fill="black" stroke="black" stroke-width="1.5" points="843.69,-458.46 847.68,-448.65 838.44,-453.83 843.69,-458.46"/>
</g>
<!-- G6_UNKNOWN3_GGGGGM -->
<g id="node31" class="node">
<title>G6_UNKNOWN3_GGGGGM</title>
<g id="a_node31"><a xlink:href="https://www.wikitree.com/wiki/Unknown-678027" xlink:title="Winifred 🔗\nb. ~1640, VA\nd. 1732, MD" target="_blank">
<path fill="lightyellow" stroke="black" d="M961.28,-522.55C961.28,-522.55 913.88,-522.55 913.88,-522.55 907.88,-522.55 901.88,-516.55 901.88,-510.55 901.88,-510.55 901.88,-481.9 901.88,-481.9 901.88,-475.9 907.88,-469.9 913.88,-469.9 913.88,-469.9 961.28,-469.9 961.28,-469.9 967.28,-469.9 973.28,-475.9 973.28,-481.9 973.28,-481.9 973.28,-510.55 973.28,-510.55 973.28,-516.55 967.28,-522.55 961.28,-522.55"/>
<text xml:space="preserve" text-anchor="middle" x="937.58" y="-505.85" font-family="Arial" font-size="10.00">Winifred 🔗</text>
<text xml:space="preserve" text-anchor="middle" x="937.58" y="-491.6" font-family="Arial" font-size="10.00">b. ~1640, VA</text>
<text xml:space="preserve" text-anchor="middle" x="937.58" y="-479.6" font-family="Arial" font-size="10.00">d. 1732, MD</text>
</a>
</g>
</g>
<!-- G6_LARAMORE_GGGGGF&#45;&gt;G6_UNKNOWN3_GGGGGM -->
<g id="edge15" class="edge">
<title>G6_LARAMORE_GGGGGF&#45;&gt;G6_UNKNOWN3_GGGGGM</title>
<path fill="none" stroke="black" stroke-width="1.5" stroke-dasharray="5,2" d="M874.63,-496.22C883.65,-496.22 892.66,-496.22 901.68,-496.22"/>
</g>
<!-- G6_UNKNOWN3_GGGGGM&#45;&gt;G5_LARAMORE -->
<g id="edge42" class="edge">
<title>G6_UNKNOWN3_GGGGGM&#45;&gt;G5_LARAMORE</title>
<path fill="none" stroke="black" stroke-width="1.5" d="M914.49,-469.47C910.61,-465.13 906.52,-460.57 902.48,-456.06"/>
<polygon fill="black" stroke="black" stroke-width="1.5" points="905.11,-453.75 895.83,-448.64 899.89,-458.42 905.11,-453.75"/>
</g>
</g>
</svg>
