<?xml version="1.0" encoding="UTF-8" standalone="no"?>
<!DOCTYPE svg PUBLIC "-//W3C//DTD SVG 1.1//EN"
 "http://www.w3.org/Graphics/SVG/1.1/DTD/svg11.dtd">
<!-- Generated by graphviz version 14.0.4 (20251115.1723)
 -->
<!-- Title: family_tree Pages: 1 -->
<svg width="1249pt" height="416pt"
 viewBox="7.00 7.00 1242.00 409.00" xmlns="http://www.w3.org/2000/svg" xmlns:xlink="http://www.w3.org/1999/xlink">
<g id="graph0" class="graph" transform="scale(1 1) rotate(0) translate(14.4 401.65)">
<title>family_tree</title>
<polygon fill="white" stroke="none" points="-7.2,7.2 -7.2,-394.45 1227.1,-394.45 1227.1,7.2 -7.2,7.2"/>
<!-- G0_ME -->
<g id="node1" class="node">
<title>G0_ME</title>
<g id="a_node1"><a xlink:href="https://www.findagrave.com/memorial/106908714/vivian-hodges_kline" xlink:title="Vivian Ione Scott 🔗\nb. 1915, TX\nd. 1996, TX" target="_blank">
<path fill="gold" stroke="black" d="M630.4,-52.65C630.4,-52.65 552.25,-52.65 552.25,-52.65 546.25,-52.65 540.25,-46.65 540.25,-40.65 540.25,-40.65 540.25,-12 540.25,-12 540.25,-6 546.25,0 552.25,0 552.25,0 630.4,0 630.4,0 636.4,0 642.4,-6 642.4,-12 642.4,-12 642.4,-40.65 642.4,-40.65 642.4,-46.65 636.4,-52.65 630.4,-52.65"/>
<text xml:space="preserve" text-anchor="middle" x="591.33" y="-35.95" font-family="Arial" font-size="10.00">Vivian Ione Scott 🔗</text>
<text xml:space="preserve" text-anchor="middle" x="591.33" y="-21.7" font-family="Arial" font-size="10.00">b. 1915, TX</text>
<text xml:space="preserve" text-anchor="middle" x="591.33" y="-9.7" font-family="Arial" font-size="10.00">d. 1996, TX</text>
</a>
</g>
</g>
<!-- G0_SPOUSE -->
<g id="node2" class="node">
<title>G0_SPOUSE</title>
<g id="a_node2"><a xlink:href="https://www.findagrave.com/memorial/106908643/chauncey_william-hodges" xlink:title="Chauncey William Hodges 🔗\nb. 1910, TX\nd. 1977, TX" target="_blank">
<path fill="gold" stroke="black" d="M801.03,-52.65C801.03,-52.65 681.62,-52.65 681.62,-52.65 675.62,-52.65 669.62,-46.65 669.62,-40.65 669.62,-40.65 669.62,-12 669.62,-12 669.62,-6 675.62,0 681.62,0 681.62,0 801.03,0 801.03,0 807.03,0 813.03,-6 813.03,-12 813.03,-12 813.03,-40.65 813.03,-40.65 813.03,-46.65 807.03,-52.65 801.03,-52.65"/>
<text xml:space="preserve" text-anchor="middle" x="741.33" y="-35.95" font-family="Arial" font-size="10.00">Chauncey William Hodges 🔗</text>
<text xml:space="preserve" text-anchor="middle" x="741.33" y="-21.7" font-family="Arial" font-size="10.00">b. 1910, TX</text>
<text xml:space="preserve" text-anchor="middle" x="741.33" y="-9.7" font-family="Arial" font-size="10.00">d. 1977, TX</text>
</a>
</g>
</g>
<!-- G0_ME&#45;&gt;G0_SPOUSE -->
<g id="edge1" class="edge">
<title>G0_ME&#45;&gt;G0_SPOUSE</title>
<path fill="none" stroke="black" stroke-width="1.5" stroke-dasharray="5,2" d="M642.89,-26.32C651.73,-26.32 660.58,-26.32 669.42,-26.32"/>
</g>
<!-- G1_FATHER -->
<g id="node3" class="node">
<title>G1_FATHER</title>
<g id="a_node3"><a xlink:href="https://www.findagrave.com/memorial/92234814/samuel_mackel_scott?utm_source=chatgpt.com" xlink:title="Samuel Mackel Scott 🔗\nb. 1885, TX\nd. 1975, TX" target="_blank">
<path fill="lightcoral" stroke="black" d="M560.78,-128.3C560.78,-128.3 463.88,-128.3 463.88,-128.3 457.88,-128.3 451.88,-122.3 451.88,-116.3 451.88,-116.3 451.88,-87.65 451.88,-87.65 451.88,-81.65 457.88,-75.65 463.88,-75.65 463.88,-75.65 560.78,-75.65 560.78,-75.65 566.78,-75.65 572.78,-81.65 572.78,-87.65 572.78,-87.65 572.78,-116.3 572.78,-116.3 572.78,-122.3 566.78,-128.3 560.78,-128.3"/>
<text xml:space="preserve" text-anchor="middle" x="512.33" y="-111.6" font-family="Arial" font-size="10.00">Samuel Mackel Scott 🔗</text>
<text xml:space="preserve" text-anchor="middle" x="512.33" y="-97.35" font-family="Arial" font-size="10.00">b. 1885, TX</text>
<text xml:space="preserve" text-anchor="middle" x="512.33" y="-85.35" font-family="Arial" font-size="10.00">d. 1975, TX</text>
</a>
</g>
</g>
<!-- G1_FATHER&#45;&gt;G0_ME -->
<g id="edge10" class="edge">
<title>G1_FATHER&#45;&gt;G0_ME</title>
<path fill="none" stroke="black" stroke-width="1.5" d="M539.96,-75.22C544.79,-70.7 549.89,-65.95 554.93,-61.26"/>
<polygon fill="black" stroke="black" stroke-width="1.5" points="557.26,-63.87 562.18,-54.49 552.48,-58.75 557.26,-63.87"/>
</g>
<!-- G1_MOTHER -->
<g id="node4" class="node">
<title>G1_MOTHER</title>
<g id="a_node4"><a xlink:href="https://www.findagrave.com/memorial/92330605/myrtle_jewel-scott" xlink:title="Myrtle Jewel Woody Scott 🔗\nb. 1893\nd. 1985, TX" target="_blank">
<path fill="lightcoral" stroke="black" d="M780.28,-128.3C780.28,-128.3 662.38,-128.3 662.38,-128.3 656.38,-128.3 650.38,-122.3 650.38,-116.3 650.38,-116.3 650.38,-87.65 650.38,-87.65 650.38,-81.65 656.38,-75.65 662.38,-75.65 662.38,-75.65 780.28,-75.65 780.28,-75.65 786.28,-75.65 792.28,-81.65 792.28,-87.65 792.28,-87.65 792.28,-116.3 792.28,-116.3 792.28,-122.3 786.28,-128.3 780.28,-128.3"/>
<text xml:space="preserve" text-anchor="middle" x="721.33" y="-111.6" font-family="Arial" font-size="10.00">Myrtle Jewel Woody Scott 🔗</text>
<text xml:space="preserve" text-anchor="middle" x="721.33" y="-97.35" font-family="Arial" font-size="10.00">b. 1893</text>
<text xml:space="preserve" text-anchor="middle" x="721.33" y="-85.35" font-family="Arial" font-size="10.00">d. 1985, TX</text>
</a>
</g>
</g>
<!-- G1_FATHER&#45;&gt;G1_MOTHER -->
<g id="edge2" class="edge">
<title>G1_FATHER&#45;&gt;G1_MOTHER</title>
<path fill="none" stroke="black" stroke-width="1.5" stroke-dasharray="5,2" d="M573.15,-101.98C598.81,-101.98 624.47,-101.98 650.13,-101.98"/>
</g>
<!-- G1_MOTHER&#45;&gt;G0_ME -->
<g id="edge11" class="edge">
<title>G1_MOTHER&#45;&gt;G0_ME</title>
<path fill="none" stroke="black" stroke-width="1.5" d="M675.86,-75.22C666.6,-69.97 656.76,-64.4 647.19,-58.98"/>
<polygon fill="black" stroke="black" stroke-width="1.5" points="648.95,-55.95 638.52,-54.06 645.5,-62.04 648.95,-55.95"/>
</g>
<!-- G2_PATERNAL_GF -->
<g id="node5" class="node">
<title>G2_PATERNAL_GF</title>
<g id="a_node5"><a xlink:href="https://ancestors.familysearch.org/en/L11M-1C8/james-mackel-%27max%27-scott-1859-1910" xlink:title="James Mackel Scott 🔗\nb. 1859, LA\nd. 1910, TX" target="_blank">
<path fill="lightsteelblue" stroke="black" d="M236.9,-203.95C236.9,-203.95 143.75,-203.95 143.75,-203.95 137.75,-203.95 131.75,-197.95 131.75,-191.95 131.75,-191.95 131.75,-163.3 131.75,-163.3 131.75,-157.3 137.75,-151.3 143.75,-151.3 143.75,-151.3 236.9,-151.3 236.9,-151.3 242.9,-151.3 248.9,-157.3 248.9,-163.3 248.9,-163.3 248.9,-191.95 248.9,-191.95 248.9,-197.95 242.9,-203.95 236.9,-203.95"/>
<text xml:space="preserve" text-anchor="middle" x="190.33" y="-187.25" font-family="Arial" font-size="10.00">James Mackel Scott 🔗</text>
<text xml:space="preserve" text-anchor="middle" x="190.33" y="-173" font-family="Arial" font-size="10.00">b. 1859, LA</text>
<text xml:space="preserve" text-anchor="middle" x="190.33" y="-161" font-family="Arial" font-size="10.00">d. 1910, TX</text>
</a>
</g>
</g>
<!-- G2_PATERNAL_GF&#45;&gt;G1_FATHER -->
<g id="edge12" class="edge">
<title>G2_PATERNAL_GF&#45;&gt;G1_FATHER</title>
<path fill="none" stroke="black" stroke-width="1.5" d="M249.38,-163.12C302.95,-150.87 382.08,-132.76 439.54,-119.62"/>
<polygon fill="black" stroke="black" stroke-width="1.5" points="440.27,-123.05 449.24,-117.4 438.71,-116.22 440.27,-123.05"/>
</g>
<!-- G2_PATERNAL_GM -->
<g id="node6" class="node">
<title>G2_PATERNAL_GM</title>
<g id="a_node6"><a xlink:href="https://ancestors.familysearch.org/en/L28Y-8CP/louisa-jane-dunning-1868-1954" xlink:title="Louisa Jane Dunning 🔗\nb. 1868, TX\nd. 1954, TX" target="_blank">
<path fill="lightsteelblue" stroke="black" d="M559.65,-203.95C559.65,-203.95 465,-203.95 465,-203.95 459,-203.95 453,-197.95 453,-191.95 453,-191.95 453,-163.3 453,-163.3 453,-157.3 459,-151.3 465,-151.3 465,-151.3 559.65,-151.3 559.65,-151.3 565.65,-151.3 571.65,-157.3 571.65,-163.3 571.65,-163.3 571.65,-191.95 571.65,-191.95 571.65,-197.95 565.65,-203.95 559.65,-203.95"/>
<text xml:space="preserve" text-anchor="middle" x="512.33" y="-187.25" font-family="Arial" font-size="10.00">Louisa Jane Dunning 🔗</text>
<text xml:space="preserve" text-anchor="middle" x="512.33" y="-173" font-family="Arial" font-size="10.00">b. 1868, TX</text>
<text xml:space="preserve" text-anchor="middle" x="512.33" y="-161" font-family="Arial" font-size="10.00">d. 1954, TX</text>
</a>
</g>
</g>
<!-- G2_PATERNAL_GF&#45;&gt;G2_PATERNAL_GM -->
<g id="edge3" class="edge">
<title>G2_PATERNAL_GF&#45;&gt;G2_PATERNAL_GM</title>
<path fill="none" stroke="black" stroke-width="1.5" stroke-dasharray="5,2" d="M249.38,-177.62C307.12,-177.62 394.57,-177.62 452.55,-177.62"/>
<text xml:space="preserve" text-anchor="middle" x="350.95" y="-182.38" font-family="Times,serif" font-size="10.00">m. 1883, TX</text>
</g>
<!-- G2_PATERNAL_GM&#45;&gt;G1_FATHER -->
<g id="edge13" class="edge">
<title>G2_PATERNAL_GM&#45;&gt;G1_FATHER</title>
<path fill="none" stroke="black" stroke-width="1.5" d="M512.33,-150.87C512.33,-147.44 512.33,-143.88 512.33,-140.31"/>
<polygon fill="black" stroke="black" stroke-width="1.5" points="515.83,-140.62 512.33,-130.62 508.83,-140.62 515.83,-140.62"/>
</g>
<!-- G2_MATERNAL_GF -->
<g id="node7" class="node">
<title>G2_MATERNAL_GF</title>
<g id="a_node7"><a xlink:href="https://ancestors.familysearch.org/en/LVMJ-G2B/joseph-carrol-woody-1859-1932" xlink:title="Joseph Carrol Woody 🔗\nb. 1859, MS\nd. 1932, TX" target="_blank">
<path fill="lightsteelblue" stroke="black" d="M769.78,-203.95C769.78,-203.95 672.88,-203.95 672.88,-203.95 666.88,-203.95 660.88,-197.95 660.88,-191.95 660.88,-191.95 660.88,-163.3 660.88,-163.3 660.88,-157.3 666.88,-151.3 672.88,-151.3 672.88,-151.3 769.78,-151.3 769.78,-151.3 775.78,-151.3 781.78,-157.3 781.78,-163.3 781.78,-163.3 781.78,-191.95 781.78,-191.95 781.78,-197.95 775.78,-203.95 769.78,-203.95"/>
<text xml:space="preserve" text-anchor="middle" x="721.33" y="-187.25" font-family="Arial" font-size="10.00">Joseph Carrol Woody 🔗</text>
<text xml:space="preserve" text-anchor="middle" x="721.33" y="-173" font-family="Arial" font-size="10.00">b. 1859, MS</text>
<text xml:space="preserve" text-anchor="middle" x="721.33" y="-161" font-family="Arial" font-size="10.00">d. 1932, TX</text>
</a>
</g>
</g>
<!-- G2_MATERNAL_GF&#45;&gt;G1_MOTHER -->
<g id="edge14" class="edge">
<title>G2_MATERNAL_GF&#45;&gt;G1_MOTHER</title>
<path fill="none" stroke="black" stroke-width="1.5" d="M721.33,-150.87C721.33,-147.44 721.33,-143.88 721.33,-140.31"/>
<polygon fill="black" stroke="black" stroke-width="1.5" points="724.83,-140.62 721.33,-130.62 717.83,-140.62 724.83,-140.62"/>
</g>
<!-- G2_MATERNAL_GM -->
<g id="node8" class="node">
<title>G2_MATERNAL_GM</title>
<g id="a_node8"><a xlink:href="https://ancestors.familysearch.org/en/LXSM-P9D/clifford-green-duke-1861-1947" xlink:title="Clifford Green Duke 🔗\nb. 1861, GA\nd. 1947, TX" target="_blank">
<path fill="lightsteelblue" stroke="black" d="M1027.03,-203.95C1027.03,-203.95 937.62,-203.95 937.62,-203.95 931.62,-203.95 925.62,-197.95 925.62,-191.95 925.62,-191.95 925.62,-163.3 925.62,-163.3 925.62,-157.3 931.62,-151.3 937.62,-151.3 937.62,-151.3 1027.03,-151.3 1027.03,-151.3 1033.03,-151.3 1039.03,-157.3 1039.03,-163.3 1039.03,-163.3 1039.03,-191.95 1039.03,-191.95 1039.03,-197.95 1033.03,-203.95 1027.03,-203.95"/>
<text xml:space="preserve" text-anchor="middle" x="982.33" y="-187.25" font-family="Arial" font-size="10.00">Clifford Green Duke 🔗</text>
<text xml:space="preserve" text-anchor="middle" x="982.33" y="-173" font-family="Arial" font-size="10.00">b. 1861, GA</text>
<text xml:space="preserve" text-anchor="middle" x="982.33" y="-161" font-family="Arial" font-size="10.00">d. 1947, TX</text>
</a>
</g>
</g>
<!-- G2_MATERNAL_GF&#45;&gt;G2_MATERNAL_GM -->
<g id="edge4" class="edge">
<title>G2_MATERNAL_GF&#45;&gt;G2_MATERNAL_GM</title>
<path fill="none" stroke="black" stroke-width="1.5" stroke-dasharray="5,2" d="M782.19,-177.62C825.42,-177.62 883.07,-177.62 925.39,-177.62"/>
<text xml:space="preserve" text-anchor="middle" x="853.7" y="-182.38" font-family="Times,serif" font-size="10.00">m. 1882, TX</text>
</g>
<!-- G2_MATERNAL_GM&#45;&gt;G1_MOTHER -->
<g id="edge15" class="edge">
<title>G2_MATERNAL_GM&#45;&gt;G1_MOTHER</title>
<path fill="none" stroke="black" stroke-width="1.5" d="M925.37,-160.55C889.95,-150.56 843.8,-137.54 804.35,-126.4"/>
<polygon fill="black" stroke="black" stroke-width="1.5" points="805.37,-123.06 794.8,-123.71 803.47,-129.79 805.37,-123.06"/>
</g>
<!-- G3_SCOTT_GGF -->
<g id="node9" class="node">
<title>G3_SCOTT_GGF</title>
<path fill="lightgreen" stroke="black" d="M100.65,-286.47C100.65,-286.47 12,-286.47 12,-286.47 6,-286.47 0,-280.47 0,-274.47 0,-274.47 0,-248.07 0,-248.07 0,-242.07 6,-236.07 12,-236.07 12,-236.07 100.65,-236.07 100.65,-236.07 106.65,-236.07 112.65,-242.07 112.65,-248.07 112.65,-248.07 112.65,-274.47 112.65,-274.47 112.65,-280.47 106.65,-286.47 100.65,-286.47"/>
<text xml:space="preserve" text-anchor="middle" x="56.33" y="-269.77" font-family="Arial" font-size="10.00">William Harrison Scott</text>
<text xml:space="preserve" text-anchor="middle" x="56.33" y="-257.77" font-family="Arial" font-size="10.00">b. 1831</text>
<text xml:space="preserve" text-anchor="middle" x="56.33" y="-245.77" font-family="Arial" font-size="10.00">d.</text>
</g>
<!-- G3_SCOTT_GGF&#45;&gt;G2_PATERNAL_GF -->
<g id="edge16" class="edge">
<title>G3_SCOTT_GGF&#45;&gt;G2_PATERNAL_GF</title>
<path fill="none" stroke="black" stroke-width="1.5" d="M96.53,-235.78C109.55,-227.84 124.19,-218.92 137.97,-210.53"/>
<polygon fill="black" stroke="black" stroke-width="1.5" points="139.63,-213.61 146.35,-205.42 135.99,-207.63 139.63,-213.61"/>
</g>
<!-- G3_FREEMAN_GGM -->
<g id="node10" class="node">
<title>G3_FREEMAN_GGM</title>
<path fill="lightgreen" stroke="black" d="M228.28,-286.47C228.28,-286.47 152.38,-286.47 152.38,-286.47 146.38,-286.47 140.38,-280.47 140.38,-274.47 140.38,-274.47 140.38,-248.07 140.38,-248.07 140.38,-242.07 146.38,-236.07 152.38,-236.07 152.38,-236.07 228.28,-236.07 228.28,-236.07 234.28,-236.07 240.28,-242.07 240.28,-248.07 240.28,-248.07 240.28,-274.47 240.28,-274.47 240.28,-280.47 234.28,-286.47 228.28,-286.47"/>
<text xml:space="preserve" text-anchor="middle" x="190.33" y="-269.77" font-family="Arial" font-size="10.00">Sarah Lou Freeman</text>
<text xml:space="preserve" text-anchor="middle" x="190.33" y="-257.77" font-family="Arial" font-size="10.00">b. 1840</text>
<text xml:space="preserve" text-anchor="middle" x="190.33" y="-245.77" font-family="Arial" font-size="10.00">d. 1900</text>
</g>
<!-- G3_SCOTT_GGF&#45;&gt;G3_FREEMAN_GGM -->
<g id="edge5" class="edge">
<title>G3_SCOTT_GGF&#45;&gt;G3_FREEMAN_GGM</title>
<path fill="none" stroke="black" stroke-width="1.5" stroke-dasharray="5,2" d="M113.12,-261.27C122.07,-261.27 131.01,-261.27 139.96,-261.27"/>
</g>
<!-- G3_FREEMAN_GGM&#45;&gt;G2_PATERNAL_GF -->
<g id="edge17" class="edge">
<title>G3_FREEMAN_GGM&#45;&gt;G2_PATERNAL_GF</title>
<path fill="none" stroke="black" stroke-width="1.5" d="M190.33,-235.78C190.33,-229.63 190.33,-222.89 190.33,-216.27"/>
<polygon fill="black" stroke="black" stroke-width="1.5" points="193.83,-216.51 190.33,-206.51 186.83,-216.51 193.83,-216.51"/>
</g>
<!-- G3_DUNNING_GGF -->
<g id="node11" class="node">
<title>G3_DUNNING_GGF</title>
<g id="a_node11"><a xlink:href="https://ancestors.familysearch.org/en/LHXV-RX9/samuel-washington-dunning-1833-1909" xlink:title="Samuel Washington Dunning 🔗\nb. 1833, TN\nd. 1909, TX" target="_blank">
<path fill="lightgreen" stroke="black" d="M395.9,-287.6C395.9,-287.6 266.75,-287.6 266.75,-287.6 260.75,-287.6 254.75,-281.6 254.75,-275.6 254.75,-275.6 254.75,-246.95 254.75,-246.95 254.75,-240.95 260.75,-234.95 266.75,-234.95 266.75,-234.95 395.9,-234.95 395.9,-234.95 401.9,-234.95 407.9,-240.95 407.9,-246.95 407.9,-246.95 407.9,-275.6 407.9,-275.6 407.9,-281.6 401.9,-287.6 395.9,-287.6"/>
<text xml:space="preserve" text-anchor="middle" x="331.33" y="-270.9" font-family="Arial" font-size="10.00">Samuel Washington Dunning 🔗</text>
<text xml:space="preserve" text-anchor="middle" x="331.33" y="-256.65" font-family="Arial" font-size="10.00">b. 1833, TN</text>
<text xml:space="preserve" text-anchor="middle" x="331.33" y="-244.65" font-family="Arial" font-size="10.00">d. 1909, TX</text>
</a>
</g>
</g>
<!-- G3_DUNNING_GGF&#45;&gt;G2_PATERNAL_GM -->
<g id="edge18" class="edge">
<title>G3_DUNNING_GGF&#45;&gt;G2_PATERNAL_GM</title>
<path fill="none" stroke="black" stroke-width="1.5" d="M388.1,-234.66C405.87,-226.65 425.66,-217.72 444.13,-209.39"/>
<polygon fill="black" stroke="black" stroke-width="1.5" points="445.39,-212.66 453.06,-205.36 442.51,-206.28 445.39,-212.66"/>
</g>
<!-- G3_SATTERWHITE_GGM -->
<g id="node12" class="node">
<title>G3_SATTERWHITE_GGM</title>
<g id="a_node12"><a xlink:href="https://ancestors.familysearch.org/en/LHXV-R63/nancy-elizabeth-satterwhite-1828-1913" xlink:title="Nancy Elizabeth Satterwhite 🔗\nb. 1830, TN\nd. 1913, AR" target="_blank">
<path fill="lightgreen" stroke="black" d="M612.15,-287.6C612.15,-287.6 484.5,-287.6 484.5,-287.6 478.5,-287.6 472.5,-281.6 472.5,-275.6 472.5,-275.6 472.5,-246.95 472.5,-246.95 472.5,-240.95 478.5,-234.95 484.5,-234.95 484.5,-234.95 612.15,-234.95 612.15,-234.95 618.15,-234.95 624.15,-240.95 624.15,-246.95 624.15,-246.95 624.15,-275.6 624.15,-275.6 624.15,-281.6 618.15,-287.6 612.15,-287.6"/>
<text xml:space="preserve" text-anchor="middle" x="548.33" y="-270.9" font-family="Arial" font-size="10.00">Nancy Elizabeth Satterwhite 🔗</text>
<text xml:space="preserve" text-anchor="middle" x="548.33" y="-256.65" font-family="Arial" font-size="10.00">b. 1830, TN</text>
<text xml:space="preserve" text-anchor="middle" x="548.33" y="-244.65" font-family="Arial" font-size="10.00">d. 1913, AR</text>
</a>
</g>
</g>
<!-- G3_DUNNING_GGF&#45;&gt;G3_SATTERWHITE_GGM -->
<g id="edge6" class="edge">
<title>G3_DUNNING_GGF&#45;&gt;G3_SATTERWHITE_GGM</title>
<path fill="none" stroke="black" stroke-width="1.5" stroke-dasharray="5,2" d="M408.14,-261.27C428.99,-261.27 451.54,-261.27 472.35,-261.27"/>
<text xml:space="preserve" text-anchor="middle" x="440.2" y="-266.02" font-family="Times,serif" font-size="10.00">m. 1858, AR</text>
</g>
<!-- G3_SATTERWHITE_GGM&#45;&gt;G2_PATERNAL_GM -->
<g id="edge19" class="edge">
<title>G3_SATTERWHITE_GGM&#45;&gt;G2_PATERNAL_GM</title>
<path fill="none" stroke="black" stroke-width="1.5" d="M537.13,-234.89C534.38,-228.65 531.38,-221.85 528.45,-215.2"/>
<polygon fill="black" stroke="black" stroke-width="1.5" points="531.79,-214.09 524.55,-206.35 525.38,-216.92 531.79,-214.09"/>
</g>
<!-- G3_WOODY_GGF -->
<g id="node13" class="node tree&#45;connection">
<title>G3_WOODY_GGF</title>
<g id="a_node13"><a xlink:href="https://ancestors.familysearch.org/en/LXSM-GTQ/moses-woody-1810" xlink:title="Moses Woody 🔗\nb. 1810, NC\nd. MS" target="_blank">
<path fill="lightgreen" stroke="black" d="M726.53,-287.6C726.53,-287.6 658.12,-287.6 658.12,-287.6 652.12,-287.6 646.12,-281.6 646.12,-275.6 646.12,-275.6 646.12,-246.95 646.12,-246.95 646.12,-240.95 652.12,-234.95 658.12,-234.95 658.12,-234.95 726.53,-234.95 726.53,-234.95 732.53,-234.95 738.53,-240.95 738.53,-246.95 738.53,-246.95 738.53,-275.6 738.53,-275.6 738.53,-281.6 732.53,-287.6 726.53,-287.6"/>
<path fill="none" stroke="black" d="M730.53,-291.6C730.53,-291.6 654.12,-291.6 654.12,-291.6 648.12,-291.6 642.12,-285.6 642.12,-279.6 642.12,-279.6 642.12,-242.95 642.12,-242.95 642.12,-236.95 648.12,-230.95 654.12,-230.95 654.12,-230.95 730.53,-230.95 730.53,-230.95 736.53,-230.95 742.53,-236.95 742.53,-242.95 742.53,-242.95 742.53,-279.6 742.53,-279.6 742.53,-285.6 736.53,-291.6 730.53,-291.6"/>
<path fill="none" stroke="black" d="M734.53,-295.6C734.53,-295.6 650.12,-295.6 650.12,-295.6 644.12,-295.6 638.12,-289.6 638.12,-283.6 638.12,-283.6 638.12,-238.95 638.12,-238.95 638.12,-232.95 644.12,-226.95 650.12,-226.95 650.12,-226.95 734.53,-226.95 734.53,-226.95 740.53,-226.95 746.53,-232.95 746.53,-238.95 746.53,-238.95 746.53,-283.6 746.53,-283.6 746.53,-289.6 740.53,-295.6 734.53,-295.6"/>
<text xml:space="preserve" text-anchor="middle" x="692.33" y="-270.9" font-family="Arial Bold" font-size="10.00">Moses Woody 🔗</text>
<text xml:space="preserve" text-anchor="middle" x="692.33" y="-256.65" font-family="Arial Bold" font-size="10.00">b. 1810, NC</text>
<text xml:space="preserve" text-anchor="middle" x="692.33" y="-244.65" font-family="Arial Bold" font-size="10.00">d. MS</text>
</a>
</g>
</g>
<!-- G3_WOODY_GGF&#45;&gt;G2_MATERNAL_GF -->
<g id="edge20" class="edge">
<title>G3_WOODY_GGF&#45;&gt;G2_MATERNAL_GF</title>
<path fill="none" stroke="black" stroke-width="1.5" d="M704.29,-226.59C705.57,-222.98 706.88,-219.28 708.18,-215.63"/>
<polygon fill="black" stroke="black" stroke-width="1.5" points="711.42,-216.98 711.47,-206.38 704.82,-214.64 711.42,-216.98"/>
</g>
<!-- G3_MCCRACKEN_GGM -->
<g id="node14" class="node tree&#45;connection">
<title>G3_MCCRACKEN_GGM</title>
<g id="a_node14"><a xlink:href="https://ancestors.familysearch.org/en/2Z8S-FQJ/mary-s-mccracken-1815-1889" xlink:title="Mary S. McCracken 🔗\nb. 1815, TN\nd. 1889, TX" target="_blank">
<path fill="lightgreen" stroke="black" d="M886.9,-287.6C886.9,-287.6 793.75,-287.6 793.75,-287.6 787.75,-287.6 781.75,-281.6 781.75,-275.6 781.75,-275.6 781.75,-246.95 781.75,-246.95 781.75,-240.95 787.75,-234.95 793.75,-234.95 793.75,-234.95 886.9,-234.95 886.9,-234.95 892.9,-234.95 898.9,-240.95 898.9,-246.95 898.9,-246.95 898.9,-275.6 898.9,-275.6 898.9,-281.6 892.9,-287.6 886.9,-287.6"/>
<path fill="none" stroke="black" d="M890.9,-291.6C890.9,-291.6 789.75,-291.6 789.75,-291.6 783.75,-291.6 777.75,-285.6 777.75,-279.6 777.75,-279.6 777.75,-242.95 777.75,-242.95 777.75,-236.95 783.75,-230.95 789.75,-230.95 789.75,-230.95 890.9,-230.95 890.9,-230.95 896.9,-230.95 902.9,-236.95 902.9,-242.95 902.9,-242.95 902.9,-279.6 902.9,-279.6 902.9,-285.6 896.9,-291.6 890.9,-291.6"/>
<path fill="none" stroke="black" d="M894.9,-295.6C894.9,-295.6 785.75,-295.6 785.75,-295.6 779.75,-295.6 773.75,-289.6 773.75,-283.6 773.75,-283.6 773.75,-238.95 773.75,-238.95 773.75,-232.95 779.75,-226.95 785.75,-226.95 785.75,-226.95 894.9,-226.95 894.9,-226.95 900.9,-226.95 906.9,-232.95 906.9,-238.95 906.9,-238.95 906.9,-283.6 906.9,-283.6 906.9,-289.6 900.9,-295.6 894.9,-295.6"/>
<text xml:space="preserve" text-anchor="middle" x="840.33" y="-270.9" font-family="Arial Bold" font-size="10.00">Mary S. McCracken 🔗</text>
<text xml:space="preserve" text-anchor="middle" x="840.33" y="-256.65" font-family="Arial Bold" font-size="10.00">b. 1815, TN</text>
<text xml:space="preserve" text-anchor="middle" x="840.33" y="-244.65" font-family="Arial Bold" font-size="10.00">d. 1889, TX</text>
</a>
</g>
</g>
<!-- G3_WOODY_GGF&#45;&gt;G3_MCCRACKEN_GGM -->
<g id="edge7" class="edge">
<title>G3_WOODY_GGF&#45;&gt;G3_MCCRACKEN_GGM</title>
<path fill="none" stroke="black" stroke-width="1.5" stroke-dasharray="5,2" d="M746.96,-261.27C755.83,-261.27 764.71,-261.27 773.58,-261.27"/>
</g>
<!-- G3_MCCRACKEN_GGM&#45;&gt;G2_MATERNAL_GF -->
<g id="edge21" class="edge">
<title>G3_MCCRACKEN_GGM&#45;&gt;G2_MATERNAL_GF</title>
<path fill="none" stroke="black" stroke-width="1.5" d="M791.24,-226.59C783.75,-221.46 776.04,-216.17 768.6,-211.06"/>
<polygon fill="black" stroke="black" stroke-width="1.5" points="770.76,-208.3 760.54,-205.53 766.8,-214.07 770.76,-208.3"/>
</g>
<!-- G3_DUKE_GGF -->
<g id="node15" class="node tree&#45;connection">
<title>G3_DUKE_GGF</title>
<g id="a_node15"><a xlink:href="https://ancestors.familysearch.org/en/LRF7-ZTC/greenberry-duke-1817-1899" xlink:title="Greenberry Duke 🔗\nb. 1817, GA\nd. 1899, TX" target="_blank">
<path fill="lightgreen" stroke="black" d="M1023.28,-287.6C1023.28,-287.6 941.38,-287.6 941.38,-287.6 935.38,-287.6 929.38,-281.6 929.38,-275.6 929.38,-275.6 929.38,-246.95 929.38,-246.95 929.38,-240.95 935.38,-234.95 941.38,-234.95 941.38,-234.95 1023.28,-234.95 1023.28,-234.95 1029.28,-234.95 1035.28,-240.95 1035.28,-246.95 1035.28,-246.95 1035.28,-275.6 1035.28,-275.6 1035.28,-281.6 1029.28,-287.6 1023.28,-287.6"/>
<path fill="none" stroke="black" d="M1027.28,-291.6C1027.28,-291.6 937.38,-291.6 937.38,-291.6 931.38,-291.6 925.38,-285.6 925.38,-279.6 925.38,-279.6 925.38,-242.95 925.38,-242.95 925.38,-236.95 931.38,-230.95 937.38,-230.95 937.38,-230.95 1027.28,-230.95 1027.28,-230.95 1033.28,-230.95 1039.28,-236.95 1039.28,-242.95 1039.28,-242.95 1039.28,-279.6 1039.28,-279.6 1039.28,-285.6 1033.28,-291.6 1027.28,-291.6"/>
<path fill="none" stroke="black" d="M1031.28,-295.6C1031.28,-295.6 933.38,-295.6 933.38,-295.6 927.38,-295.6 921.38,-289.6 921.38,-283.6 921.38,-283.6 921.38,-238.95 921.38,-238.95 921.38,-232.95 927.38,-226.95 933.38,-226.95 933.38,-226.95 1031.28,-226.95 1031.28,-226.95 1037.28,-226.95 1043.28,-232.95 1043.28,-238.95 1043.28,-238.95 1043.28,-283.6 1043.28,-283.6 1043.28,-289.6 1037.28,-295.6 1031.28,-295.6"/>
<text xml:space="preserve" text-anchor="middle" x="982.33" y="-270.9" font-family="Arial Bold" font-size="10.00">Greenberry Duke 🔗</text>
<text xml:space="preserve" text-anchor="middle" x="982.33" y="-256.65" font-family="Arial Bold" font-size="10.00">b. 1817, GA</text>
<text xml:space="preserve" text-anchor="middle" x="982.33" y="-244.65" font-family="Arial Bold" font-size="10.00">d. 1899, TX</text>
</a>
</g>
</g>
<!-- G3_DUKE_GGF&#45;&gt;G2_MATERNAL_GM -->
<g id="edge22" class="edge">
<title>G3_DUKE_GGF&#45;&gt;G2_MATERNAL_GM</title>
<path fill="none" stroke="black" stroke-width="1.5" d="M982.33,-226.59C982.33,-223.21 982.33,-219.76 982.33,-216.34"/>
<polygon fill="black" stroke="black" stroke-width="1.5" points="985.83,-216.51 982.33,-206.51 978.83,-216.51 985.83,-216.51"/>
</g>
<!-- G3_BOWDEN_GGM -->
<g id="node16" class="node">
<title>G3_BOWDEN_GGM</title>
<g id="a_node16"><a xlink:href="https://ancestors.familysearch.org/en/KZ82-VBN/louisa-p-bowden-1838-1895" xlink:title="Louisa P. Bowden 🔗\nb. 1838, AL\nd. 1895, TX" target="_blank">
<path fill="lightgreen" stroke="black" d="M1207.9,-287.6C1207.9,-287.6 1126.75,-287.6 1126.75,-287.6 1120.75,-287.6 1114.75,-281.6 1114.75,-275.6 1114.75,-275.6 1114.75,-246.95 1114.75,-246.95 1114.75,-240.95 1120.75,-234.95 1126.75,-234.95 1126.75,-234.95 1207.9,-234.95 1207.9,-234.95 1213.9,-234.95 1219.9,-240.95 1219.9,-246.95 1219.9,-246.95 1219.9,-275.6 1219.9,-275.6 1219.9,-281.6 1213.9,-287.6 1207.9,-287.6"/>
<text xml:space="preserve" text-anchor="middle" x="1167.33" y="-270.9" font-family="Arial" font-size="10.00">Louisa P. Bowden 🔗</text>
<text xml:space="preserve" text-anchor="middle" x="1167.33" y="-256.65" font-family="Arial" font-size="10.00">b. 1838, AL</text>
<text xml:space="preserve" text-anchor="middle" x="1167.33" y="-244.65" font-family="Arial" font-size="10.00">d. 1895, TX</text>
</a>
</g>
</g>
<!-- G3_DUKE_GGF&#45;&gt;G3_BOWDEN_GGM -->
<g id="edge8" class="edge">
<title>G3_DUKE_GGF&#45;&gt;G3_BOWDEN_GGM</title>
<path fill="none" stroke="black" stroke-width="1.5" stroke-dasharray="5,2" d="M1043.67,-261.27C1066.6,-261.27 1092.42,-261.27 1114.51,-261.27"/>
<text xml:space="preserve" text-anchor="middle" x="1079.01" y="-266.02" font-family="Times,serif" font-size="10.00">m. ~1862, GA</text>
</g>
<!-- G3_BOWDEN_GGM&#45;&gt;G2_MATERNAL_GM -->
<g id="edge23" class="edge">
<title>G3_BOWDEN_GGM&#45;&gt;G2_MATERNAL_GM</title>
<path fill="none" stroke="black" stroke-width="1.5" d="M1114.31,-236.88C1094.4,-228.09 1071.48,-217.98 1050.39,-208.67"/>
<polygon fill="black" stroke="black" stroke-width="1.5" points="1051.87,-205.49 1041.3,-204.66 1049.04,-211.89 1051.87,-205.49"/>
</g>
<!-- G4_SATTERWHITE -->
<g id="node17" class="node tree&#45;connection">
<title>G4_SATTERWHITE</title>
<g id="a_node17"><a xlink:href="https://ancestors.familysearch.org/en/G947-VZ1/capt.-paul-satterwhite-1795-1858" xlink:title="Paul Satterwhite 🔗\nb. 1795, GA\nd. 1858, AR" target="_blank">
<path fill="wheat" stroke="black" d="M485.78,-379.25C485.78,-379.25 406.88,-379.25 406.88,-379.25 400.88,-379.25 394.88,-373.25 394.88,-367.25 394.88,-367.25 394.88,-338.6 394.88,-338.6 394.88,-332.6 400.88,-326.6 406.88,-326.6 406.88,-326.6 485.78,-326.6 485.78,-326.6 491.78,-326.6 497.78,-332.6 497.78,-338.6 497.78,-338.6 497.78,-367.25 497.78,-367.25 497.78,-373.25 491.78,-379.25 485.78,-379.25"/>
<path fill="none" stroke="black" d="M489.78,-383.25C489.78,-383.25 402.88,-383.25 402.88,-383.25 396.88,-383.25 390.88,-377.25 390.88,-371.25 390.88,-371.25 390.88,-334.6 390.88,-334.6 390.88,-328.6 396.88,-322.6 402.88,-322.6 402.88,-322.6 489.78,-322.6 489.78,-322.6 495.78,-322.6 501.78,-328.6 501.78,-334.6 501.78,-334.6 501.78,-371.25 501.78,-371.25 501.78,-377.25 495.78,-383.25 489.78,-383.25"/>
<path fill="none" stroke="black" d="M493.78,-387.25C493.78,-387.25 398.88,-387.25 398.88,-387.25 392.88,-387.25 386.88,-381.25 386.88,-375.25 386.88,-375.25 386.88,-330.6 386.88,-330.6 386.88,-324.6 392.88,-318.6 398.88,-318.6 398.88,-318.6 493.78,-318.6 493.78,-318.6 499.78,-318.6 505.78,-324.6 505.78,-330.6 505.78,-330.6 505.78,-375.25 505.78,-375.25 505.78,-381.25 499.78,-387.25 493.78,-387.25"/>
<text xml:space="preserve" text-anchor="middle" x="446.33" y="-362.55" font-family="Arial Bold" font-size="10.00">Paul Satterwhite 🔗</text>
<text xml:space="preserve" text-anchor="middle" x="446.33" y="-348.3" font-family="Arial Bold" font-size="10.00">b. 1795, GA</text>
<text xml:space="preserve" text-anchor="middle" x="446.33" y="-336.3" font-family="Arial Bold" font-size="10.00">d. 1858, AR</text>
</a>
</g>
</g>
<!-- G4_SATTERWHITE&#45;&gt;G3_SATTERWHITE_GGM -->
<g id="edge24" class="edge">
<title>G4_SATTERWHITE&#45;&gt;G3_SATTERWHITE_GGM</title>
<path fill="none" stroke="black" stroke-width="1.5" d="M484.6,-318.29C492.89,-311 501.67,-303.28 509.97,-295.99"/>
<polygon fill="black" stroke="black" stroke-width="1.5" points="512.18,-298.7 517.38,-289.47 507.56,-293.45 512.18,-298.7"/>
</g>
<!-- G4_POWELL -->
<g id="node18" class="node tree&#45;connection">
<title>G4_POWELL</title>
<g id="a_node18"><a xlink:href="https://ancestors.familysearch.org/en/G947-L4D/katherine-%22kittie%22-powell-1797-1873" xlink:title="Katherine Powell 🔗\nb. 1797, GA\nd. 1873, AR" target="_blank">
<path fill="wheat" stroke="black" d="M654.65,-379.25C654.65,-379.25 572,-379.25 572,-379.25 566,-379.25 560,-373.25 560,-367.25 560,-367.25 560,-338.6 560,-338.6 560,-332.6 566,-326.6 572,-326.6 572,-326.6 654.65,-326.6 654.65,-326.6 660.65,-326.6 666.65,-332.6 666.65,-338.6 666.65,-338.6 666.65,-367.25 666.65,-367.25 666.65,-373.25 660.65,-379.25 654.65,-379.25"/>
<path fill="none" stroke="black" d="M658.65,-383.25C658.65,-383.25 568,-383.25 568,-383.25 562,-383.25 556,-377.25 556,-371.25 556,-371.25 556,-334.6 556,-334.6 556,-328.6 562,-322.6 568,-322.6 568,-322.6 658.65,-322.6 658.65,-322.6 664.65,-322.6 670.65,-328.6 670.65,-334.6 670.65,-334.6 670.65,-371.25 670.65,-371.25 670.65,-377.25 664.65,-383.25 658.65,-383.25"/>
<path fill="none" stroke="black" d="M662.65,-387.25C662.65,-387.25 564,-387.25 564,-387.25 558,-387.25 552,-381.25 552,-375.25 552,-375.25 552,-330.6 552,-330.6 552,-324.6 558,-318.6 564,-318.6 564,-318.6 662.65,-318.6 662.65,-318.6 668.65,-318.6 674.65,-324.6 674.65,-330.6 674.65,-330.6 674.65,-375.25 674.65,-375.25 674.65,-381.25 668.65,-387.25 662.65,-387.25"/>
<text xml:space="preserve" text-anchor="middle" x="613.33" y="-362.55" font-family="Arial Bold" font-size="10.00">Katherine Powell 🔗</text>
<text xml:space="preserve" text-anchor="middle" x="613.33" y="-348.3" font-family="Arial Bold" font-size="10.00">b. 1797, GA</text>
<text xml:space="preserve" text-anchor="middle" x="613.33" y="-336.3" font-family="Arial Bold" font-size="10.00">d. 1873, AR</text>
</a>
</g>
</g>
<!-- G4_SATTERWHITE&#45;&gt;G4_POWELL -->
<g id="edge9" class="edge">
<title>G4_SATTERWHITE&#45;&gt;G4_POWELL</title>
<path fill="none" stroke="black" stroke-width="1.5" stroke-dasharray="5,2" d="M506.14,-352.92C520.93,-352.92 536.8,-352.92 551.67,-352.92"/>
<text xml:space="preserve" text-anchor="middle" x="528.89" y="-357.67" font-family="Times,serif" font-size="10.00">m. 1814</text>
</g>
<!-- G4_POWELL&#45;&gt;G3_SATTERWHITE_GGM -->
<g id="edge25" class="edge">
<title>G4_POWELL&#45;&gt;G3_SATTERWHITE_GGM</title>
<path fill="none" stroke="black" stroke-width="1.5" d="M588.94,-318.29C584.05,-311.54 578.9,-304.44 573.97,-297.64"/>
<polygon fill="black" stroke="black" stroke-width="1.5" points="576.99,-295.85 568.29,-289.81 571.33,-299.96 576.99,-295.85"/>
</g>
</g>
</svg>
