<?xml version="1.0" encoding="UTF-8" standalone="no"?>
<!DOCTYPE svg PUBLIC "-//W3C//DTD SVG 1.1//EN"
 "http://www.w3.org/Graphics/SVG/1.1/DTD/svg11.dtd">
<!-- Generated by graphviz version 14.0.4 (20251115.1723)
 -->
<!-- Title: family_tree Pages: 1 -->
<svg width="1151pt" height="384pt"
 viewBox="7.00 7.00 1144.00 377.00" xmlns="http://www.w3.org/2000/svg" xmlns:xlink="http://www.w3.org/1999/xlink">
<g id="graph0" class="graph" transform="scale(1 1) rotate(0) translate(14.4 369.65)">
<title>family_tree</title>
<polygon fill="white" stroke="none" points="-7.2,7.2 -7.2,-362.45 1129.48,-362.45 1129.48,7.2 -7.2,7.2"/>
<!-- G0_ME -->
<g id="node1" class="node">
<title>G0_ME</title>
<g id="a_node1"><a xlink:href="https://ancestors.familysearch.org/en/2Z8S-FQJ/mary-s-mccracken-1815-1889" xlink:title="Mary S. McCracken 🔗\nb. 1815, TN\nd. 1889, TX" target="_blank">
<path fill="gold" stroke="black" d="M542.15,-52.65C542.15,-52.65 451.25,-52.65 451.25,-52.65 445.25,-52.65 439.25,-46.65 439.25,-40.65 439.25,-40.65 439.25,-12 439.25,-12 439.25,-6 445.25,0 451.25,0 451.25,0 542.15,0 542.15,0 548.15,0 554.15,-6 554.15,-12 554.15,-12 554.15,-40.65 554.15,-40.65 554.15,-46.65 548.15,-52.65 542.15,-52.65"/>
<text xml:space="preserve" text-anchor="middle" x="496.7" y="-35.95" font-family="Arial" font-size="10.00">Mary S. McCracken 🔗</text>
<text xml:space="preserve" text-anchor="middle" x="496.7" y="-21.7" font-family="Arial" font-size="10.00">b. 1815, TN</text>
<text xml:space="preserve" text-anchor="middle" x="496.7" y="-9.7" font-family="Arial" font-size="10.00">d. 1889, TX</text>
</a>
</g>
</g>
<!-- G0_SPOUSE -->
<g id="node2" class="node">
<title>G0_SPOUSE</title>
<g id="a_node2"><a xlink:href="https://ancestors.familysearch.org/en/LXSM-GTQ/moses-woody-1810" xlink:title="Moses Woody 🔗\nb. 1810, NC\nd. MS" target="_blank">
<path fill="gold" stroke="black" d="M659.4,-52.65C659.4,-52.65 594,-52.65 594,-52.65 588,-52.65 582,-46.65 582,-40.65 582,-40.65 582,-12 582,-12 582,-6 588,0 594,0 594,0 659.4,0 659.4,0 665.4,0 671.4,-6 671.4,-12 671.4,-12 671.4,-40.65 671.4,-40.65 671.4,-46.65 665.4,-52.65 659.4,-52.65"/>
<text xml:space="preserve" text-anchor="middle" x="626.7" y="-35.95" font-family="Arial" font-size="10.00">Moses Woody 🔗</text>
<text xml:space="preserve" text-anchor="middle" x="626.7" y="-21.7" font-family="Arial" font-size="10.00">b. 1810, NC</text>
<text xml:space="preserve" text-anchor="middle" x="626.7" y="-9.7" font-family="Arial" font-size="10.00">d. MS</text>
</a>
</g>
</g>
<!-- G0_ME&#45;&gt;G0_SPOUSE -->
<g id="edge1" class="edge">
<title>G0_ME&#45;&gt;G0_SPOUSE</title>
<path fill="none" stroke="black" stroke-width="1.5" stroke-dasharray="5,2" d="M554.59,-26.32C563.6,-26.32 572.62,-26.32 581.63,-26.32"/>
</g>
<!-- G1_FATHER -->
<g id="node3" class="node">
<title>G1_FATHER</title>
<g id="a_node3"><a xlink:href="https://ancestors.familysearch.org/en/LC78-GN6/ephraim-mccracken-1772-1851" xlink:title="Ephraim McCracken 🔗\nb. ~1772, MD\nd. 1851, MS" target="_blank">
<path fill="lightcoral" stroke="black" d="M454.9,-128.3C454.9,-128.3 362.5,-128.3 362.5,-128.3 356.5,-128.3 350.5,-122.3 350.5,-116.3 350.5,-116.3 350.5,-87.65 350.5,-87.65 350.5,-81.65 356.5,-75.65 362.5,-75.65 362.5,-75.65 454.9,-75.65 454.9,-75.65 460.9,-75.65 466.9,-81.65 466.9,-87.65 466.9,-87.65 466.9,-116.3 466.9,-116.3 466.9,-122.3 460.9,-128.3 454.9,-128.3"/>
<text xml:space="preserve" text-anchor="middle" x="408.7" y="-111.6" font-family="Arial" font-size="10.00">Ephraim McCracken 🔗</text>
<text xml:space="preserve" text-anchor="middle" x="408.7" y="-97.35" font-family="Arial" font-size="10.00">b. ~1772, MD</text>
<text xml:space="preserve" text-anchor="middle" x="408.7" y="-85.35" font-family="Arial" font-size="10.00">d. 1851, MS</text>
</a>
</g>
</g>
<!-- G1_FATHER&#45;&gt;G0_ME -->
<g id="edge10" class="edge">
<title>G1_FATHER&#45;&gt;G0_ME</title>
<path fill="none" stroke="black" stroke-width="1.5" d="M439.48,-75.22C445.14,-70.48 451.12,-65.47 457,-60.55"/>
<polygon fill="black" stroke="black" stroke-width="1.5" points="458.92,-63.5 464.35,-54.4 454.43,-58.14 458.92,-63.5"/>
</g>
<!-- G1_MOTHER -->
<g id="node4" class="node">
<title>G1_MOTHER</title>
<g id="a_node4"><a xlink:href="https://www.findagrave.com/memorial/92330605/myrtle_jewel-scott" xlink:title="Mary Polly Mitchell 🔗\nb. 1781, NC\nd. 1811, NC" target="_blank">
<path fill="lightcoral" stroke="black" d="M675.9,-128.3C675.9,-128.3 589.5,-128.3 589.5,-128.3 583.5,-128.3 577.5,-122.3 577.5,-116.3 577.5,-116.3 577.5,-87.65 577.5,-87.65 577.5,-81.65 583.5,-75.65 589.5,-75.65 589.5,-75.65 675.9,-75.65 675.9,-75.65 681.9,-75.65 687.9,-81.65 687.9,-87.65 687.9,-87.65 687.9,-116.3 687.9,-116.3 687.9,-122.3 681.9,-128.3 675.9,-128.3"/>
<text xml:space="preserve" text-anchor="middle" x="632.7" y="-111.6" font-family="Arial" font-size="10.00">Mary Polly Mitchell 🔗</text>
<text xml:space="preserve" text-anchor="middle" x="632.7" y="-97.35" font-family="Arial" font-size="10.00">b. 1781, NC</text>
<text xml:space="preserve" text-anchor="middle" x="632.7" y="-85.35" font-family="Arial" font-size="10.00">d. 1811, NC</text>
</a>
</g>
</g>
<!-- G1_FATHER&#45;&gt;G1_MOTHER -->
<g id="edge2" class="edge">
<title>G1_FATHER&#45;&gt;G1_MOTHER</title>
<path fill="none" stroke="black" stroke-width="1.5" stroke-dasharray="5,2" d="M467.26,-101.98C501.22,-101.98 543.75,-101.98 577.18,-101.98"/>
<text xml:space="preserve" text-anchor="middle" x="522.2" y="-106.73" font-family="Times,serif" font-size="10.00">m. 1811, TN</text>
</g>
<!-- G1_MOTHER&#45;&gt;G0_ME -->
<g id="edge11" class="edge">
<title>G1_MOTHER&#45;&gt;G0_ME</title>
<path fill="none" stroke="black" stroke-width="1.5" d="M585.13,-75.22C575.24,-69.86 564.71,-64.16 554.5,-58.63"/>
<polygon fill="black" stroke="black" stroke-width="1.5" points="556.47,-55.71 546.01,-54.03 553.13,-61.87 556.47,-55.71"/>
</g>
<!-- G2_PATERNAL_GF -->
<g id="node5" class="node">
<title>G2_PATERNAL_GF</title>
<g id="a_node5"><a xlink:href="https://www.ancestry.com/genealogy/records/john-mccracken-24-6zqv" xlink:title="John McCracken 🔗\nb. ~1743, PA\nd. 1831, Scotland" target="_blank">
<path fill="lightsteelblue" stroke="black" d="M217.4,-203.95C217.4,-203.95 140,-203.95 140,-203.95 134,-203.95 128,-197.95 128,-191.95 128,-191.95 128,-163.3 128,-163.3 128,-157.3 134,-151.3 140,-151.3 140,-151.3 217.4,-151.3 217.4,-151.3 223.4,-151.3 229.4,-157.3 229.4,-163.3 229.4,-163.3 229.4,-191.95 229.4,-191.95 229.4,-197.95 223.4,-203.95 217.4,-203.95"/>
<text xml:space="preserve" text-anchor="middle" x="178.7" y="-187.25" font-family="Arial" font-size="10.00">John McCracken 🔗</text>
<text xml:space="preserve" text-anchor="middle" x="178.7" y="-173" font-family="Arial" font-size="10.00">b. ~1743, PA</text>
<text xml:space="preserve" text-anchor="middle" x="178.7" y="-161" font-family="Arial" font-size="10.00">d. 1831, Scotland</text>
</a>
</g>
</g>
<!-- G2_PATERNAL_GF&#45;&gt;G1_FATHER -->
<g id="edge12" class="edge">
<title>G2_PATERNAL_GF&#45;&gt;G1_FATHER</title>
<path fill="none" stroke="black" stroke-width="1.5" d="M229.74,-160.28C261.73,-150.04 303.39,-136.7 338.47,-125.46"/>
<polygon fill="black" stroke="black" stroke-width="1.5" points="339.47,-128.82 347.93,-122.44 337.34,-122.15 339.47,-128.82"/>
</g>
<!-- G2_PATERNAL_GM -->
<g id="node6" class="node">
<title>G2_PATERNAL_GM</title>
<g id="a_node6"><a xlink:href="https://ancestors.familysearch.org/en/LHXM-ZQH/jennet-lytle-1745-1820" xlink:title="Jennet Lytle 🔗\nb. 1745, PA\nd. after 1820, TN" target="_blank">
<path fill="lightsteelblue" stroke="black" d="M440.65,-203.95C440.65,-203.95 376.75,-203.95 376.75,-203.95 370.75,-203.95 364.75,-197.95 364.75,-191.95 364.75,-191.95 364.75,-163.3 364.75,-163.3 364.75,-157.3 370.75,-151.3 376.75,-151.3 376.75,-151.3 440.65,-151.3 440.65,-151.3 446.65,-151.3 452.65,-157.3 452.65,-163.3 452.65,-163.3 452.65,-191.95 452.65,-191.95 452.65,-197.95 446.65,-203.95 440.65,-203.95"/>
<text xml:space="preserve" text-anchor="middle" x="408.7" y="-187.25" font-family="Arial" font-size="10.00">Jennet Lytle 🔗</text>
<text xml:space="preserve" text-anchor="middle" x="408.7" y="-173" font-family="Arial" font-size="10.00">b. 1745, PA</text>
<text xml:space="preserve" text-anchor="middle" x="408.7" y="-161" font-family="Arial" font-size="10.00">d. after 1820, TN</text>
</a>
</g>
</g>
<!-- G2_PATERNAL_GF&#45;&gt;G2_PATERNAL_GM -->
<g id="edge3" class="edge">
<title>G2_PATERNAL_GF&#45;&gt;G2_PATERNAL_GM</title>
<path fill="none" stroke="black" stroke-width="1.5" stroke-dasharray="5,2" d="M229.74,-177.62C270.11,-177.62 325.89,-177.62 364.39,-177.62"/>
<text xml:space="preserve" text-anchor="middle" x="297.08" y="-182.38" font-family="Times,serif" font-size="10.00">m. 1766, PA</text>
</g>
<!-- G2_PATERNAL_GM&#45;&gt;G1_FATHER -->
<g id="edge13" class="edge">
<title>G2_PATERNAL_GM&#45;&gt;G1_FATHER</title>
<path fill="none" stroke="black" stroke-width="1.5" d="M408.7,-150.87C408.7,-147.44 408.7,-143.88 408.7,-140.31"/>
<polygon fill="black" stroke="black" stroke-width="1.5" points="412.2,-140.62 408.7,-130.62 405.2,-140.62 412.2,-140.62"/>
</g>
<!-- G2_MATERNAL_GF -->
<g id="node7" class="node">
<title>G2_MATERNAL_GF</title>
<g id="a_node7"><a xlink:href="https://ancestors.familysearch.org/en/LZKD-3LL/john-stuart-mitchell-1760-1839" xlink:title="John Stuart Mitchell 🔗\nb. 1760, NC\nd. 1839, TN" target="_blank">
<path fill="lightsteelblue" stroke="black" d="M677.78,-203.95C677.78,-203.95 587.62,-203.95 587.62,-203.95 581.62,-203.95 575.62,-197.95 575.62,-191.95 575.62,-191.95 575.62,-163.3 575.62,-163.3 575.62,-157.3 581.62,-151.3 587.62,-151.3 587.62,-151.3 677.78,-151.3 677.78,-151.3 683.78,-151.3 689.78,-157.3 689.78,-163.3 689.78,-163.3 689.78,-191.95 689.78,-191.95 689.78,-197.95 683.78,-203.95 677.78,-203.95"/>
<text xml:space="preserve" text-anchor="middle" x="632.7" y="-187.25" font-family="Arial" font-size="10.00">John Stuart Mitchell 🔗</text>
<text xml:space="preserve" text-anchor="middle" x="632.7" y="-173" font-family="Arial" font-size="10.00">b. 1760, NC</text>
<text xml:space="preserve" text-anchor="middle" x="632.7" y="-161" font-family="Arial" font-size="10.00">d. 1839, TN</text>
</a>
</g>
</g>
<!-- G2_MATERNAL_GF&#45;&gt;G1_MOTHER -->
<g id="edge14" class="edge">
<title>G2_MATERNAL_GF&#45;&gt;G1_MOTHER</title>
<path fill="none" stroke="black" stroke-width="1.5" d="M632.7,-150.87C632.7,-147.44 632.7,-143.88 632.7,-140.31"/>
<polygon fill="black" stroke="black" stroke-width="1.5" points="636.2,-140.62 632.7,-130.62 629.2,-140.62 636.2,-140.62"/>
</g>
<!-- G2_MATERNAL_GM -->
<g id="node8" class="node">
<title>G2_MATERNAL_GM</title>
<g id="a_node8"><a xlink:href="https://ancestors.familysearch.org/en/LZKD-35Q/agnes-tate-1760-1830" xlink:title="Agnes Tate 🔗\nb. 1760, NC\nd. 1830, TN" target="_blank">
<path fill="lightsteelblue" stroke="black" d="M949.65,-203.95C949.65,-203.95 897.75,-203.95 897.75,-203.95 891.75,-203.95 885.75,-197.95 885.75,-191.95 885.75,-191.95 885.75,-163.3 885.75,-163.3 885.75,-157.3 891.75,-151.3 897.75,-151.3 897.75,-151.3 949.65,-151.3 949.65,-151.3 955.65,-151.3 961.65,-157.3 961.65,-163.3 961.65,-163.3 961.65,-191.95 961.65,-191.95 961.65,-197.95 955.65,-203.95 949.65,-203.95"/>
<text xml:space="preserve" text-anchor="middle" x="923.7" y="-187.25" font-family="Arial" font-size="10.00">Agnes Tate 🔗</text>
<text xml:space="preserve" text-anchor="middle" x="923.7" y="-173" font-family="Arial" font-size="10.00">b. 1760, NC</text>
<text xml:space="preserve" text-anchor="middle" x="923.7" y="-161" font-family="Arial" font-size="10.00">d. 1830, TN</text>
</a>
</g>
</g>
<!-- G2_MATERNAL_GF&#45;&gt;G2_MATERNAL_GM -->
<g id="edge4" class="edge">
<title>G2_MATERNAL_GF&#45;&gt;G2_MATERNAL_GM</title>
<path fill="none" stroke="black" stroke-width="1.5" stroke-dasharray="5,2" d="M690.19,-177.62C748,-177.62 835.49,-177.62 885.35,-177.62"/>
<text xml:space="preserve" text-anchor="middle" x="787.76" y="-182.38" font-family="Times,serif" font-size="10.00">m. 1779, NC</text>
</g>
<!-- G2_MATERNAL_GM&#45;&gt;G1_MOTHER -->
<g id="edge15" class="edge">
<title>G2_MATERNAL_GM&#45;&gt;G1_MOTHER</title>
<path fill="none" stroke="black" stroke-width="1.5" d="M885.36,-166.92C838.22,-154.99 757.4,-134.53 699.86,-119.97"/>
<polygon fill="black" stroke="black" stroke-width="1.5" points="701.07,-116.67 690.52,-117.61 699.36,-123.46 701.07,-116.67"/>
</g>
<!-- G3_MITCHELL_GGF -->
<g id="node9" class="node">
<title>G3_MITCHELL_GGF</title>
<g id="a_node9"><a xlink:href="https://ancestors.familysearch.org/en/K26B-8VZ/andrew-alexander-mitchell-1731-1795" xlink:title="Andrew Alexander Mitchell 🔗\nb. 1731, Ireland\nd. 1795, NC" target="_blank">
<path fill="lightgreen" stroke="black" d="M635.03,-279.6C635.03,-279.6 516.38,-279.6 516.38,-279.6 510.38,-279.6 504.38,-273.6 504.38,-267.6 504.38,-267.6 504.38,-238.95 504.38,-238.95 504.38,-232.95 510.38,-226.95 516.38,-226.95 516.38,-226.95 635.03,-226.95 635.03,-226.95 641.03,-226.95 647.03,-232.95 647.03,-238.95 647.03,-238.95 647.03,-267.6 647.03,-267.6 647.03,-273.6 641.03,-279.6 635.03,-279.6"/>
<text xml:space="preserve" text-anchor="middle" x="575.7" y="-262.9" font-family="Arial" font-size="10.00">Andrew Alexander Mitchell 🔗</text>
<text xml:space="preserve" text-anchor="middle" x="575.7" y="-248.65" font-family="Arial" font-size="10.00">b. 1731, Ireland</text>
<text xml:space="preserve" text-anchor="middle" x="575.7" y="-236.65" font-family="Arial" font-size="10.00">d. 1795, NC</text>
</a>
</g>
</g>
<!-- G3_MITCHELL_GGF&#45;&gt;G2_MATERNAL_GF -->
<g id="edge20" class="edge">
<title>G3_MITCHELL_GGF&#45;&gt;G2_MATERNAL_GF</title>
<path fill="none" stroke="black" stroke-width="1.5" d="M595.64,-226.52C598.9,-222.3 602.33,-217.86 605.74,-213.46"/>
<polygon fill="black" stroke="black" stroke-width="1.5" points="608.32,-215.84 611.67,-205.79 602.79,-211.56 608.32,-215.84"/>
</g>
<!-- G3_MCGOWAN_GGM -->
<g id="node10" class="node">
<title>G3_MCGOWAN_GGM</title>
<g id="a_node10"><a xlink:href="https://ancestors.familysearch.org/en/LT4T-MB3/mary-margaret-mcgowan-1722-1790" xlink:title="Mary Margaret McGowan 🔗\nb. 1722, Ireland\nd. 1790, NC" target="_blank">
<path fill="lightgreen" stroke="black" d="M852.4,-279.6C852.4,-279.6 739,-279.6 739,-279.6 733,-279.6 727,-273.6 727,-267.6 727,-267.6 727,-238.95 727,-238.95 727,-232.95 733,-226.95 739,-226.95 739,-226.95 852.4,-226.95 852.4,-226.95 858.4,-226.95 864.4,-232.95 864.4,-238.95 864.4,-238.95 864.4,-267.6 864.4,-267.6 864.4,-273.6 858.4,-279.6 852.4,-279.6"/>
<text xml:space="preserve" text-anchor="middle" x="795.7" y="-262.9" font-family="Arial" font-size="10.00">Mary Margaret McGowan 🔗</text>
<text xml:space="preserve" text-anchor="middle" x="795.7" y="-248.65" font-family="Arial" font-size="10.00">b. 1722, Ireland</text>
<text xml:space="preserve" text-anchor="middle" x="795.7" y="-236.65" font-family="Arial" font-size="10.00">d. 1790, NC</text>
</a>
</g>
</g>
<!-- G3_MITCHELL_GGF&#45;&gt;G3_MCGOWAN_GGM -->
<g id="edge5" class="edge">
<title>G3_MITCHELL_GGF&#45;&gt;G3_MCGOWAN_GGM</title>
<path fill="none" stroke="black" stroke-width="1.5" stroke-dasharray="5,2" d="M647.43,-253.27C672.89,-253.27 701.46,-253.27 726.69,-253.27"/>
<text xml:space="preserve" text-anchor="middle" x="687.01" y="-258.02" font-family="Times,serif" font-size="10.00">m. 1742, Ireland</text>
</g>
<!-- G3_MCGOWAN_GGM&#45;&gt;G2_MATERNAL_GF -->
<g id="edge21" class="edge">
<title>G3_MCGOWAN_GGM&#45;&gt;G2_MATERNAL_GF</title>
<path fill="none" stroke="black" stroke-width="1.5" d="M738.69,-226.52C726.41,-220.97 713.3,-215.05 700.65,-209.33"/>
<polygon fill="black" stroke="black" stroke-width="1.5" points="702.3,-206.23 691.75,-205.3 699.42,-212.61 702.3,-206.23"/>
</g>
<!-- G3_MCCRACKEN_GGF -->
<g id="node11" class="node">
<title>G3_MCCRACKEN_GGF</title>
<g id="a_node11"><a xlink:href="https://www.ancestry.com/genealogy/records/john-mccracken-24-6zqv" xlink:title="John McCracken 🔗\nb. 1699, Ireland\nd. 1792" target="_blank">
<path fill="lightgreen" stroke="black" d="M89.4,-279.6C89.4,-279.6 12,-279.6 12,-279.6 6,-279.6 0,-273.6 0,-267.6 0,-267.6 0,-238.95 0,-238.95 0,-232.95 6,-226.95 12,-226.95 12,-226.95 89.4,-226.95 89.4,-226.95 95.4,-226.95 101.4,-232.95 101.4,-238.95 101.4,-238.95 101.4,-267.6 101.4,-267.6 101.4,-273.6 95.4,-279.6 89.4,-279.6"/>
<text xml:space="preserve" text-anchor="middle" x="50.7" y="-262.9" font-family="Arial" font-size="10.00">John McCracken 🔗</text>
<text xml:space="preserve" text-anchor="middle" x="50.7" y="-248.65" font-family="Arial" font-size="10.00">b. 1699, Ireland</text>
<text xml:space="preserve" text-anchor="middle" x="50.7" y="-236.65" font-family="Arial" font-size="10.00">d. 1792</text>
</a>
</g>
</g>
<!-- G3_MCCRACKEN_GGF&#45;&gt;G2_PATERNAL_GF -->
<g id="edge16" class="edge">
<title>G3_MCCRACKEN_GGF&#45;&gt;G2_PATERNAL_GF</title>
<path fill="none" stroke="black" stroke-width="1.5" d="M95.47,-226.52C104.58,-221.27 114.27,-215.7 123.69,-210.28"/>
<polygon fill="black" stroke="black" stroke-width="1.5" points="125.28,-213.4 132.21,-205.38 121.79,-207.33 125.28,-213.4"/>
</g>
<!-- G3_CLOTWORTHY_GGM -->
<g id="node12" class="node">
<title>G3_CLOTWORTHY_GGM</title>
<g id="a_node12"><a xlink:href="https://www.ancestry.com/genealogy/records/john-mccracken-24-6zqv" xlink:title="Mary Clotworthy 🔗\nb.\nd." target="_blank">
<path fill="lightgreen" stroke="black" d="M216.28,-279.6C216.28,-279.6 141.13,-279.6 141.13,-279.6 135.13,-279.6 129.13,-273.6 129.13,-267.6 129.13,-267.6 129.13,-238.95 129.13,-238.95 129.13,-232.95 135.13,-226.95 141.13,-226.95 141.13,-226.95 216.28,-226.95 216.28,-226.95 222.28,-226.95 228.28,-232.95 228.28,-238.95 228.28,-238.95 228.28,-267.6 228.28,-267.6 228.28,-273.6 222.28,-279.6 216.28,-279.6"/>
<text xml:space="preserve" text-anchor="middle" x="178.7" y="-262.9" font-family="Arial" font-size="10.00">Mary Clotworthy 🔗</text>
<text xml:space="preserve" text-anchor="middle" x="178.7" y="-248.65" font-family="Arial" font-size="10.00">b.</text>
<text xml:space="preserve" text-anchor="middle" x="178.7" y="-236.65" font-family="Arial" font-size="10.00">d.</text>
</a>
</g>
</g>
<!-- G3_MCCRACKEN_GGF&#45;&gt;G3_CLOTWORTHY_GGM -->
<g id="edge6" class="edge">
<title>G3_MCCRACKEN_GGF&#45;&gt;G3_CLOTWORTHY_GGM</title>
<path fill="none" stroke="black" stroke-width="1.5" stroke-dasharray="5,2" d="M101.7,-253.27C110.72,-253.27 119.75,-253.27 128.77,-253.27"/>
</g>
<!-- G3_CLOTWORTHY_GGM&#45;&gt;G2_PATERNAL_GF -->
<g id="edge17" class="edge">
<title>G3_CLOTWORTHY_GGM&#45;&gt;G2_PATERNAL_GF</title>
<path fill="none" stroke="black" stroke-width="1.5" d="M178.7,-226.52C178.7,-223.09 178.7,-219.53 178.7,-215.96"/>
<polygon fill="black" stroke="black" stroke-width="1.5" points="182.2,-216.27 178.7,-206.27 175.2,-216.27 182.2,-216.27"/>
</g>
<!-- G3_LYTLE_GGF -->
<g id="node13" class="node">
<title>G3_LYTLE_GGF</title>
<g id="a_node13"><a xlink:href="https://ancestors.familysearch.org/en/LBK8-83D/ephraim-lytle-1714-1775" xlink:title="Ephraim Lytle 🔗\nb. 1714, Ireland\nd. 1775, PA" target="_blank">
<path fill="lightgreen" stroke="black" d="M317.28,-279.6C317.28,-279.6 254.13,-279.6 254.13,-279.6 248.13,-279.6 242.13,-273.6 242.13,-267.6 242.13,-267.6 242.13,-238.95 242.13,-238.95 242.13,-232.95 248.13,-226.95 254.13,-226.95 254.13,-226.95 317.28,-226.95 317.28,-226.95 323.28,-226.95 329.28,-232.95 329.28,-238.95 329.28,-238.95 329.28,-267.6 329.28,-267.6 329.28,-273.6 323.28,-279.6 317.28,-279.6"/>
<text xml:space="preserve" text-anchor="middle" x="285.7" y="-262.9" font-family="Arial" font-size="10.00">Ephraim Lytle 🔗</text>
<text xml:space="preserve" text-anchor="middle" x="285.7" y="-248.65" font-family="Arial" font-size="10.00">b. 1714, Ireland</text>
<text xml:space="preserve" text-anchor="middle" x="285.7" y="-236.65" font-family="Arial" font-size="10.00">d. 1775, PA</text>
</a>
</g>
</g>
<!-- G3_LYTLE_GGF&#45;&gt;G2_PATERNAL_GM -->
<g id="edge18" class="edge">
<title>G3_LYTLE_GGF&#45;&gt;G2_PATERNAL_GM</title>
<path fill="none" stroke="black" stroke-width="1.5" d="M328.72,-226.52C337.38,-221.33 346.59,-215.82 355.55,-210.45"/>
<polygon fill="black" stroke="black" stroke-width="1.5" points="357.18,-213.55 363.96,-205.41 353.59,-207.55 357.18,-213.55"/>
</g>
<!-- G3_MCCRACKEN_GGM -->
<g id="node14" class="node">
<title>G3_MCCRACKEN_GGM</title>
<g id="a_node14"><a xlink:href="https://ancestors.familysearch.org/en/LZRC-VQL/jennet-mccracken-1714-1762" xlink:title="Jennet McCracken 🔗\nb. 1714, Ireland\nd. 1762, PA" target="_blank">
<path fill="lightgreen" stroke="black" d="M478.53,-279.6C478.53,-279.6 392.88,-279.6 392.88,-279.6 386.88,-279.6 380.88,-273.6 380.88,-267.6 380.88,-267.6 380.88,-238.95 380.88,-238.95 380.88,-232.95 386.88,-226.95 392.88,-226.95 392.88,-226.95 478.53,-226.95 478.53,-226.95 484.53,-226.95 490.53,-232.95 490.53,-238.95 490.53,-238.95 490.53,-267.6 490.53,-267.6 490.53,-273.6 484.53,-279.6 478.53,-279.6"/>
<text xml:space="preserve" text-anchor="middle" x="435.7" y="-262.9" font-family="Arial" font-size="10.00">Jennet McCracken 🔗</text>
<text xml:space="preserve" text-anchor="middle" x="435.7" y="-248.65" font-family="Arial" font-size="10.00">b. 1714, Ireland</text>
<text xml:space="preserve" text-anchor="middle" x="435.7" y="-236.65" font-family="Arial" font-size="10.00">d. 1762, PA</text>
</a>
</g>
</g>
<!-- G3_LYTLE_GGF&#45;&gt;G3_MCCRACKEN_GGM -->
<g id="edge7" class="edge">
<title>G3_LYTLE_GGF&#45;&gt;G3_MCCRACKEN_GGM</title>
<path fill="none" stroke="black" stroke-width="1.5" stroke-dasharray="5,2" d="M329.49,-253.27C345.49,-253.27 363.79,-253.27 380.64,-253.27"/>
<text xml:space="preserve" text-anchor="middle" x="355.08" y="-258.02" font-family="Times,serif" font-size="10.00">m. ~1736</text>
</g>
<!-- G3_MCCRACKEN_GGM&#45;&gt;G2_PATERNAL_GM -->
<g id="edge19" class="edge">
<title>G3_MCCRACKEN_GGM&#45;&gt;G2_PATERNAL_GM</title>
<path fill="none" stroke="black" stroke-width="1.5" d="M426.26,-226.52C424.92,-222.87 423.52,-219.06 422.13,-215.25"/>
<polygon fill="black" stroke="black" stroke-width="1.5" points="425.51,-214.31 418.78,-206.13 418.94,-216.72 425.51,-214.31"/>
</g>
<!-- G3_TAIT_GGF -->
<g id="node15" class="node">
<title>G3_TAIT_GGF</title>
<g id="a_node15"><a xlink:href="https://ancestors.familysearch.org/en/LD5F-577/george-tait-1731-1774" xlink:title="George Tait 🔗\nb. 1731, Scotland\nd. 1774, NC" target="_blank">
<path fill="lightgreen" stroke="black" d="M957.15,-279.6C957.15,-279.6 890.25,-279.6 890.25,-279.6 884.25,-279.6 878.25,-273.6 878.25,-267.6 878.25,-267.6 878.25,-238.95 878.25,-238.95 878.25,-232.95 884.25,-226.95 890.25,-226.95 890.25,-226.95 957.15,-226.95 957.15,-226.95 963.15,-226.95 969.15,-232.95 969.15,-238.95 969.15,-238.95 969.15,-267.6 969.15,-267.6 969.15,-273.6 963.15,-279.6 957.15,-279.6"/>
<text xml:space="preserve" text-anchor="middle" x="923.7" y="-262.9" font-family="Arial" font-size="10.00">George Tait 🔗</text>
<text xml:space="preserve" text-anchor="middle" x="923.7" y="-248.65" font-family="Arial" font-size="10.00">b. 1731, Scotland</text>
<text xml:space="preserve" text-anchor="middle" x="923.7" y="-236.65" font-family="Arial" font-size="10.00">d. 1774, NC</text>
</a>
</g>
</g>
<!-- G3_TAIT_GGF&#45;&gt;G2_MATERNAL_GM -->
<g id="edge22" class="edge">
<title>G3_TAIT_GGF&#45;&gt;G2_MATERNAL_GM</title>
<path fill="none" stroke="black" stroke-width="1.5" d="M923.7,-226.52C923.7,-223.09 923.7,-219.53 923.7,-215.96"/>
<polygon fill="black" stroke="black" stroke-width="1.5" points="927.2,-216.27 923.7,-206.27 920.2,-216.27 927.2,-216.27"/>
</g>
<!-- G3_SCOBY_GGM -->
<g id="node16" class="node">
<title>G3_SCOBY_GGM</title>
<g id="a_node16"><a xlink:href="https://ancestors.familysearch.org/en/LD5F-5CS/jennet-scoby-1737-1785" xlink:title="Jennet Scoby 🔗\nb. 1737, PA\nd. 1785, NC" target="_blank">
<path fill="lightgreen" stroke="black" d="M1110.28,-279.6C1110.28,-279.6 1047.12,-279.6 1047.12,-279.6 1041.12,-279.6 1035.12,-273.6 1035.12,-267.6 1035.12,-267.6 1035.12,-238.95 1035.12,-238.95 1035.12,-232.95 1041.12,-226.95 1047.12,-226.95 1047.12,-226.95 1110.28,-226.95 1110.28,-226.95 1116.28,-226.95 1122.28,-232.95 1122.28,-238.95 1122.28,-238.95 1122.28,-267.6 1122.28,-267.6 1122.28,-273.6 1116.28,-279.6 1110.28,-279.6"/>
<text xml:space="preserve" text-anchor="middle" x="1078.7" y="-262.9" font-family="Arial" font-size="10.00">Jennet Scoby 🔗</text>
<text xml:space="preserve" text-anchor="middle" x="1078.7" y="-248.65" font-family="Arial" font-size="10.00">b. 1737, PA</text>
<text xml:space="preserve" text-anchor="middle" x="1078.7" y="-236.65" font-family="Arial" font-size="10.00">d. 1785, NC</text>
</a>
</g>
</g>
<!-- G3_TAIT_GGF&#45;&gt;G3_SCOBY_GGM -->
<g id="edge8" class="edge">
<title>G3_TAIT_GGF&#45;&gt;G3_SCOBY_GGM</title>
<path fill="none" stroke="black" stroke-width="1.5" stroke-dasharray="5,2" d="M969.37,-253.27C989.99,-253.27 1014.26,-253.27 1034.69,-253.27"/>
<text xml:space="preserve" text-anchor="middle" x="1002.14" y="-258.02" font-family="Times,serif" font-size="10.00">m. 1756, NC</text>
</g>
<!-- G3_SCOBY_GGM&#45;&gt;G2_MATERNAL_GM -->
<g id="edge23" class="edge">
<title>G3_SCOBY_GGM&#45;&gt;G2_MATERNAL_GM</title>
<path fill="none" stroke="black" stroke-width="1.5" d="M1034.7,-231.37C1015.45,-222.22 992.8,-211.46 972.99,-202.05"/>
<polygon fill="black" stroke="black" stroke-width="1.5" points="974.6,-198.94 964.07,-197.8 971.6,-205.26 974.6,-198.94"/>
</g>
<!-- G4_MCCRACKEN_GGGF -->
<g id="node17" class="node">
<title>G4_MCCRACKEN_GGGF</title>
<path fill="wheat" stroke="black" d="M368.15,-354.12C368.15,-354.12 277.25,-354.12 277.25,-354.12 271.25,-354.12 265.25,-348.12 265.25,-342.12 265.25,-342.12 265.25,-315.72 265.25,-315.72 265.25,-309.72 271.25,-303.72 277.25,-303.72 277.25,-303.72 368.15,-303.72 368.15,-303.72 374.15,-303.72 380.15,-309.72 380.15,-315.72 380.15,-315.72 380.15,-342.12 380.15,-342.12 380.15,-348.12 374.15,-354.12 368.15,-354.12"/>
<text xml:space="preserve" text-anchor="middle" x="322.7" y="-337.42" font-family="Arial" font-size="10.00">John Hugh McCracken</text>
<text xml:space="preserve" text-anchor="middle" x="322.7" y="-325.42" font-family="Arial" font-size="10.00">b. 1691, Scotland</text>
<text xml:space="preserve" text-anchor="middle" x="322.7" y="-313.42" font-family="Arial" font-size="10.00">d. 1730, Ireland</text>
</g>
<!-- G4_MCCRACKEN_GGGF&#45;&gt;G3_MCCRACKEN_GGM -->
<g id="edge24" class="edge">
<title>G4_MCCRACKEN_GGGF&#45;&gt;G3_MCCRACKEN_GGM</title>
<path fill="none" stroke="black" stroke-width="1.5" d="M360.33,-303.4C368.63,-297.99 377.55,-292.17 386.25,-286.51"/>
<polygon fill="black" stroke="black" stroke-width="1.5" points="387.93,-289.59 394.4,-281.19 384.11,-283.72 387.93,-289.59"/>
</g>
<!-- G4_CAMPBELL_GGGM -->
<g id="node18" class="node">
<title>G4_CAMPBELL_GGGM</title>
<g id="a_node18"><a xlink:href="https://www.wikitree.com/wiki/Campbell-15717" xlink:title="Ann Campbell 🔗\nb. ~1690, Scotland\nd. ~1742" target="_blank">
<path fill="wheat" stroke="black" d="M544.15,-355.25C544.15,-355.25 471.25,-355.25 471.25,-355.25 465.25,-355.25 459.25,-349.25 459.25,-343.25 459.25,-343.25 459.25,-314.6 459.25,-314.6 459.25,-308.6 465.25,-302.6 471.25,-302.6 471.25,-302.6 544.15,-302.6 544.15,-302.6 550.15,-302.6 556.15,-308.6 556.15,-314.6 556.15,-314.6 556.15,-343.25 556.15,-343.25 556.15,-349.25 550.15,-355.25 544.15,-355.25"/>
<text xml:space="preserve" text-anchor="middle" x="507.7" y="-338.55" font-family="Arial" font-size="10.00">Ann Campbell 🔗</text>
<text xml:space="preserve" text-anchor="middle" x="507.7" y="-324.3" font-family="Arial" font-size="10.00">b. ~1690, Scotland</text>
<text xml:space="preserve" text-anchor="middle" x="507.7" y="-312.3" font-family="Arial" font-size="10.00">d. ~1742</text>
</a>
</g>
</g>
<!-- G4_MCCRACKEN_GGGF&#45;&gt;G4_CAMPBELL_GGGM -->
<g id="edge9" class="edge">
<title>G4_MCCRACKEN_GGGF&#45;&gt;G4_CAMPBELL_GGGM</title>
<path fill="none" stroke="black" stroke-width="1.5" stroke-dasharray="5,2" d="M380.47,-328.92C405.6,-328.92 434.73,-328.92 458.76,-328.92"/>
<text xml:space="preserve" text-anchor="middle" x="419.7" y="-333.67" font-family="Times,serif" font-size="10.00">m. 1714, Ireland</text>
</g>
<!-- G4_CAMPBELL_GGGM&#45;&gt;G3_MCCRACKEN_GGM -->
<g id="edge25" class="edge">
<title>G4_CAMPBELL_GGGM&#45;&gt;G3_MCCRACKEN_GGM</title>
<path fill="none" stroke="black" stroke-width="1.5" d="M482.52,-302.17C478.17,-297.72 473.59,-293.03 469.06,-288.4"/>
<polygon fill="black" stroke="black" stroke-width="1.5" points="471.58,-285.97 462.09,-281.27 466.58,-290.87 471.58,-285.97"/>
</g>
</g>
</svg>
